M48
METRIC,LZ,000.000
;FILE_FORMAT=3:3
;TYPE=PLATED
;Layer: PTH_Through
;EasyEDA v6.5.15, 2022-09-18 23:53:43
;d3691748ad514627a52f7aef6c0eae22,d4513426d2154aa39f2c2607306ca696,10
;Gerber Generator version 0.2
;Holesize 1 = 0.305 mm
T01C0.305
;Holesize 2 = 0.306 mm
T02C0.306
;Holesize 3 = 0.351 mm
T03C0.351
;Holesize 4 = 0.889 mm
T04C0.889
;Holesize 5 = 0.900 mm
T05C0.900
;Holesize 6 = 0.915 mm
T06C0.915
;Holesize 7 = 1.000 mm
T07C1.000
;Holesize 8 = 1.101 mm
T08C1.101
;Holesize 9 = 1.199 mm
T09C1.199
;Holesize 10 = 1.200 mm
T10C1.200
;Holesize 11 = 1.400 mm
T11C1.400
;Holesize 12 = 1.800 mm
T12C1.800
%
G05
G90
T01
X010750Y-018375
X010000Y-036625
X037498Y-011124
X010750Y-023000
X040500Y-014750
X013750Y-023625
X045500Y-014750
X017625Y-025500
X043998Y-011124
X011000Y-024250
X044000Y-024000
X046497Y-011124
X046500Y-024000
X050500Y-014750
X048999Y-024000
X008750Y-036625
X031873Y-012874
X032998Y-012874
X030748Y-012874
X032998Y-011749
X030748Y-011749
X031873Y-011749
X008750Y-035750
X008750Y-034875
X018875Y-026125
T02
X020125Y-026750
X021500Y-027375
X016375Y-024875
X023500Y-029500
X025000Y-041750
X020250Y-036625
X021500Y-036625
X021374Y-042748
X016374Y-039998
X015124Y-039998
T03
X041373Y-023999
T04
X013455Y-001460
X013455Y-004000
X010915Y-001460
X010915Y-004000
X008375Y-001460
X008375Y-004000
T05
X083478Y-048879
X081272Y-036371
X078150Y-031125
X090850Y-031125
T06
X021749Y-008290
X021749Y-003210
T07
X048975Y-018725
X046435Y-018725
X043895Y-018725
X041355Y-018725
X038815Y-018725
X036275Y-018725
X036275Y-006025
X038815Y-006025
X041355Y-006025
X043895Y-006025
X046435Y-006025
X048975Y-006025
X071065Y-043835
X071065Y-046375
X071065Y-048915
X078685Y-043835
X078685Y-046375
X078685Y-048915
T08
X027500Y-041500
X027500Y-046500
X022500Y-046500
X022500Y-041500
X043500Y-041500
X043500Y-046500
X038500Y-046500
X038500Y-041500
X059502Y-041501
X059502Y-046501
X054502Y-046501
X054502Y-041501
T09
X085014Y-034087
X090227Y-048408
X002500Y-046124
X002500Y-048626
T10
X095499Y-048500
X095499Y-038500
T11
X079751Y-025499
X077211Y-025499
X082291Y-025499
T12
X100870Y-011664
X100870Y-019584
X003750Y-013980
X003750Y-010020
X100870Y-024663
X100870Y-032584
M30
