G04 Layer: BottomLayer*
G04 EasyEDA v6.5.15, 2022-09-18 23:53:43*
G04 d3691748ad514627a52f7aef6c0eae22,d4513426d2154aa39f2c2607306ca696,10*
G04 Gerber Generator version 0.2*
G04 Scale: 100 percent, Rotated: No, Reflected: No *
G04 Dimensions in millimeters *
G04 leading zeros omitted , absolute positions ,4 integer and 5 decimal *
%FSLAX45Y45*%
%MOMM*%

%ADD10C,0.2540*%
%ADD11C,0.5080*%
%ADD12C,2.5400*%
%ADD13C,2.0320*%
%ADD14C,1.6000*%
%ADD15C,2.2000*%
%ADD16C,2.8000*%
%ADD17C,1.8796*%
%ADD18C,1.5748*%
%ADD19R,1.5748X1.5748*%
%ADD20R,1.8000X1.8000*%
%ADD21C,1.8000*%
%ADD22O,1.9999959999999999X2.4999949999999997*%
%ADD23C,1.5240*%
%ADD24C,0.6200*%
%ADD25C,0.6198*%
%ADD26C,0.0146*%

%LPD*%
G36*
X2060143Y-449986D02*
G01*
X2056282Y-449224D01*
X2052980Y-447040D01*
X2050796Y-443738D01*
X2049983Y-439826D01*
X2050034Y-275996D01*
X2049018Y-275031D01*
X972667Y-275031D01*
X968756Y-274218D01*
X965504Y-272034D01*
X963269Y-268732D01*
X962507Y-264871D01*
X962507Y-10668D01*
X963269Y-6756D01*
X965504Y-3505D01*
X968756Y-1270D01*
X972667Y-508D01*
X2289860Y-508D01*
X2293721Y-1270D01*
X2297023Y-3505D01*
X2299208Y-6756D01*
X2300020Y-10668D01*
X2300020Y-439826D01*
X2299208Y-443738D01*
X2297023Y-447040D01*
X2293721Y-449224D01*
X2289810Y-449986D01*
G37*

%LPC*%
G36*
X2219350Y-412750D02*
G01*
X2220925Y-412089D01*
X2232660Y-405130D01*
X2243378Y-396697D01*
X2252827Y-386892D01*
X2260955Y-375920D01*
X2266696Y-365404D01*
X2219350Y-365404D01*
G37*
G36*
X2130450Y-412750D02*
G01*
X2130450Y-365404D01*
X2083104Y-365404D01*
X2088845Y-375920D01*
X2096922Y-386892D01*
X2106422Y-396697D01*
X2117090Y-405130D01*
X2128824Y-412089D01*
G37*
G36*
X2219350Y-276504D02*
G01*
X2266543Y-276504D01*
X2264410Y-271932D01*
X2257094Y-260400D01*
X2248255Y-249986D01*
X2238146Y-240842D01*
X2226919Y-233121D01*
X2219350Y-229311D01*
G37*
G36*
X2083206Y-276504D02*
G01*
X2130450Y-276504D01*
X2130450Y-229311D01*
X2122881Y-233121D01*
X2111603Y-240842D01*
X2101494Y-249986D01*
X2092706Y-260400D01*
X2085339Y-271932D01*
G37*
G36*
X1345438Y-250596D02*
G01*
X1359103Y-249732D01*
X1372514Y-247040D01*
X1385519Y-242620D01*
X1397762Y-236575D01*
X1409141Y-229006D01*
X1419453Y-219964D01*
X1428445Y-209651D01*
X1436065Y-198272D01*
X1442110Y-186029D01*
X1446530Y-173075D01*
X1449171Y-159613D01*
X1450086Y-145999D01*
X1449171Y-132334D01*
X1446530Y-118922D01*
X1442110Y-105918D01*
X1436065Y-93675D01*
X1428445Y-82296D01*
X1419453Y-71983D01*
X1409141Y-62991D01*
X1397762Y-55372D01*
X1385519Y-49326D01*
X1372514Y-44907D01*
X1359103Y-42265D01*
X1345438Y-41351D01*
X1331823Y-42265D01*
X1318361Y-44907D01*
X1305407Y-49326D01*
X1293164Y-55372D01*
X1281785Y-62991D01*
X1271473Y-71983D01*
X1262430Y-82296D01*
X1254861Y-93675D01*
X1248816Y-105918D01*
X1244396Y-118922D01*
X1241704Y-132334D01*
X1240840Y-145999D01*
X1241704Y-159613D01*
X1244396Y-173075D01*
X1248816Y-186029D01*
X1254861Y-198272D01*
X1262430Y-209651D01*
X1271473Y-219964D01*
X1281785Y-229006D01*
X1293164Y-236575D01*
X1305407Y-242620D01*
X1318361Y-247040D01*
X1331823Y-249732D01*
G37*
G36*
X1045718Y-239826D02*
G01*
X1045718Y-191719D01*
X997610Y-191719D01*
X1000861Y-198272D01*
X1008430Y-209651D01*
X1017473Y-219964D01*
X1027785Y-229006D01*
X1039164Y-236575D01*
G37*
G36*
X1137158Y-239826D02*
G01*
X1143762Y-236575D01*
X1155141Y-229006D01*
X1165453Y-219964D01*
X1174445Y-209651D01*
X1182065Y-198272D01*
X1185316Y-191719D01*
X1137158Y-191719D01*
G37*
G36*
X997610Y-100279D02*
G01*
X1045718Y-100279D01*
X1045718Y-52120D01*
X1039164Y-55372D01*
X1027785Y-62991D01*
X1017473Y-71983D01*
X1008430Y-82296D01*
X1000861Y-93675D01*
G37*
G36*
X1137158Y-100279D02*
G01*
X1185316Y-100279D01*
X1182065Y-93675D01*
X1174445Y-82296D01*
X1165453Y-71983D01*
X1155141Y-62991D01*
X1143762Y-55372D01*
X1137158Y-52120D01*
G37*

%LPD*%
G36*
X7885125Y-1660652D02*
G01*
X7881264Y-1659889D01*
X7877962Y-1657654D01*
X7875778Y-1654352D01*
X7874965Y-1650492D01*
X7874965Y-1054201D01*
X7875778Y-1050340D01*
X7877962Y-1047038D01*
X7971993Y-953008D01*
X7975295Y-950772D01*
X7979206Y-950010D01*
X10339832Y-950010D01*
X10343743Y-950772D01*
X10346994Y-953008D01*
X10349230Y-956259D01*
X10349992Y-960170D01*
X10349992Y-1364843D01*
X10349230Y-1368755D01*
X10346994Y-1372006D01*
X10343743Y-1374241D01*
X10339832Y-1375003D01*
X8176006Y-1375003D01*
X8174278Y-1375714D01*
X7892338Y-1657654D01*
X7889036Y-1659889D01*
G37*

%LPD*%
G36*
X9810140Y-2650032D02*
G01*
X9806228Y-2649220D01*
X9802977Y-2647035D01*
X9800742Y-2643733D01*
X9799980Y-2639872D01*
X9799980Y-1785162D01*
X9800742Y-1781251D01*
X9802977Y-1778000D01*
X9806228Y-1775764D01*
X9810140Y-1775002D01*
X10339832Y-1775002D01*
X10343743Y-1775764D01*
X10346994Y-1778000D01*
X10349230Y-1781251D01*
X10349992Y-1785162D01*
X10349992Y-2639872D01*
X10349230Y-2643733D01*
X10346994Y-2647035D01*
X10343743Y-2649220D01*
X10339832Y-2650032D01*
G37*

%LPD*%
G36*
X835101Y-3712311D02*
G01*
X831240Y-3711549D01*
X827938Y-3709314D01*
X825753Y-3706012D01*
X824941Y-3702151D01*
X824941Y-799490D01*
X825753Y-795578D01*
X827938Y-792327D01*
X831240Y-790092D01*
X835101Y-789330D01*
X839012Y-790092D01*
X842314Y-792327D01*
X921969Y-871982D01*
X924153Y-875284D01*
X924966Y-879144D01*
X924966Y-1123950D01*
X925931Y-1124966D01*
X3339642Y-1124966D01*
X3343554Y-1125728D01*
X3346856Y-1127912D01*
X3349040Y-1131214D01*
X3349802Y-1135126D01*
X3349802Y-1327251D01*
X3349040Y-1331163D01*
X3346856Y-1334465D01*
X3343554Y-1336649D01*
X3339642Y-1337411D01*
X925931Y-1337411D01*
X924966Y-1338427D01*
X924966Y-3702151D01*
X924153Y-3706012D01*
X921969Y-3709314D01*
X918667Y-3711549D01*
X914806Y-3712311D01*
G37*

%LPD*%
G36*
X9385147Y-4024985D02*
G01*
X9381236Y-4024223D01*
X9377984Y-4021988D01*
X9375749Y-4018737D01*
X9374987Y-4014825D01*
X9374987Y-3085185D01*
X9375749Y-3081274D01*
X9377984Y-3077972D01*
X9381236Y-3075787D01*
X9385147Y-3075025D01*
X10339832Y-3075025D01*
X10343743Y-3075787D01*
X10346994Y-3077972D01*
X10349230Y-3081274D01*
X10349992Y-3085185D01*
X10349992Y-3464864D01*
X10349230Y-3468725D01*
X10346994Y-3472027D01*
X10343743Y-3474212D01*
X10339832Y-3475024D01*
X9725964Y-3475024D01*
X9724999Y-3475990D01*
X9724999Y-4014825D01*
X9724186Y-4018737D01*
X9722002Y-4021988D01*
X9718700Y-4024223D01*
X9714839Y-4024985D01*
G37*

%LPD*%
D10*
X999997Y-3662502D02*
G01*
X999997Y-1912518D01*
X1075004Y-1837512D01*
D11*
X837491Y-145999D02*
G01*
X829002Y-145999D01*
X700001Y-275000D01*
X700001Y-675002D01*
X899952Y-874953D01*
D10*
X1637512Y-2487500D02*
G01*
X4049646Y-2487500D01*
X4137279Y-2399868D01*
X4399762Y-1112443D02*
G01*
X4399762Y-1362737D01*
X4012443Y-1750057D01*
X4012443Y-2100069D01*
X3687526Y-2424986D01*
X1099995Y-2424986D01*
D12*
X10074909Y-3258565D02*
G01*
X9421113Y-3258565D01*
X8712454Y-2549905D01*
X8253984Y-2549905D01*
D10*
X2024887Y-3662426D02*
G01*
X2024887Y-3062478D01*
X2287523Y-2800095D01*
X4374895Y-2800095D01*
X4774945Y-2400045D01*
X4774945Y-1750060D01*
X5050027Y-1474978D01*
X2150110Y-3662426D02*
G01*
X2150110Y-3024886D01*
X2312415Y-2862579D01*
X4437379Y-2862579D01*
X4899913Y-2400045D01*
D13*
X7975091Y-2549903D02*
G01*
X7975091Y-1178890D01*
X10075011Y-1178890D01*
D10*
X4050035Y-1474980D02*
G01*
X4035041Y-1474980D01*
X3750058Y-1759965D01*
X3750058Y-2074923D01*
X3462479Y-2362504D01*
X1375003Y-2362504D01*
X1887499Y-2612491D02*
G01*
X4187596Y-2612491D01*
X4400041Y-2400045D01*
X2150008Y-2737510D02*
G01*
X4312508Y-2737510D01*
X4649972Y-2400045D01*
X2350007Y-2950006D02*
G01*
X2350007Y-4025018D01*
X2499989Y-4175000D01*
X2137410Y-4274820D02*
G01*
X2199894Y-4337304D01*
X7100315Y-4337304D01*
X7100315Y-4375150D01*
X1762505Y-2549905D02*
G01*
X4112768Y-2549905D01*
X4262374Y-2400300D01*
X4262374Y-1762505D01*
X4549902Y-1474978D01*
X2012442Y-2674873D02*
G01*
X4249927Y-2674873D01*
X4524756Y-2400300D01*
X4524756Y-1750313D01*
X4649724Y-1625345D01*
X4649724Y-1112520D01*
X1074928Y-2299970D02*
G01*
X3249929Y-2299970D01*
X3500120Y-2050034D01*
X3500120Y-1762252D01*
X3749802Y-1512315D01*
X3749802Y-1112520D01*
X1512417Y-3999788D02*
G01*
X1975129Y-4462500D01*
X4162498Y-4462500D01*
X4324982Y-4624981D01*
X1637537Y-3999737D02*
G01*
X2037334Y-4399787D01*
X5699759Y-4399787D01*
X5925058Y-4625086D01*
D14*
G01*
X4897500Y-1872513D03*
G01*
X4643500Y-1872513D03*
G01*
X4389500Y-1872513D03*
G01*
X4135500Y-1872513D03*
G01*
X3881500Y-1872513D03*
G01*
X3627500Y-1872513D03*
G01*
X3627500Y-602513D03*
G01*
X3881500Y-602513D03*
G01*
X4135500Y-602513D03*
G01*
X4389500Y-602513D03*
G01*
X4643500Y-602513D03*
G01*
X4897500Y-602513D03*
D15*
G01*
X2749981Y-4150004D03*
G01*
X2749981Y-4650003D03*
G01*
X2249982Y-4650003D03*
G01*
X2249982Y-4150004D03*
G01*
X4349978Y-4150004D03*
G01*
X4349978Y-4650003D03*
G01*
X3849979Y-4650003D03*
G01*
X3849979Y-4150004D03*
G01*
X5950178Y-4150156D03*
G01*
X5950178Y-4650155D03*
G01*
X5450179Y-4650155D03*
G01*
X5450179Y-4150156D03*
D16*
G01*
X10086975Y-1166418D03*
G01*
X10086975Y-1958441D03*
D17*
G01*
X8501430Y-3408730D03*
G01*
X9022664Y-4840833D03*
D18*
G01*
X1345463Y-145973D03*
G01*
X1345463Y-399973D03*
G01*
X1091463Y-145973D03*
G01*
X1091463Y-399973D03*
G01*
X837463Y-145973D03*
D19*
G01*
X837463Y-399973D03*
D20*
G01*
X7106513Y-4383506D03*
D21*
G01*
X7106513Y-4637506D03*
G01*
X7106513Y-4891506D03*
G01*
X7868513Y-4383506D03*
G01*
X7868513Y-4637506D03*
G01*
X7868513Y-4891506D03*
D22*
G01*
X7975091Y-2549905D03*
G01*
X7721091Y-2549905D03*
G01*
X8229091Y-2549905D03*
D17*
G01*
X8347760Y-4887848D03*
G01*
X8127238Y-3637153D03*
G01*
X7814995Y-3112490D03*
G01*
X9084995Y-3112490D03*
D21*
G01*
X250012Y-4612411D03*
G01*
X250012Y-4862601D03*
D16*
G01*
X375005Y-1397990D03*
G01*
X375005Y-1002004D03*
D21*
G01*
X9549891Y-4850003D03*
G01*
X9549891Y-3850004D03*
D23*
G01*
X2174875Y-828979D03*
G01*
X2174875Y-320979D03*
D16*
G01*
X10086975Y-2466339D03*
G01*
X10086975Y-3258362D03*
D24*
G01*
X1075004Y-1837512D03*
G01*
X999997Y-3662502D03*
D25*
G01*
X3749802Y-1112443D03*
G01*
X1075004Y-2299995D03*
G01*
X4050004Y-1475003D03*
G01*
X1375003Y-2362504D03*
G01*
X4550003Y-1475003D03*
G01*
X1762505Y-2550007D03*
G01*
X4399762Y-1112443D03*
G01*
X1099997Y-2424988D03*
G01*
X4400041Y-2400045D03*
G01*
X4649749Y-1112443D03*
G01*
X4649977Y-2400045D03*
G01*
X5050002Y-1475003D03*
G01*
X4899913Y-2400045D03*
G01*
X875004Y-3662502D03*
G01*
X3187344Y-1287424D03*
G01*
X3299815Y-1287424D03*
G01*
X3074847Y-1287424D03*
G01*
X3299815Y-1174927D03*
G01*
X3074847Y-1174927D03*
G01*
X3187344Y-1174927D03*
G01*
X875004Y-3574999D03*
G01*
X875004Y-3487496D03*
G01*
X1887499Y-2612491D03*
D24*
G01*
X2012492Y-2675001D03*
G01*
X2150008Y-2737510D03*
G01*
X4137279Y-2399868D03*
G01*
X1637512Y-2487498D03*
G01*
X2350007Y-2950006D03*
G01*
X2499995Y-4174997D03*
G01*
X2024989Y-3662502D03*
G01*
X2150008Y-3662502D03*
G01*
X2137384Y-4274769D03*
G01*
X1637411Y-3999788D03*
G01*
X1512417Y-3999788D03*
M02*
