G04 Layer: BottomSolderMaskLayer*
G04 EasyEDA v6.5.15, 2022-09-18 23:53:43*
G04 d3691748ad514627a52f7aef6c0eae22,d4513426d2154aa39f2c2607306ca696,10*
G04 Gerber Generator version 0.2*
G04 Scale: 100 percent, Rotated: No, Reflected: No *
G04 Dimensions in millimeters *
G04 leading zeros omitted , absolute positions ,4 integer and 5 decimal *
%FSLAX45Y45*%
%MOMM*%

%AMMACRO1*1,1,$1,$2,$3*1,1,$1,$4,$5*1,1,$1,0-$2,0-$3*1,1,$1,0-$4,0-$5*20,1,$1,$2,$3,$4,$5,0*20,1,$1,$4,$5,0-$2,0-$3,0*20,1,$1,0-$2,0-$3,0-$4,0-$5,0*20,1,$1,0-$4,0-$5,$2,$3,0*4,1,4,$2,$3,$4,$5,0-$2,0-$3,0-$4,0-$5,$2,$3,0*%
%ADD10C,1.8032*%
%ADD11C,2.4032*%
%ADD12C,3.0032*%
%ADD13C,2.0828*%
%ADD14C,1.7780*%
%ADD15MACRO1,0.2032X-0.7874X0.7874X0.7874X0.7874*%
%ADD16MACRO1,0.2032X-0.9X0.9X0.9X0.9*%
%ADD17C,2.0032*%
%ADD18O,1.9999959999999999X2.4999949999999997*%
%ADD19C,1.7272*%

%LPD*%
D10*
G01*
X4897500Y-1872513D03*
G01*
X4643500Y-1872513D03*
G01*
X4389500Y-1872513D03*
G01*
X4135500Y-1872513D03*
G01*
X3881500Y-1872513D03*
G01*
X3627500Y-1872513D03*
G01*
X3627500Y-602513D03*
G01*
X3881500Y-602513D03*
G01*
X4135500Y-602513D03*
G01*
X4389500Y-602513D03*
G01*
X4643500Y-602513D03*
G01*
X4897500Y-602513D03*
D11*
G01*
X2749981Y-4150004D03*
G01*
X2749981Y-4650003D03*
G01*
X2249982Y-4650003D03*
G01*
X2249982Y-4150004D03*
G01*
X4349978Y-4150004D03*
G01*
X4349978Y-4650003D03*
G01*
X3849979Y-4650003D03*
G01*
X3849979Y-4150004D03*
G01*
X5950178Y-4150156D03*
G01*
X5950178Y-4650155D03*
G01*
X5450179Y-4650155D03*
G01*
X5450179Y-4150156D03*
D12*
G01*
X10086975Y-1166418D03*
G01*
X10086975Y-1958441D03*
D13*
G01*
X8501430Y-3408730D03*
G01*
X9022664Y-4840833D03*
D14*
G01*
X1345463Y-145973D03*
G01*
X1345463Y-399973D03*
G01*
X1091463Y-145973D03*
G01*
X1091463Y-399973D03*
G01*
X837463Y-145973D03*
D15*
G01*
X837455Y-399978D03*
D16*
G01*
X7106500Y-4383498D03*
D17*
G01*
X7106513Y-4637506D03*
G01*
X7106513Y-4891506D03*
G01*
X7868513Y-4383506D03*
G01*
X7868513Y-4637506D03*
G01*
X7868513Y-4891506D03*
D18*
G01*
X7975091Y-2549905D03*
G01*
X7721091Y-2549905D03*
G01*
X8229091Y-2549905D03*
D13*
G01*
X8347760Y-4887848D03*
G01*
X8127238Y-3637153D03*
G01*
X7814995Y-3112490D03*
G01*
X9084995Y-3112490D03*
D17*
G01*
X250012Y-4612411D03*
G01*
X250012Y-4862601D03*
D12*
G01*
X375005Y-1397990D03*
G01*
X375005Y-1002004D03*
D17*
G01*
X9549891Y-4850003D03*
G01*
X9549891Y-3850004D03*
D19*
G01*
X2174875Y-828979D03*
G01*
X2174875Y-320979D03*
D12*
G01*
X10086975Y-2466339D03*
G01*
X10086975Y-3258362D03*
M02*
