G04 Layer: TopLayer*
G04 EasyEDA v6.5.15, 2022-09-18 23:53:43*
G04 d3691748ad514627a52f7aef6c0eae22,d4513426d2154aa39f2c2607306ca696,10*
G04 Gerber Generator version 0.2*
G04 Scale: 100 percent, Rotated: No, Reflected: No *
G04 Dimensions in millimeters *
G04 leading zeros omitted , absolute positions ,4 integer and 5 decimal *
%FSLAX45Y45*%
%MOMM*%

%AMMACRO1*21,1,$1,$2,0,0,$3*%
%ADD10C,0.5080*%
%ADD11C,0.4060*%
%ADD12C,0.2540*%
%ADD13C,0.9000*%
%ADD14C,1.2000*%
%ADD15C,2.5400*%
%ADD16C,1.5000*%
%ADD17C,1.8800*%
%ADD18C,2.0320*%
%ADD19C,0.3556*%
%ADD20R,0.5000X0.8000*%
%ADD21R,1.1000X1.0000*%
%ADD22R,0.6500X1.5500*%
%ADD23R,1.0000X1.5500*%
%ADD24R,1.2000X1.4000*%
%ADD25R,0.9000X2.0000*%
%ADD26R,2.0000X0.9000*%
%ADD27MACRO1,2X0.9X0.0000*%
%ADD28MACRO1,2X0.9X90.0000*%
%ADD29R,5.0000X5.0000*%
%ADD30R,1.0000X1.1000*%
%ADD31R,1.5000X0.9000*%
%ADD32R,3.5000X2.2000*%
%ADD33R,1.1000X2.2000*%
%ADD34R,1.2500X0.7000*%
%ADD35R,2.0000X1.8000*%
%ADD36C,1.6000*%
%ADD37C,2.2000*%
%ADD38C,2.8000*%
%ADD39C,1.8796*%
%ADD40C,1.5748*%
%ADD41R,1.5748X1.5748*%
%ADD42R,1.8000X1.8000*%
%ADD43C,1.8000*%
%ADD44O,1.9999959999999999X2.4999949999999997*%
%ADD45C,1.5240*%
%ADD46C,0.6200*%
%ADD47C,0.6198*%
%ADD48C,0.0157*%

%LPD*%
G36*
X2685034Y-1299921D02*
G01*
X2681122Y-1299159D01*
X2677820Y-1296974D01*
X2675636Y-1293672D01*
X2674874Y-1289761D01*
X2674874Y-975969D01*
X2673858Y-974953D01*
X2155647Y-974953D01*
X2151735Y-974140D01*
X2148433Y-971905D01*
X2146198Y-968552D01*
X2145487Y-964590D01*
X2150059Y-723747D01*
X2150872Y-719937D01*
X2153107Y-716686D01*
X2156358Y-714552D01*
X2160219Y-713790D01*
X2961894Y-713790D01*
X2971241Y-712978D01*
X2979877Y-710641D01*
X2987954Y-706882D01*
X2996285Y-700938D01*
X3000349Y-699211D01*
X3004769Y-699414D01*
X3008680Y-701446D01*
X3011373Y-704900D01*
X3012338Y-709218D01*
X3012338Y-1064260D01*
X3011373Y-1068578D01*
X3008680Y-1072083D01*
X3004718Y-1074064D01*
X2994761Y-1076655D01*
X2986684Y-1080414D01*
X2979369Y-1085545D01*
X2973070Y-1091895D01*
X2967939Y-1099210D01*
X2964180Y-1107287D01*
X2961843Y-1115923D01*
X2961030Y-1125270D01*
X2961030Y-1289761D01*
X2960268Y-1293672D01*
X2958033Y-1296974D01*
X2954731Y-1299159D01*
X2950870Y-1299921D01*
G37*

%LPD*%
G36*
X3377336Y-1612493D02*
G01*
X3159861Y-1612442D01*
X3156000Y-1611630D01*
X3152749Y-1609496D01*
X3150514Y-1606245D01*
X3149701Y-1602384D01*
X3137458Y-522732D01*
X3138170Y-518820D01*
X3140405Y-515467D01*
X3143707Y-513232D01*
X3147618Y-512470D01*
X3227374Y-512470D01*
X3231235Y-513232D01*
X3234486Y-515366D01*
X3236722Y-518617D01*
X3237534Y-522427D01*
X3249828Y-1123950D01*
X3250793Y-1124966D01*
X3377184Y-1124966D01*
X3381044Y-1125728D01*
X3384346Y-1127912D01*
X3386531Y-1131214D01*
X3387344Y-1135075D01*
X3387496Y-1602333D01*
X3386734Y-1606194D01*
X3384499Y-1609496D01*
X3381197Y-1611731D01*
G37*

%LPD*%
G36*
X7885125Y-1660652D02*
G01*
X7881264Y-1659839D01*
X7877962Y-1657654D01*
X7875778Y-1654352D01*
X7874965Y-1650492D01*
X7874965Y-1054201D01*
X7875778Y-1050340D01*
X7877962Y-1047038D01*
X7971993Y-953008D01*
X7975295Y-950772D01*
X7979206Y-950010D01*
X10339832Y-950010D01*
X10343743Y-950772D01*
X10346994Y-953008D01*
X10349230Y-956259D01*
X10349992Y-960170D01*
X10349992Y-1364843D01*
X10349230Y-1368755D01*
X10346994Y-1372006D01*
X10343743Y-1374241D01*
X10339832Y-1375003D01*
X8176006Y-1375003D01*
X8174278Y-1375714D01*
X7892338Y-1657654D01*
X7889036Y-1659839D01*
G37*

%LPD*%
G36*
X9810140Y-2650032D02*
G01*
X9806228Y-2649220D01*
X9802977Y-2647035D01*
X9800742Y-2643733D01*
X9799980Y-2639872D01*
X9799980Y-1785162D01*
X9800742Y-1781251D01*
X9802977Y-1778000D01*
X9806228Y-1775764D01*
X9810140Y-1775002D01*
X10339832Y-1775002D01*
X10343743Y-1775764D01*
X10346994Y-1778000D01*
X10349230Y-1781251D01*
X10349992Y-1785162D01*
X10349992Y-2639872D01*
X10349230Y-2643733D01*
X10346994Y-2647035D01*
X10343743Y-2649220D01*
X10339832Y-2650032D01*
G37*

%LPD*%
G36*
X9385147Y-4024985D02*
G01*
X9381236Y-4024223D01*
X9377984Y-4021988D01*
X9375749Y-4018737D01*
X9374987Y-4014825D01*
X9374987Y-3085185D01*
X9375749Y-3081274D01*
X9377984Y-3077972D01*
X9381236Y-3075787D01*
X9385147Y-3075025D01*
X10339832Y-3075025D01*
X10343743Y-3075787D01*
X10346994Y-3077972D01*
X10349230Y-3081274D01*
X10349992Y-3085185D01*
X10349992Y-3464864D01*
X10349230Y-3468725D01*
X10346994Y-3472027D01*
X10343743Y-3474212D01*
X10339832Y-3475024D01*
X9725964Y-3475024D01*
X9724999Y-3475990D01*
X9724999Y-4014825D01*
X9724186Y-4018737D01*
X9722002Y-4021988D01*
X9718700Y-4024223D01*
X9714839Y-4024985D01*
G37*

%LPD*%
G36*
X10668Y-5099710D02*
G01*
X6756Y-5098948D01*
X3505Y-5096764D01*
X1270Y-5093462D01*
X508Y-5089550D01*
X508Y-4272686D01*
X1270Y-4268774D01*
X3505Y-4265472D01*
X6756Y-4263288D01*
X10668Y-4262526D01*
X636473Y-4262526D01*
X637489Y-4261510D01*
X648766Y-2248052D01*
X649732Y-2243734D01*
X652475Y-2240229D01*
X656488Y-2238248D01*
X660908Y-2238146D01*
X664972Y-2239975D01*
X667867Y-2243328D01*
X670610Y-2248458D01*
X675894Y-2254859D01*
X682345Y-2260142D01*
X689660Y-2264054D01*
X697636Y-2266492D01*
X706424Y-2267356D01*
X722071Y-2267356D01*
X722071Y-2181199D01*
X659333Y-2181199D01*
X655421Y-2180437D01*
X652119Y-2178202D01*
X649935Y-2174900D01*
X649173Y-2170988D01*
X649681Y-2078583D01*
X650494Y-2074722D01*
X652678Y-2071471D01*
X655980Y-2069287D01*
X659841Y-2068525D01*
X722071Y-2068525D01*
X722071Y-2035149D01*
X722833Y-2031288D01*
X725017Y-2027986D01*
X728319Y-2025751D01*
X732231Y-2024989D01*
X769620Y-2024989D01*
X773480Y-2025751D01*
X776782Y-2027986D01*
X778967Y-2031288D01*
X779780Y-2035149D01*
X779780Y-2068525D01*
X784148Y-2069287D01*
X787450Y-2071471D01*
X789635Y-2074773D01*
X790397Y-2078685D01*
X790397Y-2171039D01*
X789635Y-2174951D01*
X787450Y-2178202D01*
X784148Y-2180437D01*
X779780Y-2181199D01*
X779780Y-2267356D01*
X795426Y-2267356D01*
X804214Y-2266492D01*
X811479Y-2264308D01*
X814425Y-2263851D01*
X817372Y-2264308D01*
X825601Y-2266797D01*
X828294Y-2268067D01*
X830478Y-2270048D01*
X836930Y-2277465D01*
X1023315Y-2463850D01*
X1027074Y-2467254D01*
X1030884Y-2470200D01*
X1034948Y-2472791D01*
X1039215Y-2475026D01*
X1043635Y-2476855D01*
X1047902Y-2478176D01*
X1051052Y-2479802D01*
X1060043Y-2486660D01*
X1069949Y-2492044D01*
X1080516Y-2495804D01*
X1091590Y-2497988D01*
X1102817Y-2498394D01*
X1113993Y-2497124D01*
X1124813Y-2494127D01*
X1135075Y-2489504D01*
X1144524Y-2483408D01*
X1152906Y-2475941D01*
X1160068Y-2467254D01*
X1165860Y-2457602D01*
X1170025Y-2447137D01*
X1172616Y-2436215D01*
X1173480Y-2424988D01*
X1172616Y-2413762D01*
X1170025Y-2402840D01*
X1165860Y-2392375D01*
X1160068Y-2382723D01*
X1152906Y-2374036D01*
X1144524Y-2366568D01*
X1134872Y-2360320D01*
X1131874Y-2357323D01*
X1130350Y-2353360D01*
X1130604Y-2349093D01*
X1132586Y-2345334D01*
X1135075Y-2342286D01*
X1140866Y-2332583D01*
X1145032Y-2322169D01*
X1147622Y-2311196D01*
X1148486Y-2300020D01*
X1147622Y-2288794D01*
X1145540Y-2279853D01*
X1145336Y-2276195D01*
X1146454Y-2272741D01*
X1148689Y-2269896D01*
X1151839Y-2268016D01*
X1155395Y-2267356D01*
X1176426Y-2267356D01*
X1185214Y-2266492D01*
X1192479Y-2264308D01*
X1195425Y-2263851D01*
X1198372Y-2264308D01*
X1205636Y-2266492D01*
X1214424Y-2267356D01*
X1303426Y-2267356D01*
X1308658Y-2266848D01*
X1312824Y-2267305D01*
X1316482Y-2269439D01*
X1318920Y-2272842D01*
X1319784Y-2276957D01*
X1319784Y-2310434D01*
X1319326Y-2313533D01*
X1317955Y-2316327D01*
X1311859Y-2324963D01*
X1306880Y-2335022D01*
X1303477Y-2345740D01*
X1301750Y-2356866D01*
X1301750Y-2368143D01*
X1303477Y-2379268D01*
X1306880Y-2389987D01*
X1311859Y-2400046D01*
X1318310Y-2409240D01*
X1326134Y-2417368D01*
X1335074Y-2424176D01*
X1344930Y-2429560D01*
X1355547Y-2433320D01*
X1366570Y-2435504D01*
X1377797Y-2435910D01*
X1388973Y-2434640D01*
X1399844Y-2431643D01*
X1410106Y-2427020D01*
X1419555Y-2420924D01*
X1427937Y-2413457D01*
X1435100Y-2404770D01*
X1440840Y-2395118D01*
X1445056Y-2384653D01*
X1447596Y-2373731D01*
X1448460Y-2362504D01*
X1447596Y-2351278D01*
X1445056Y-2340356D01*
X1440840Y-2329891D01*
X1435100Y-2320239D01*
X1432509Y-2317140D01*
X1430832Y-2314092D01*
X1430223Y-2310688D01*
X1430223Y-2276602D01*
X1430883Y-2272995D01*
X1432763Y-2269845D01*
X1435658Y-2267559D01*
X1446479Y-2264308D01*
X1449425Y-2263851D01*
X1452372Y-2264308D01*
X1459636Y-2266492D01*
X1468424Y-2267356D01*
X1557426Y-2267356D01*
X1566214Y-2266492D01*
X1569212Y-2265578D01*
X1572920Y-2265172D01*
X1576578Y-2266188D01*
X1579626Y-2268423D01*
X1581607Y-2271623D01*
X1582318Y-2275281D01*
X1582318Y-2435453D01*
X1581810Y-2438501D01*
X1580438Y-2441295D01*
X1574342Y-2449931D01*
X1569364Y-2460040D01*
X1565960Y-2470759D01*
X1564233Y-2481884D01*
X1564233Y-2493111D01*
X1565960Y-2504236D01*
X1569364Y-2514955D01*
X1574342Y-2525064D01*
X1580845Y-2534259D01*
X1588617Y-2542336D01*
X1597558Y-2549194D01*
X1607464Y-2554528D01*
X1618030Y-2558338D01*
X1629105Y-2560472D01*
X1640332Y-2560929D01*
X1651507Y-2559608D01*
X1662328Y-2556662D01*
X1672589Y-2552039D01*
X1674063Y-2551125D01*
X1677822Y-2549652D01*
X1681835Y-2549702D01*
X1685493Y-2551379D01*
X1688236Y-2554325D01*
X1689658Y-2558084D01*
X1690979Y-2566771D01*
X1694383Y-2577490D01*
X1699361Y-2587548D01*
X1705813Y-2596743D01*
X1713636Y-2604871D01*
X1722577Y-2611678D01*
X1732432Y-2617063D01*
X1743049Y-2620822D01*
X1754073Y-2623007D01*
X1765300Y-2623413D01*
X1776475Y-2622143D01*
X1787347Y-2619146D01*
X1797608Y-2614523D01*
X1799082Y-2613609D01*
X1802790Y-2612136D01*
X1806803Y-2612237D01*
X1810512Y-2613863D01*
X1813255Y-2616809D01*
X1814626Y-2620568D01*
X1815947Y-2629255D01*
X1819351Y-2639974D01*
X1824329Y-2650032D01*
X1830832Y-2659227D01*
X1838604Y-2667355D01*
X1847545Y-2674162D01*
X1857451Y-2679547D01*
X1868017Y-2683306D01*
X1879092Y-2685491D01*
X1890318Y-2685897D01*
X1901494Y-2684627D01*
X1912315Y-2681630D01*
X1922576Y-2677007D01*
X1924050Y-2676093D01*
X1927809Y-2674620D01*
X1931822Y-2674721D01*
X1935480Y-2676347D01*
X1938223Y-2679293D01*
X1939594Y-2683052D01*
X1940966Y-2691739D01*
X1944319Y-2702458D01*
X1949348Y-2712567D01*
X1955800Y-2721762D01*
X1963623Y-2729839D01*
X1972564Y-2736697D01*
X1982419Y-2742031D01*
X1993036Y-2745841D01*
X2004060Y-2747975D01*
X2015286Y-2748432D01*
X2026462Y-2747111D01*
X2037334Y-2744165D01*
X2047595Y-2739542D01*
X2057044Y-2733446D01*
X2059838Y-2730957D01*
X2063140Y-2728976D01*
X2066950Y-2728366D01*
X2070760Y-2729280D01*
X2073910Y-2731516D01*
X2075992Y-2734716D01*
X2076754Y-2738526D01*
X2076754Y-2743149D01*
X2078482Y-2754274D01*
X2081834Y-2764993D01*
X2086864Y-2775051D01*
X2093315Y-2784246D01*
X2101138Y-2792374D01*
X2110079Y-2799181D01*
X2119934Y-2804566D01*
X2130552Y-2808376D01*
X2141575Y-2810510D01*
X2152802Y-2810916D01*
X2163978Y-2809646D01*
X2174849Y-2806649D01*
X2185111Y-2802077D01*
X2194560Y-2795930D01*
X2202942Y-2788462D01*
X2210104Y-2779776D01*
X2215845Y-2770124D01*
X2220061Y-2759659D01*
X2222601Y-2748737D01*
X2223465Y-2737510D01*
X2222601Y-2726283D01*
X2220061Y-2715361D01*
X2215845Y-2704896D01*
X2210104Y-2695244D01*
X2207514Y-2692095D01*
X2205837Y-2689098D01*
X2205228Y-2685643D01*
X2205228Y-2288997D01*
X2205990Y-2285136D01*
X2208123Y-2281885D01*
X2211324Y-2279650D01*
X2215134Y-2278837D01*
X2218944Y-2279446D01*
X2222296Y-2281529D01*
X2224582Y-2284679D01*
X2227072Y-2289962D01*
X2232558Y-2297836D01*
X2239365Y-2304643D01*
X2247239Y-2310130D01*
X2255977Y-2314194D01*
X2265222Y-2316683D01*
X2275281Y-2317597D01*
X2381199Y-2317597D01*
X2384958Y-2318308D01*
X2388158Y-2320340D01*
X2390394Y-2323388D01*
X2391359Y-2327097D01*
X2390902Y-2330856D01*
X2384653Y-2342083D01*
X2382266Y-2350058D01*
X2381402Y-2358847D01*
X2381402Y-2447848D01*
X2382266Y-2456637D01*
X2383231Y-2459736D01*
X2383637Y-2463495D01*
X2382621Y-2467152D01*
X2380386Y-2470150D01*
X2377186Y-2472131D01*
X2373477Y-2472842D01*
X2350465Y-2472842D01*
X2340406Y-2473756D01*
X2331161Y-2476246D01*
X2322423Y-2480310D01*
X2314549Y-2485796D01*
X2307742Y-2492603D01*
X2302256Y-2500477D01*
X2298192Y-2509215D01*
X2295702Y-2518460D01*
X2294788Y-2528519D01*
X2294788Y-2897936D01*
X2294331Y-2900984D01*
X2292959Y-2903778D01*
X2286863Y-2912465D01*
X2281834Y-2922524D01*
X2278481Y-2933242D01*
X2276754Y-2944368D01*
X2276754Y-2955645D01*
X2278481Y-2966770D01*
X2281834Y-2977489D01*
X2286863Y-2987548D01*
X2293315Y-2996742D01*
X2301138Y-3004870D01*
X2310079Y-3011678D01*
X2319934Y-3017062D01*
X2330551Y-3020872D01*
X2341575Y-3023006D01*
X2352802Y-3023412D01*
X2363978Y-3022142D01*
X2368550Y-3020872D01*
X2372258Y-3020568D01*
X2375814Y-3021634D01*
X2378811Y-3023870D01*
X2380742Y-3027019D01*
X2381402Y-3030677D01*
X2381402Y-3082848D01*
X2382266Y-3091637D01*
X2384501Y-3098901D01*
X2384907Y-3101848D01*
X2384501Y-3104794D01*
X2382266Y-3112058D01*
X2381402Y-3120847D01*
X2381402Y-3209848D01*
X2382266Y-3218637D01*
X2384501Y-3225901D01*
X2384907Y-3228848D01*
X2384501Y-3231794D01*
X2382266Y-3239058D01*
X2381402Y-3247847D01*
X2381402Y-3336848D01*
X2382266Y-3345637D01*
X2384501Y-3352901D01*
X2384907Y-3355848D01*
X2384501Y-3358794D01*
X2382266Y-3366058D01*
X2381402Y-3374847D01*
X2381402Y-3463848D01*
X2382266Y-3472637D01*
X2384501Y-3479901D01*
X2384907Y-3482848D01*
X2384501Y-3485794D01*
X2382266Y-3493058D01*
X2381402Y-3501847D01*
X2381402Y-3517493D01*
X2467559Y-3517493D01*
X2468321Y-3513124D01*
X2470556Y-3509822D01*
X2473858Y-3507638D01*
X2477719Y-3506825D01*
X2570124Y-3506825D01*
X2573985Y-3507638D01*
X2577287Y-3509822D01*
X2579522Y-3513124D01*
X2580284Y-3517493D01*
X2666441Y-3517493D01*
X2666441Y-3501847D01*
X2665577Y-3493058D01*
X2663342Y-3485794D01*
X2662936Y-3482848D01*
X2663494Y-3479393D01*
X2665577Y-3475634D01*
X2669032Y-3473094D01*
X2673248Y-3472179D01*
X2949854Y-3472179D01*
X2994202Y-3470960D01*
X3037992Y-3467862D01*
X3081629Y-3462883D01*
X3125012Y-3455974D01*
X3168040Y-3447237D01*
X3210610Y-3436620D01*
X3252724Y-3424123D01*
X3294278Y-3409848D01*
X3335121Y-3393795D01*
X3375253Y-3375964D01*
X3414572Y-3356356D01*
X3452977Y-3335121D01*
X3490468Y-3312210D01*
X3526891Y-3287725D01*
X3562248Y-3261664D01*
X3596386Y-3234080D01*
X3629355Y-3205022D01*
X3661003Y-3174593D01*
X3691280Y-3142792D01*
X3720185Y-3109722D01*
X3747617Y-3075432D01*
X3773525Y-3039973D01*
X3797858Y-3003448D01*
X3820566Y-2965856D01*
X3841648Y-2927350D01*
X3861054Y-2887980D01*
X3878681Y-2847746D01*
X3894582Y-2806801D01*
X3908704Y-2765247D01*
X3920998Y-2723083D01*
X3931412Y-2680411D01*
X3939997Y-2637332D01*
X3946651Y-2593949D01*
X3951478Y-2550312D01*
X3954373Y-2506472D01*
X3955389Y-2462784D01*
X3954983Y-2455926D01*
X3954983Y-2394000D01*
X3955897Y-2389835D01*
X3958437Y-2386380D01*
X3962196Y-2384298D01*
X3971036Y-2381605D01*
X3978401Y-2377694D01*
X3984802Y-2372410D01*
X3990086Y-2365959D01*
X3993997Y-2358644D01*
X3996436Y-2350668D01*
X3997299Y-2341880D01*
X3997299Y-2242870D01*
X3996436Y-2234082D01*
X3993997Y-2226106D01*
X3989628Y-2217928D01*
X3988714Y-2215591D01*
X3988409Y-2211628D01*
X3988714Y-2209190D01*
X3989628Y-2206853D01*
X3993997Y-2198624D01*
X3996436Y-2190648D01*
X3997299Y-2181910D01*
X3997299Y-2082901D01*
X3996436Y-2074113D01*
X3993997Y-2066137D01*
X3990086Y-2058822D01*
X3984802Y-2052370D01*
X3978401Y-2047087D01*
X3971036Y-2043175D01*
X3963060Y-2040737D01*
X3954272Y-2039874D01*
X3949293Y-2039874D01*
X3945382Y-2039112D01*
X3942079Y-2036927D01*
X3939895Y-2033625D01*
X3939133Y-2029714D01*
X3939133Y-1986280D01*
X3939743Y-1982774D01*
X3941521Y-1979726D01*
X3944213Y-1977440D01*
X3949141Y-1974596D01*
X3961180Y-1965502D01*
X3972001Y-1955038D01*
X3981450Y-1943252D01*
X3989425Y-1930450D01*
X3995724Y-1916734D01*
X3998772Y-1907133D01*
X4000957Y-1903374D01*
X4004513Y-1900885D01*
X4008780Y-1900072D01*
X4012996Y-1901139D01*
X4016349Y-1903882D01*
X4018279Y-1907743D01*
X4018787Y-1909622D01*
X4024223Y-1923694D01*
X4031335Y-1937004D01*
X4040073Y-1949297D01*
X4050233Y-1960422D01*
X4061663Y-1970227D01*
X4074261Y-1978558D01*
X4077106Y-1979980D01*
X4080052Y-1982216D01*
X4082034Y-1985416D01*
X4082694Y-1989074D01*
X4082694Y-2030679D01*
X4081779Y-2034895D01*
X4079189Y-2038350D01*
X4075429Y-2040432D01*
X4065981Y-2043175D01*
X4058716Y-2047087D01*
X4052265Y-2052370D01*
X4046982Y-2058822D01*
X4043070Y-2066137D01*
X4040632Y-2074113D01*
X4039768Y-2082901D01*
X4039768Y-2181910D01*
X4040632Y-2190648D01*
X4043070Y-2198624D01*
X4047439Y-2206853D01*
X4048353Y-2209190D01*
X4048658Y-2213102D01*
X4048353Y-2215591D01*
X4047439Y-2217928D01*
X4043070Y-2226106D01*
X4040632Y-2234082D01*
X4039768Y-2242870D01*
X4039768Y-2341880D01*
X4040632Y-2350668D01*
X4043070Y-2358644D01*
X4046982Y-2365959D01*
X4052265Y-2372410D01*
X4062780Y-2380843D01*
X4064660Y-2384552D01*
X4064863Y-2388666D01*
X4064000Y-2394254D01*
X4064000Y-2405481D01*
X4065727Y-2416606D01*
X4069130Y-2427325D01*
X4074109Y-2437434D01*
X4080611Y-2446629D01*
X4088384Y-2454706D01*
X4097324Y-2461564D01*
X4107230Y-2466898D01*
X4117797Y-2470708D01*
X4128871Y-2472842D01*
X4140098Y-2473299D01*
X4151274Y-2471978D01*
X4162094Y-2469032D01*
X4172356Y-2464409D01*
X4181805Y-2458313D01*
X4190237Y-2450795D01*
X4197400Y-2442159D01*
X4203141Y-2432456D01*
X4207357Y-2422042D01*
X4209897Y-2411069D01*
X4210761Y-2399893D01*
X4209846Y-2387854D01*
X4210253Y-2384145D01*
X4211980Y-2380843D01*
X4222292Y-2372410D01*
X4227576Y-2365959D01*
X4231487Y-2358644D01*
X4233926Y-2350668D01*
X4234789Y-2341880D01*
X4234789Y-2242870D01*
X4233926Y-2234082D01*
X4231487Y-2226106D01*
X4227118Y-2217928D01*
X4226204Y-2215591D01*
X4225899Y-2211628D01*
X4226204Y-2209190D01*
X4227118Y-2206853D01*
X4231487Y-2198624D01*
X4233926Y-2190648D01*
X4234789Y-2181910D01*
X4234789Y-2082901D01*
X4233926Y-2074113D01*
X4231487Y-2066137D01*
X4227576Y-2058822D01*
X4222292Y-2052370D01*
X4215892Y-2047087D01*
X4208526Y-2043175D01*
X4200347Y-2040686D01*
X4196588Y-2038604D01*
X4194048Y-2035149D01*
X4193133Y-2030933D01*
X4193133Y-1986280D01*
X4193743Y-1982774D01*
X4195521Y-1979726D01*
X4198213Y-1977440D01*
X4203141Y-1974596D01*
X4215180Y-1965502D01*
X4226001Y-1955038D01*
X4235450Y-1943252D01*
X4243425Y-1930450D01*
X4249724Y-1916734D01*
X4252772Y-1907133D01*
X4254957Y-1903374D01*
X4258513Y-1900885D01*
X4262780Y-1900072D01*
X4266996Y-1901139D01*
X4270349Y-1903882D01*
X4272280Y-1907743D01*
X4272788Y-1909622D01*
X4278223Y-1923694D01*
X4285335Y-1937004D01*
X4294073Y-1949297D01*
X4304233Y-1960422D01*
X4315663Y-1970227D01*
X4328261Y-1978558D01*
X4331106Y-1979980D01*
X4334052Y-1982216D01*
X4336034Y-1985416D01*
X4336694Y-1989074D01*
X4336694Y-2030272D01*
X4336034Y-2033930D01*
X4334103Y-2037080D01*
X4331106Y-2039366D01*
X4327550Y-2040382D01*
X4323994Y-2040737D01*
X4316018Y-2043175D01*
X4308703Y-2047087D01*
X4302252Y-2052370D01*
X4296968Y-2058822D01*
X4293057Y-2066137D01*
X4290618Y-2074113D01*
X4289755Y-2082901D01*
X4289755Y-2181910D01*
X4290618Y-2190648D01*
X4293057Y-2198624D01*
X4297426Y-2206853D01*
X4298340Y-2209190D01*
X4298645Y-2213102D01*
X4298340Y-2215591D01*
X4297426Y-2217928D01*
X4293057Y-2226106D01*
X4290618Y-2234082D01*
X4289755Y-2242870D01*
X4289755Y-2341880D01*
X4290618Y-2350668D01*
X4293057Y-2358644D01*
X4296968Y-2365959D01*
X4302252Y-2372410D01*
X4308703Y-2377694D01*
X4316018Y-2381605D01*
X4319778Y-2382723D01*
X4322978Y-2384399D01*
X4325416Y-2387041D01*
X4326788Y-2390394D01*
X4326788Y-2405684D01*
X4328515Y-2416810D01*
X4331919Y-2427528D01*
X4336897Y-2437587D01*
X4343349Y-2446782D01*
X4351172Y-2454910D01*
X4360113Y-2461717D01*
X4369968Y-2467102D01*
X4380585Y-2470861D01*
X4391609Y-2473045D01*
X4402836Y-2473452D01*
X4414012Y-2472182D01*
X4424883Y-2469184D01*
X4435144Y-2464562D01*
X4444593Y-2458466D01*
X4452975Y-2450998D01*
X4460138Y-2442311D01*
X4465878Y-2432659D01*
X4470095Y-2422194D01*
X4472635Y-2411272D01*
X4473498Y-2400046D01*
X4472635Y-2388819D01*
X4470704Y-2380589D01*
X4470501Y-2377490D01*
X4471162Y-2374493D01*
X4472736Y-2371852D01*
X4477562Y-2365959D01*
X4481474Y-2358644D01*
X4483912Y-2350668D01*
X4484776Y-2341880D01*
X4484776Y-2242870D01*
X4483912Y-2234082D01*
X4481474Y-2226106D01*
X4477105Y-2217928D01*
X4476191Y-2215591D01*
X4475886Y-2211628D01*
X4476191Y-2209190D01*
X4477105Y-2206853D01*
X4481474Y-2198624D01*
X4483912Y-2190648D01*
X4484776Y-2181910D01*
X4484776Y-2082901D01*
X4483912Y-2074113D01*
X4481474Y-2066137D01*
X4477562Y-2058822D01*
X4472279Y-2052370D01*
X4465878Y-2047087D01*
X4458512Y-2043175D01*
X4454347Y-2041906D01*
X4450588Y-2039823D01*
X4448048Y-2036368D01*
X4447133Y-2032152D01*
X4447133Y-1986280D01*
X4447743Y-1982774D01*
X4449521Y-1979726D01*
X4452213Y-1977440D01*
X4457141Y-1974596D01*
X4469180Y-1965502D01*
X4480001Y-1955038D01*
X4489450Y-1943252D01*
X4497425Y-1930450D01*
X4503724Y-1916734D01*
X4506772Y-1907133D01*
X4508957Y-1903374D01*
X4512513Y-1900885D01*
X4516780Y-1900072D01*
X4520996Y-1901139D01*
X4524349Y-1903882D01*
X4526280Y-1907743D01*
X4526788Y-1909622D01*
X4532223Y-1923694D01*
X4539335Y-1937004D01*
X4548073Y-1949297D01*
X4558233Y-1960422D01*
X4569663Y-1970227D01*
X4582261Y-1978558D01*
X4585106Y-1979980D01*
X4588052Y-1982216D01*
X4590034Y-1985416D01*
X4590694Y-1989074D01*
X4590694Y-2031898D01*
X4589830Y-2036114D01*
X4587240Y-2039569D01*
X4583480Y-2041652D01*
X4578502Y-2043175D01*
X4571187Y-2047087D01*
X4564735Y-2052370D01*
X4559452Y-2058822D01*
X4555540Y-2066137D01*
X4553102Y-2074113D01*
X4552238Y-2082901D01*
X4552238Y-2181910D01*
X4553102Y-2190648D01*
X4555540Y-2198624D01*
X4559909Y-2206853D01*
X4560824Y-2209190D01*
X4561128Y-2213102D01*
X4560824Y-2215591D01*
X4559909Y-2217928D01*
X4555540Y-2226106D01*
X4553102Y-2234082D01*
X4552238Y-2242870D01*
X4552238Y-2341880D01*
X4553102Y-2350668D01*
X4555540Y-2358644D01*
X4559452Y-2365959D01*
X4564735Y-2372410D01*
X4571187Y-2377694D01*
X4575505Y-2380945D01*
X4577384Y-2384653D01*
X4577588Y-2388819D01*
X4576724Y-2394407D01*
X4576724Y-2405684D01*
X4578451Y-2416810D01*
X4581855Y-2427528D01*
X4586833Y-2437587D01*
X4593285Y-2446782D01*
X4601108Y-2454910D01*
X4610049Y-2461717D01*
X4619904Y-2467102D01*
X4630521Y-2470861D01*
X4641545Y-2473045D01*
X4652772Y-2473452D01*
X4663948Y-2472182D01*
X4674819Y-2469184D01*
X4685080Y-2464562D01*
X4694529Y-2458466D01*
X4702911Y-2450998D01*
X4710074Y-2442311D01*
X4715814Y-2432659D01*
X4720031Y-2422194D01*
X4722571Y-2411272D01*
X4723434Y-2400046D01*
X4722520Y-2388057D01*
X4722774Y-2384806D01*
X4724044Y-2381859D01*
X4726228Y-2379421D01*
X4734763Y-2372410D01*
X4740046Y-2365959D01*
X4743958Y-2358644D01*
X4746396Y-2350668D01*
X4747260Y-2341880D01*
X4747260Y-2242870D01*
X4746396Y-2234082D01*
X4743958Y-2226106D01*
X4739589Y-2217928D01*
X4738674Y-2215591D01*
X4738370Y-2211628D01*
X4738674Y-2209190D01*
X4739589Y-2206853D01*
X4743958Y-2198624D01*
X4746396Y-2190648D01*
X4747260Y-2181910D01*
X4747260Y-2082901D01*
X4746396Y-2074113D01*
X4743958Y-2066137D01*
X4740046Y-2058822D01*
X4734763Y-2052370D01*
X4728362Y-2047087D01*
X4720996Y-2043175D01*
X4713020Y-2040737D01*
X4710277Y-2040483D01*
X4706721Y-2039416D01*
X4703775Y-2037181D01*
X4701794Y-2034032D01*
X4701133Y-2030374D01*
X4701133Y-1986280D01*
X4701743Y-1982774D01*
X4703521Y-1979726D01*
X4706213Y-1977440D01*
X4711141Y-1974596D01*
X4723180Y-1965502D01*
X4734001Y-1955038D01*
X4743450Y-1943252D01*
X4751425Y-1930450D01*
X4757724Y-1916734D01*
X4760772Y-1907133D01*
X4762957Y-1903374D01*
X4766513Y-1900885D01*
X4770780Y-1900072D01*
X4774996Y-1901139D01*
X4778349Y-1903882D01*
X4780280Y-1907743D01*
X4780788Y-1909622D01*
X4786223Y-1923694D01*
X4793335Y-1937004D01*
X4802073Y-1949297D01*
X4812233Y-1960422D01*
X4823663Y-1970227D01*
X4836261Y-1978558D01*
X4839106Y-1979980D01*
X4842052Y-1982216D01*
X4844034Y-1985416D01*
X4844694Y-1989074D01*
X4844694Y-2030730D01*
X4843780Y-2034895D01*
X4841240Y-2038350D01*
X4837480Y-2040432D01*
X4828489Y-2043175D01*
X4821174Y-2047087D01*
X4814722Y-2052370D01*
X4809439Y-2058822D01*
X4805527Y-2066137D01*
X4803089Y-2074113D01*
X4802225Y-2082901D01*
X4802225Y-2181910D01*
X4803089Y-2190648D01*
X4805527Y-2198624D01*
X4809896Y-2206853D01*
X4810810Y-2209190D01*
X4811115Y-2213102D01*
X4810810Y-2215591D01*
X4809896Y-2217928D01*
X4805527Y-2226106D01*
X4803089Y-2234082D01*
X4802225Y-2242870D01*
X4802225Y-2341880D01*
X4803089Y-2350668D01*
X4805527Y-2358644D01*
X4809439Y-2365959D01*
X4814722Y-2372410D01*
X4825441Y-2380945D01*
X4827320Y-2384653D01*
X4827524Y-2388768D01*
X4826660Y-2394407D01*
X4826660Y-2405684D01*
X4828387Y-2416810D01*
X4831791Y-2427528D01*
X4836769Y-2437587D01*
X4843221Y-2446782D01*
X4851044Y-2454910D01*
X4859985Y-2461717D01*
X4869840Y-2467102D01*
X4880457Y-2470861D01*
X4891481Y-2473045D01*
X4902708Y-2473452D01*
X4913884Y-2472182D01*
X4924755Y-2469184D01*
X4935016Y-2464562D01*
X4944465Y-2458466D01*
X4952847Y-2450998D01*
X4960010Y-2442311D01*
X4965750Y-2432659D01*
X4969967Y-2422194D01*
X4972507Y-2411272D01*
X4973370Y-2400046D01*
X4972456Y-2388057D01*
X4972710Y-2384806D01*
X4974031Y-2381808D01*
X4976164Y-2379421D01*
X4984750Y-2372360D01*
X4990033Y-2365959D01*
X4993944Y-2358644D01*
X4996383Y-2350668D01*
X4997246Y-2341880D01*
X4997246Y-2242870D01*
X4996383Y-2234082D01*
X4993944Y-2226106D01*
X4989576Y-2217928D01*
X4988661Y-2215591D01*
X4988356Y-2211628D01*
X4988661Y-2209190D01*
X4989576Y-2206853D01*
X4993944Y-2198624D01*
X4996383Y-2190648D01*
X4997246Y-2181910D01*
X4997246Y-2082901D01*
X4996383Y-2074113D01*
X4993944Y-2066137D01*
X4990033Y-2058822D01*
X4984750Y-2052370D01*
X4978349Y-2047087D01*
X4970983Y-2043175D01*
X4962347Y-2040534D01*
X4958588Y-2038451D01*
X4956048Y-2034997D01*
X4955133Y-2030831D01*
X4955133Y-1986280D01*
X4955743Y-1982774D01*
X4957521Y-1979726D01*
X4960213Y-1977440D01*
X4965141Y-1974596D01*
X4977180Y-1965502D01*
X4988001Y-1955038D01*
X4997450Y-1943252D01*
X5005425Y-1930450D01*
X5011724Y-1916734D01*
X5016296Y-1902358D01*
X5019040Y-1887575D01*
X5020005Y-1872488D01*
X5019040Y-1857451D01*
X5016296Y-1842617D01*
X5011724Y-1828241D01*
X5005425Y-1814575D01*
X4997450Y-1801723D01*
X4988001Y-1789988D01*
X4977180Y-1779473D01*
X4965141Y-1770380D01*
X4952085Y-1762861D01*
X4938217Y-1756968D01*
X4923688Y-1752854D01*
X4908804Y-1750517D01*
X4893716Y-1750060D01*
X4878730Y-1751482D01*
X4863998Y-1754682D01*
X4849774Y-1759712D01*
X4836261Y-1766417D01*
X4823663Y-1774748D01*
X4812233Y-1784553D01*
X4802073Y-1795729D01*
X4793335Y-1808022D01*
X4786223Y-1821281D01*
X4780788Y-1835353D01*
X4780280Y-1837232D01*
X4778349Y-1841144D01*
X4774996Y-1843887D01*
X4770780Y-1844903D01*
X4766513Y-1844141D01*
X4762957Y-1841601D01*
X4760772Y-1837842D01*
X4757724Y-1828241D01*
X4751425Y-1814575D01*
X4743450Y-1801723D01*
X4734001Y-1789988D01*
X4723180Y-1779473D01*
X4711141Y-1770380D01*
X4698085Y-1762861D01*
X4684217Y-1756968D01*
X4669688Y-1752854D01*
X4654804Y-1750517D01*
X4639716Y-1750060D01*
X4624730Y-1751482D01*
X4609998Y-1754682D01*
X4595774Y-1759712D01*
X4582261Y-1766417D01*
X4569663Y-1774748D01*
X4558233Y-1784553D01*
X4548073Y-1795729D01*
X4539335Y-1808022D01*
X4532223Y-1821281D01*
X4526788Y-1835353D01*
X4526280Y-1837232D01*
X4524349Y-1841144D01*
X4520996Y-1843887D01*
X4516780Y-1844903D01*
X4512513Y-1844141D01*
X4508957Y-1841601D01*
X4506772Y-1837842D01*
X4503724Y-1828241D01*
X4497425Y-1814575D01*
X4489450Y-1801723D01*
X4480001Y-1789988D01*
X4469180Y-1779473D01*
X4457141Y-1770380D01*
X4444085Y-1762861D01*
X4430217Y-1756968D01*
X4415688Y-1752854D01*
X4400804Y-1750517D01*
X4385716Y-1750060D01*
X4370730Y-1751482D01*
X4355998Y-1754682D01*
X4341774Y-1759712D01*
X4328261Y-1766417D01*
X4315663Y-1774748D01*
X4304233Y-1784553D01*
X4294073Y-1795729D01*
X4285335Y-1808022D01*
X4278223Y-1821281D01*
X4272788Y-1835353D01*
X4272280Y-1837232D01*
X4270349Y-1841144D01*
X4266996Y-1843887D01*
X4262780Y-1844903D01*
X4258513Y-1844141D01*
X4254957Y-1841601D01*
X4252772Y-1837842D01*
X4249724Y-1828241D01*
X4243425Y-1814575D01*
X4235450Y-1801723D01*
X4226001Y-1789988D01*
X4215180Y-1779473D01*
X4203141Y-1770380D01*
X4190085Y-1762861D01*
X4176217Y-1756968D01*
X4161688Y-1752854D01*
X4146804Y-1750517D01*
X4131716Y-1750060D01*
X4116730Y-1751482D01*
X4101998Y-1754682D01*
X4087774Y-1759712D01*
X4074261Y-1766417D01*
X4061663Y-1774748D01*
X4050233Y-1784553D01*
X4040073Y-1795729D01*
X4031335Y-1808022D01*
X4024223Y-1821281D01*
X4018787Y-1835353D01*
X4018279Y-1837232D01*
X4016349Y-1841144D01*
X4012996Y-1843887D01*
X4008780Y-1844903D01*
X4004513Y-1844141D01*
X4000957Y-1841601D01*
X3998772Y-1837842D01*
X3995724Y-1828241D01*
X3989425Y-1814575D01*
X3981450Y-1801723D01*
X3972001Y-1789988D01*
X3961180Y-1779473D01*
X3949141Y-1770380D01*
X3936085Y-1762861D01*
X3922217Y-1756968D01*
X3907688Y-1752854D01*
X3892804Y-1750517D01*
X3877716Y-1750060D01*
X3862730Y-1751482D01*
X3847998Y-1754682D01*
X3833774Y-1759712D01*
X3820261Y-1766417D01*
X3807663Y-1774748D01*
X3796233Y-1784553D01*
X3786073Y-1795729D01*
X3777335Y-1808022D01*
X3770223Y-1821281D01*
X3764787Y-1835353D01*
X3764279Y-1837232D01*
X3762349Y-1841144D01*
X3758996Y-1843887D01*
X3754780Y-1844903D01*
X3750513Y-1844141D01*
X3746957Y-1841601D01*
X3744772Y-1837842D01*
X3741724Y-1828241D01*
X3735425Y-1814575D01*
X3727450Y-1801723D01*
X3718001Y-1789988D01*
X3707180Y-1779473D01*
X3695141Y-1770380D01*
X3682085Y-1762861D01*
X3668217Y-1756968D01*
X3653688Y-1752854D01*
X3638804Y-1750517D01*
X3623716Y-1750060D01*
X3608730Y-1751482D01*
X3593998Y-1754682D01*
X3579774Y-1759712D01*
X3566261Y-1766417D01*
X3553663Y-1774748D01*
X3542233Y-1784553D01*
X3532073Y-1795729D01*
X3523335Y-1808022D01*
X3516223Y-1821281D01*
X3510787Y-1835353D01*
X3507079Y-1849983D01*
X3505250Y-1864969D01*
X3505250Y-1880057D01*
X3507079Y-1894992D01*
X3510787Y-1909622D01*
X3516223Y-1923694D01*
X3523335Y-1937004D01*
X3532073Y-1949297D01*
X3542233Y-1960422D01*
X3553663Y-1970227D01*
X3566261Y-1978558D01*
X3579774Y-1985314D01*
X3593998Y-1990293D01*
X3608730Y-1993544D01*
X3623716Y-1994916D01*
X3638804Y-1994458D01*
X3653688Y-1992172D01*
X3668217Y-1988007D01*
X3682085Y-1982165D01*
X3695141Y-1974596D01*
X3707180Y-1965502D01*
X3718001Y-1955038D01*
X3727450Y-1943252D01*
X3735425Y-1930450D01*
X3741724Y-1916734D01*
X3744772Y-1907133D01*
X3746957Y-1903374D01*
X3750513Y-1900885D01*
X3754780Y-1900072D01*
X3758996Y-1901139D01*
X3762349Y-1903882D01*
X3764279Y-1907743D01*
X3764787Y-1909622D01*
X3770223Y-1923694D01*
X3777335Y-1937004D01*
X3786073Y-1949297D01*
X3796233Y-1960422D01*
X3807663Y-1970227D01*
X3820261Y-1978558D01*
X3823106Y-1979980D01*
X3826052Y-1982216D01*
X3828034Y-1985416D01*
X3828694Y-1989074D01*
X3828694Y-2036978D01*
X3828084Y-2040585D01*
X3826205Y-2043684D01*
X3823360Y-2045919D01*
X3821226Y-2047087D01*
X3814775Y-2052370D01*
X3809492Y-2058822D01*
X3805580Y-2066137D01*
X3803142Y-2074113D01*
X3802278Y-2082901D01*
X3802278Y-2181910D01*
X3803142Y-2190648D01*
X3805580Y-2198624D01*
X3809949Y-2206853D01*
X3810863Y-2209190D01*
X3811168Y-2213102D01*
X3810863Y-2215591D01*
X3809949Y-2217928D01*
X3805580Y-2226106D01*
X3803142Y-2234082D01*
X3802278Y-2242870D01*
X3802278Y-2341880D01*
X3803142Y-2350668D01*
X3805580Y-2358644D01*
X3809492Y-2365959D01*
X3814775Y-2372410D01*
X3821226Y-2377694D01*
X3828542Y-2381605D01*
X3837381Y-2384298D01*
X3841140Y-2386380D01*
X3843680Y-2389784D01*
X3844594Y-2394000D01*
X3844594Y-2461869D01*
X3844848Y-2468067D01*
X3843883Y-2505354D01*
X3840835Y-2547924D01*
X3835704Y-2590292D01*
X3828643Y-2632354D01*
X3819550Y-2674061D01*
X3808476Y-2715260D01*
X3795522Y-2755900D01*
X3780586Y-2795879D01*
X3763822Y-2835148D01*
X3745179Y-2873502D01*
X3724757Y-2910992D01*
X3702608Y-2947466D01*
X3678732Y-2982823D01*
X3653231Y-3017012D01*
X3626104Y-3049930D01*
X3597452Y-3081578D01*
X3567328Y-3111804D01*
X3535832Y-3140557D01*
X3502964Y-3167837D01*
X3468878Y-3193491D01*
X3433622Y-3217519D01*
X3397250Y-3239820D01*
X3359861Y-3260394D01*
X3321558Y-3279140D01*
X3282391Y-3296056D01*
X3242462Y-3311144D01*
X3201873Y-3324301D01*
X3160725Y-3335477D01*
X3119069Y-3344773D01*
X3077006Y-3351987D01*
X3034639Y-3357270D01*
X2992120Y-3360521D01*
X2949702Y-3361740D01*
X2674366Y-3361740D01*
X2670657Y-3361080D01*
X2667457Y-3359048D01*
X2665222Y-3356051D01*
X2664256Y-3352393D01*
X2664663Y-3348634D01*
X2665577Y-3345637D01*
X2666441Y-3336848D01*
X2666441Y-3247847D01*
X2665577Y-3239058D01*
X2663342Y-3231794D01*
X2662936Y-3228848D01*
X2663342Y-3225901D01*
X2665577Y-3218637D01*
X2666441Y-3209848D01*
X2666441Y-3120847D01*
X2665577Y-3112058D01*
X2663342Y-3104794D01*
X2662936Y-3101848D01*
X2663342Y-3098901D01*
X2665577Y-3091637D01*
X2666441Y-3082848D01*
X2666441Y-2993847D01*
X2665577Y-2985058D01*
X2663342Y-2977743D01*
X2662936Y-2974797D01*
X2663342Y-2971850D01*
X2665526Y-2964637D01*
X2666390Y-2955848D01*
X2666390Y-2866847D01*
X2665526Y-2858058D01*
X2663342Y-2850794D01*
X2662885Y-2847848D01*
X2663342Y-2844901D01*
X2665526Y-2837637D01*
X2666390Y-2828848D01*
X2666390Y-2739847D01*
X2665526Y-2731058D01*
X2663342Y-2723794D01*
X2662885Y-2720848D01*
X2663342Y-2717901D01*
X2665526Y-2710637D01*
X2666390Y-2701848D01*
X2666390Y-2612847D01*
X2665526Y-2604058D01*
X2663342Y-2596794D01*
X2662885Y-2593848D01*
X2663342Y-2590901D01*
X2665526Y-2583637D01*
X2666390Y-2574848D01*
X2666390Y-2485847D01*
X2665526Y-2477058D01*
X2663342Y-2469794D01*
X2662885Y-2466848D01*
X2663342Y-2463901D01*
X2665526Y-2456637D01*
X2666390Y-2447848D01*
X2666390Y-2358847D01*
X2665526Y-2350058D01*
X2663139Y-2342083D01*
X2659227Y-2334768D01*
X2653944Y-2328316D01*
X2647492Y-2323033D01*
X2640126Y-2319121D01*
X2632202Y-2316683D01*
X2623413Y-2315819D01*
X2524099Y-2315819D01*
X2520238Y-2315057D01*
X2516936Y-2312873D01*
X2514752Y-2309571D01*
X2513939Y-2305659D01*
X2514752Y-2301798D01*
X2516936Y-2298496D01*
X2624937Y-2190496D01*
X2628188Y-2188311D01*
X2632100Y-2187549D01*
X3169716Y-2187549D01*
X3173882Y-2188464D01*
X3177336Y-2191004D01*
X3179419Y-2194763D01*
X3180588Y-2198624D01*
X3185007Y-2206853D01*
X3185871Y-2209190D01*
X3186176Y-2213102D01*
X3185871Y-2215591D01*
X3185007Y-2217928D01*
X3180588Y-2226157D01*
X3178200Y-2234082D01*
X3177336Y-2242870D01*
X3177336Y-2261006D01*
X3240989Y-2261006D01*
X3240989Y-2235047D01*
X3241751Y-2231186D01*
X3243935Y-2227884D01*
X3247237Y-2225649D01*
X3251149Y-2224887D01*
X3298494Y-2224887D01*
X3302406Y-2225649D01*
X3305708Y-2227884D01*
X3307892Y-2231186D01*
X3308654Y-2235047D01*
X3308654Y-2261006D01*
X3372358Y-2261006D01*
X3372358Y-2242870D01*
X3371443Y-2234082D01*
X3369056Y-2226157D01*
X3364636Y-2217928D01*
X3363772Y-2215591D01*
X3363468Y-2211628D01*
X3363772Y-2209190D01*
X3364636Y-2206853D01*
X3369056Y-2198624D01*
X3371443Y-2190699D01*
X3372358Y-2181910D01*
X3372358Y-2082901D01*
X3371443Y-2074113D01*
X3369056Y-2066137D01*
X3365144Y-2058822D01*
X3359861Y-2052370D01*
X3353409Y-2047087D01*
X3346094Y-2043175D01*
X3337255Y-2040483D01*
X3333496Y-2038400D01*
X3330956Y-2034946D01*
X3330041Y-2030780D01*
X3330041Y-1919579D01*
X3330803Y-1915718D01*
X3332987Y-1912416D01*
X3336290Y-1910232D01*
X3340201Y-1909419D01*
X3384448Y-1909419D01*
X3393236Y-1908556D01*
X3401212Y-1906168D01*
X3408527Y-1902206D01*
X3414979Y-1896973D01*
X3420262Y-1890522D01*
X3424174Y-1883156D01*
X3426612Y-1875231D01*
X3427476Y-1866442D01*
X3427476Y-1687423D01*
X3426612Y-1678635D01*
X3424174Y-1670659D01*
X3418078Y-1659788D01*
X3417519Y-1656334D01*
X3417519Y-1646174D01*
X3418078Y-1642719D01*
X3419805Y-1639722D01*
X3422802Y-1636115D01*
X3426714Y-1628749D01*
X3429152Y-1620774D01*
X3430015Y-1612036D01*
X3429914Y-1372971D01*
X3430676Y-1369060D01*
X3432911Y-1365758D01*
X3436213Y-1363573D01*
X3440074Y-1362760D01*
X3701389Y-1362964D01*
X3704793Y-1363573D01*
X3707790Y-1365250D01*
X3713937Y-1370279D01*
X3721303Y-1374241D01*
X3729228Y-1376629D01*
X3738016Y-1377492D01*
X3862019Y-1377492D01*
X3870807Y-1376629D01*
X3878783Y-1374241D01*
X3886098Y-1370279D01*
X3892499Y-1365097D01*
X3895496Y-1363370D01*
X3898900Y-1362760D01*
X3934815Y-1362760D01*
X3938676Y-1363573D01*
X3941978Y-1365758D01*
X3944213Y-1369060D01*
X3944975Y-1372920D01*
X3944975Y-1429512D01*
X3945839Y-1438300D01*
X3948226Y-1446225D01*
X3952189Y-1453591D01*
X3957421Y-1460042D01*
X3963873Y-1465275D01*
X3971391Y-1469288D01*
X3974236Y-1471574D01*
X3976115Y-1474673D01*
X3976776Y-1478280D01*
X3976776Y-1480616D01*
X3978452Y-1491742D01*
X3981856Y-1502460D01*
X3986834Y-1512570D01*
X3993337Y-1521764D01*
X4001109Y-1529842D01*
X4010050Y-1536649D01*
X4019956Y-1542034D01*
X4030522Y-1545844D01*
X4041597Y-1547977D01*
X4052824Y-1548434D01*
X4064000Y-1547114D01*
X4074820Y-1544167D01*
X4085082Y-1539544D01*
X4094530Y-1533448D01*
X4102912Y-1525930D01*
X4110075Y-1517294D01*
X4115866Y-1507591D01*
X4120032Y-1497177D01*
X4122623Y-1486204D01*
X4123283Y-1477467D01*
X4124096Y-1474165D01*
X4125925Y-1471320D01*
X4128617Y-1469288D01*
X4136034Y-1465275D01*
X4142486Y-1460042D01*
X4147769Y-1453591D01*
X4151680Y-1446225D01*
X4154119Y-1438300D01*
X4154982Y-1429512D01*
X4154982Y-1372920D01*
X4155744Y-1369060D01*
X4157929Y-1365758D01*
X4161231Y-1363573D01*
X4165142Y-1362760D01*
X4201160Y-1362760D01*
X4204563Y-1363370D01*
X4207611Y-1365097D01*
X4213961Y-1370279D01*
X4221276Y-1374241D01*
X4229252Y-1376629D01*
X4238040Y-1377492D01*
X4362043Y-1377492D01*
X4370832Y-1376629D01*
X4378756Y-1374241D01*
X4386122Y-1370279D01*
X4392472Y-1365097D01*
X4395520Y-1363370D01*
X4398924Y-1362760D01*
X4434789Y-1362760D01*
X4438700Y-1363573D01*
X4442002Y-1365758D01*
X4444187Y-1369060D01*
X4444949Y-1372920D01*
X4444949Y-1429512D01*
X4445812Y-1438300D01*
X4448251Y-1446225D01*
X4452162Y-1453591D01*
X4457446Y-1460042D01*
X4463897Y-1465275D01*
X4471365Y-1469288D01*
X4474210Y-1471574D01*
X4476089Y-1474673D01*
X4476750Y-1478280D01*
X4476750Y-1480616D01*
X4478477Y-1491742D01*
X4481880Y-1502460D01*
X4486859Y-1512570D01*
X4493310Y-1521764D01*
X4501134Y-1529842D01*
X4510074Y-1536649D01*
X4519930Y-1542034D01*
X4530547Y-1545844D01*
X4541570Y-1547977D01*
X4552797Y-1548434D01*
X4563973Y-1547114D01*
X4574844Y-1544167D01*
X4585106Y-1539544D01*
X4594555Y-1533448D01*
X4602937Y-1525930D01*
X4610100Y-1517294D01*
X4615840Y-1507591D01*
X4620056Y-1497177D01*
X4622596Y-1486204D01*
X4623257Y-1477467D01*
X4624120Y-1474165D01*
X4625949Y-1471320D01*
X4628642Y-1469288D01*
X4636058Y-1465275D01*
X4642510Y-1460042D01*
X4647793Y-1453591D01*
X4651705Y-1446225D01*
X4654092Y-1438300D01*
X4654956Y-1429512D01*
X4654956Y-1372920D01*
X4655769Y-1369060D01*
X4657953Y-1365758D01*
X4661255Y-1363573D01*
X4665116Y-1362760D01*
X4701133Y-1362760D01*
X4704588Y-1363370D01*
X4707585Y-1365097D01*
X4713935Y-1370279D01*
X4721301Y-1374241D01*
X4729226Y-1376629D01*
X4738014Y-1377492D01*
X4862017Y-1377492D01*
X4870805Y-1376629D01*
X4878781Y-1374241D01*
X4886096Y-1370279D01*
X4892548Y-1365046D01*
X4897831Y-1358595D01*
X4901742Y-1351229D01*
X4904181Y-1343304D01*
X4905044Y-1334516D01*
X4905044Y-1302664D01*
X4905806Y-1298803D01*
X4907991Y-1295501D01*
X4911293Y-1293266D01*
X4915204Y-1292504D01*
X4974488Y-1292504D01*
X4983276Y-1291640D01*
X4991252Y-1289253D01*
X5002225Y-1283106D01*
X5005628Y-1282496D01*
X5111953Y-1282496D01*
X5120741Y-1281633D01*
X5128717Y-1279245D01*
X5136032Y-1275283D01*
X5142484Y-1270050D01*
X5147767Y-1263599D01*
X5151678Y-1256233D01*
X5154117Y-1248308D01*
X5154980Y-1239520D01*
X5154980Y-1170482D01*
X5154117Y-1161745D01*
X5151678Y-1153769D01*
X5147767Y-1146403D01*
X5142484Y-1140002D01*
X5136032Y-1134719D01*
X5128717Y-1130757D01*
X5120741Y-1128369D01*
X5111953Y-1127506D01*
X5059629Y-1127506D01*
X5055768Y-1126744D01*
X5052466Y-1124508D01*
X5020462Y-1092555D01*
X5018278Y-1089253D01*
X5017516Y-1085342D01*
X5017516Y-626821D01*
X5017668Y-624941D01*
X5019040Y-617575D01*
X5020005Y-602488D01*
X5019040Y-587451D01*
X5017668Y-580034D01*
X5017516Y-578205D01*
X5017516Y-525475D01*
X5016652Y-516737D01*
X5014214Y-508762D01*
X5010302Y-501396D01*
X5005019Y-494995D01*
X4998567Y-489712D01*
X4991252Y-485749D01*
X4983276Y-483362D01*
X4974488Y-482498D01*
X4920640Y-482396D01*
X4908804Y-480517D01*
X4893716Y-480059D01*
X4878730Y-481482D01*
X4872888Y-482498D01*
X4666640Y-482396D01*
X4654804Y-480517D01*
X4639716Y-480059D01*
X4624730Y-481482D01*
X4618888Y-482498D01*
X4412640Y-482396D01*
X4400804Y-480517D01*
X4385716Y-480059D01*
X4370730Y-481482D01*
X4364888Y-482498D01*
X4158640Y-482396D01*
X4146804Y-480517D01*
X4131716Y-480059D01*
X4116730Y-481482D01*
X4110888Y-482498D01*
X3904640Y-482396D01*
X3892804Y-480517D01*
X3877716Y-480059D01*
X3862730Y-481482D01*
X3856888Y-482498D01*
X3650640Y-482396D01*
X3638804Y-480517D01*
X3623716Y-480059D01*
X3608730Y-481482D01*
X3602888Y-482498D01*
X3550513Y-482498D01*
X3541725Y-483362D01*
X3533749Y-485749D01*
X3525977Y-490067D01*
X3522014Y-492048D01*
X3517544Y-492150D01*
X3513480Y-490372D01*
X3510584Y-486968D01*
X3507638Y-481482D01*
X3502355Y-475030D01*
X3495903Y-469747D01*
X3488588Y-465835D01*
X3480612Y-463448D01*
X3475837Y-462940D01*
X3472078Y-461822D01*
X3468979Y-459282D01*
X3467150Y-455777D01*
X3466744Y-451866D01*
X3467912Y-448056D01*
X3470401Y-445008D01*
X3473907Y-443128D01*
X3478580Y-441706D01*
X3485896Y-437794D01*
X3492347Y-432511D01*
X3497630Y-426059D01*
X3501542Y-418744D01*
X3503980Y-410768D01*
X3504844Y-401980D01*
X3504844Y-370078D01*
X3443681Y-370078D01*
X3443681Y-442620D01*
X3447542Y-444652D01*
X3450234Y-448106D01*
X3451199Y-452424D01*
X3451199Y-514807D01*
X3450386Y-518718D01*
X3448202Y-522020D01*
X3444900Y-524205D01*
X3441039Y-524967D01*
X3393643Y-524967D01*
X3389731Y-524205D01*
X3386480Y-522020D01*
X3384245Y-518718D01*
X3383483Y-514807D01*
X3383483Y-461822D01*
X3381603Y-458724D01*
X3380994Y-455168D01*
X3380994Y-370078D01*
X3315004Y-370078D01*
X3311093Y-369316D01*
X3307791Y-367131D01*
X3305606Y-363829D01*
X3304844Y-359918D01*
X3304844Y-290068D01*
X3305606Y-286156D01*
X3307791Y-282854D01*
X3311093Y-280670D01*
X3315004Y-279908D01*
X3380994Y-279908D01*
X3380994Y-204978D01*
X3362807Y-204978D01*
X3354019Y-205841D01*
X3346094Y-208279D01*
X3338728Y-212191D01*
X3332327Y-217474D01*
X3327044Y-223875D01*
X3323082Y-231241D01*
X3322065Y-234696D01*
X3319983Y-238455D01*
X3316528Y-240995D01*
X3312312Y-241909D01*
X3308146Y-240995D01*
X3304692Y-238455D01*
X3302609Y-234696D01*
X3301542Y-231241D01*
X3297631Y-223875D01*
X3292348Y-217474D01*
X3285896Y-212191D01*
X3278581Y-208279D01*
X3270605Y-205841D01*
X3261817Y-204978D01*
X3162808Y-204978D01*
X3154019Y-205841D01*
X3146094Y-208279D01*
X3138728Y-212191D01*
X3132328Y-217474D01*
X3127044Y-223875D01*
X3123082Y-231241D01*
X3122066Y-234645D01*
X3119983Y-238404D01*
X3116529Y-240995D01*
X3112312Y-241858D01*
X3108147Y-240995D01*
X3104692Y-238404D01*
X3102610Y-234645D01*
X3101594Y-231241D01*
X3097631Y-223875D01*
X3092348Y-217474D01*
X3085947Y-212191D01*
X3078581Y-208279D01*
X3070606Y-205841D01*
X3061868Y-204978D01*
X2962859Y-204978D01*
X2954070Y-205841D01*
X2946095Y-208279D01*
X2938780Y-212191D01*
X2932328Y-217474D01*
X2927045Y-223875D01*
X2923133Y-231241D01*
X2922066Y-234696D01*
X2919984Y-238455D01*
X2916529Y-240995D01*
X2912364Y-241909D01*
X2908147Y-240995D01*
X2904693Y-238455D01*
X2902610Y-234696D01*
X2901594Y-231241D01*
X2897632Y-223875D01*
X2892348Y-217474D01*
X2885948Y-212191D01*
X2878582Y-208279D01*
X2870606Y-205841D01*
X2861868Y-204978D01*
X2843682Y-204978D01*
X2843682Y-279908D01*
X2909671Y-279908D01*
X2913583Y-280670D01*
X2916885Y-282854D01*
X2919069Y-286156D01*
X2919831Y-290068D01*
X2919831Y-319938D01*
X2919374Y-325272D01*
X2919374Y-359918D01*
X2918612Y-363829D01*
X2916428Y-367131D01*
X2913126Y-369316D01*
X2909214Y-370078D01*
X2843682Y-370078D01*
X2843682Y-445008D01*
X2861868Y-445008D01*
X2870606Y-444144D01*
X2878582Y-441706D01*
X2885948Y-437794D01*
X2892348Y-432511D01*
X2897632Y-426059D01*
X2900273Y-421182D01*
X2903169Y-417779D01*
X2907233Y-416001D01*
X2911703Y-416102D01*
X2915666Y-418084D01*
X2918409Y-421640D01*
X2919374Y-425958D01*
X2919374Y-452424D01*
X2918612Y-456285D01*
X2916428Y-459587D01*
X2913126Y-461772D01*
X2909214Y-462584D01*
X2902813Y-462584D01*
X2894025Y-463448D01*
X2886100Y-465835D01*
X2878734Y-469747D01*
X2872333Y-475030D01*
X2867050Y-481482D01*
X2863088Y-488848D01*
X2860700Y-496773D01*
X2859836Y-505561D01*
X2859836Y-652322D01*
X2859074Y-656183D01*
X2856839Y-659485D01*
X2853537Y-661670D01*
X2849676Y-662482D01*
X2100884Y-662482D01*
X2099868Y-663397D01*
X2098548Y-733653D01*
X2097786Y-737412D01*
X2095652Y-740562D01*
X2084730Y-751738D01*
X2075942Y-763422D01*
X2068626Y-776071D01*
X2062937Y-789533D01*
X2058924Y-803554D01*
X2056688Y-818032D01*
X2056231Y-832612D01*
X2057603Y-847191D01*
X2060752Y-861466D01*
X2065578Y-875233D01*
X2072081Y-888288D01*
X2080158Y-900480D01*
X2089657Y-911606D01*
X2091689Y-913434D01*
X2094179Y-916940D01*
X2094992Y-921156D01*
X2087575Y-1314958D01*
X2086762Y-1318768D01*
X2084527Y-1322019D01*
X2081275Y-1324152D01*
X2077415Y-1324914D01*
X1885086Y-1324914D01*
X1881174Y-1324152D01*
X1877872Y-1321968D01*
X1875688Y-1318666D01*
X1874926Y-1314754D01*
X1875028Y-10668D01*
X1875789Y-6756D01*
X1877974Y-3505D01*
X1881276Y-1270D01*
X1885188Y-508D01*
X6389522Y-508D01*
X6393383Y-1270D01*
X6396685Y-3505D01*
X6398869Y-6756D01*
X6399682Y-10668D01*
X6399682Y-2311704D01*
X6398971Y-2315362D01*
X6397091Y-2318461D01*
X6394196Y-2320747D01*
X6373774Y-2331313D01*
X6355181Y-2343150D01*
X6337706Y-2356561D01*
X6321450Y-2371445D01*
X6306566Y-2387701D01*
X6293154Y-2405176D01*
X6281369Y-2423718D01*
X6271158Y-2443276D01*
X6262725Y-2463647D01*
X6256121Y-2484628D01*
X6251346Y-2506116D01*
X6248501Y-2527960D01*
X6247536Y-2550007D01*
X6248501Y-2572004D01*
X6251346Y-2593848D01*
X6256121Y-2615336D01*
X6262725Y-2636316D01*
X6271158Y-2656687D01*
X6281369Y-2676245D01*
X6293154Y-2694787D01*
X6306566Y-2712262D01*
X6321450Y-2728518D01*
X6337706Y-2743403D01*
X6355181Y-2756814D01*
X6373774Y-2768650D01*
X6394196Y-2779217D01*
X6397091Y-2781503D01*
X6398971Y-2784602D01*
X6399682Y-2788259D01*
X6399682Y-5089550D01*
X6398869Y-5093462D01*
X6396685Y-5096764D01*
X6393383Y-5098948D01*
X6389522Y-5099710D01*
X2032254Y-5099710D01*
X2021992Y-5098491D01*
X1999996Y-5097526D01*
X1977999Y-5098491D01*
X1967738Y-5099710D01*
G37*

%LPC*%
G36*
X249986Y-4995062D02*
G01*
X265684Y-4994148D01*
X281127Y-4991354D01*
X296113Y-4986782D01*
X310489Y-4980482D01*
X324002Y-4972507D01*
X336499Y-4962956D01*
X347776Y-4952034D01*
X357632Y-4939842D01*
X366014Y-4926584D01*
X372821Y-4912309D01*
X374904Y-4908702D01*
X378307Y-4906264D01*
X382422Y-4905400D01*
X738784Y-4905400D01*
X742238Y-4906010D01*
X745236Y-4907737D01*
X751433Y-4912817D01*
X758748Y-4916728D01*
X766724Y-4919116D01*
X775512Y-4919980D01*
X824534Y-4919980D01*
X833323Y-4919116D01*
X841248Y-4916728D01*
X845210Y-4914595D01*
X848360Y-4913528D01*
X851662Y-4913528D01*
X854811Y-4914595D01*
X858774Y-4916728D01*
X866749Y-4919116D01*
X875537Y-4919980D01*
X924509Y-4919980D01*
X933297Y-4919116D01*
X941273Y-4916728D01*
X948588Y-4912817D01*
X955040Y-4907534D01*
X960323Y-4901082D01*
X961898Y-4898085D01*
X964184Y-4895240D01*
X967282Y-4893360D01*
X970889Y-4892700D01*
X1071270Y-4892700D01*
X1074674Y-4893310D01*
X1077722Y-4895037D01*
X1083868Y-4900066D01*
X1091184Y-4903978D01*
X1099159Y-4906416D01*
X1107948Y-4907280D01*
X1216964Y-4907280D01*
X1225702Y-4906416D01*
X1233678Y-4903978D01*
X1241044Y-4900066D01*
X1247444Y-4894783D01*
X1252728Y-4888331D01*
X1256639Y-4881016D01*
X1257808Y-4877257D01*
X1259840Y-4873548D01*
X1263192Y-4871008D01*
X1267307Y-4870043D01*
X1277467Y-4869789D01*
X1282141Y-4869180D01*
X1286814Y-4868164D01*
X1291437Y-4866690D01*
X1295857Y-4864862D01*
X1300124Y-4862626D01*
X1304188Y-4860036D01*
X1307998Y-4857089D01*
X1311757Y-4853686D01*
X1351280Y-4814163D01*
X1354683Y-4810404D01*
X1357630Y-4806594D01*
X1360220Y-4802530D01*
X1362405Y-4798364D01*
X1364843Y-4792065D01*
X1367028Y-4788712D01*
X1370279Y-4786477D01*
X1374190Y-4785664D01*
X1378153Y-4786376D01*
X1381455Y-4788560D01*
X1383690Y-4791862D01*
X1384452Y-4795824D01*
X1384452Y-4874006D01*
X1385366Y-4882794D01*
X1387754Y-4890770D01*
X1391666Y-4898085D01*
X1396949Y-4904536D01*
X1403400Y-4909820D01*
X1410716Y-4913731D01*
X1418691Y-4916170D01*
X1427480Y-4917033D01*
X1491488Y-4917033D01*
X1500276Y-4916170D01*
X1508252Y-4913731D01*
X1515567Y-4909820D01*
X1519580Y-4907330D01*
X1522984Y-4906721D01*
X1526387Y-4907330D01*
X1530400Y-4909820D01*
X1537716Y-4913731D01*
X1545691Y-4916170D01*
X1554480Y-4917033D01*
X1618488Y-4917033D01*
X1627276Y-4916170D01*
X1635251Y-4913731D01*
X1642567Y-4909820D01*
X1646580Y-4907330D01*
X1649984Y-4906721D01*
X1653387Y-4907330D01*
X1657400Y-4909820D01*
X1664716Y-4913731D01*
X1672691Y-4916170D01*
X1681480Y-4917033D01*
X1745488Y-4917033D01*
X1754276Y-4916170D01*
X1762252Y-4913731D01*
X1769567Y-4909820D01*
X1773580Y-4907330D01*
X1776984Y-4906721D01*
X1780387Y-4907330D01*
X1784400Y-4909820D01*
X1791716Y-4913731D01*
X1799691Y-4916170D01*
X1808480Y-4917033D01*
X1872488Y-4917033D01*
X1881276Y-4916170D01*
X1889252Y-4913731D01*
X1896567Y-4909820D01*
X1903018Y-4904536D01*
X1908302Y-4898085D01*
X1912213Y-4890770D01*
X1914652Y-4882794D01*
X1915515Y-4874006D01*
X1915515Y-4720031D01*
X1914652Y-4711242D01*
X1912213Y-4703267D01*
X1908302Y-4695901D01*
X1903018Y-4689500D01*
X1896567Y-4684217D01*
X1889252Y-4680305D01*
X1883054Y-4678426D01*
X1879396Y-4676394D01*
X1876856Y-4673142D01*
X1875891Y-4669078D01*
X1876552Y-4665014D01*
X1878838Y-4661509D01*
X2019655Y-4520692D01*
X2022906Y-4518507D01*
X2026818Y-4517745D01*
X2142744Y-4517745D01*
X2146808Y-4518558D01*
X2150160Y-4520946D01*
X2152345Y-4524451D01*
X2152904Y-4528566D01*
X2151786Y-4532528D01*
X2149246Y-4535728D01*
X2146706Y-4537811D01*
X2135022Y-4549851D01*
X2124659Y-4563110D01*
X2115870Y-4577435D01*
X2108708Y-4592624D01*
X2103272Y-4608474D01*
X2099564Y-4624882D01*
X2097735Y-4641596D01*
X2097735Y-4658410D01*
X2099564Y-4675073D01*
X2103272Y-4691481D01*
X2108708Y-4707382D01*
X2115870Y-4722571D01*
X2124659Y-4736896D01*
X2135022Y-4750155D01*
X2146706Y-4762195D01*
X2159660Y-4772863D01*
X2173732Y-4782058D01*
X2188718Y-4789627D01*
X2204466Y-4795520D01*
X2220772Y-4799634D01*
X2237384Y-4801971D01*
X2254199Y-4802428D01*
X2270963Y-4801057D01*
X2287422Y-4797806D01*
X2303475Y-4792776D01*
X2318867Y-4786071D01*
X2333396Y-4777638D01*
X2346960Y-4767681D01*
X2359304Y-4756302D01*
X2370328Y-4743653D01*
X2379929Y-4729835D01*
X2387904Y-4715052D01*
X2394204Y-4699508D01*
X2398776Y-4683353D01*
X2401570Y-4666742D01*
X2402484Y-4649978D01*
X2401570Y-4633214D01*
X2398776Y-4616653D01*
X2394204Y-4600498D01*
X2387904Y-4584903D01*
X2379929Y-4570120D01*
X2370328Y-4556353D01*
X2359304Y-4543653D01*
X2350312Y-4535373D01*
X2347925Y-4532122D01*
X2347010Y-4528159D01*
X2347722Y-4524197D01*
X2349906Y-4520793D01*
X2353208Y-4518558D01*
X2357170Y-4517745D01*
X2387396Y-4517745D01*
X2392426Y-4517491D01*
X2397201Y-4516882D01*
X2401874Y-4515866D01*
X2406497Y-4514392D01*
X2410917Y-4512564D01*
X2415184Y-4510328D01*
X2419248Y-4507738D01*
X2423058Y-4504791D01*
X2426817Y-4501388D01*
X2601214Y-4326991D01*
X2604617Y-4323232D01*
X2607564Y-4319422D01*
X2610154Y-4315358D01*
X2612390Y-4311091D01*
X2614218Y-4306671D01*
X2615692Y-4302048D01*
X2616708Y-4297375D01*
X2617317Y-4292600D01*
X2617571Y-4287570D01*
X2617571Y-4257243D01*
X2618333Y-4253331D01*
X2620568Y-4250029D01*
X2623870Y-4247794D01*
X2627833Y-4247083D01*
X2631694Y-4247896D01*
X2634996Y-4250131D01*
X2646730Y-4262170D01*
X2659684Y-4272838D01*
X2673756Y-4282033D01*
X2688742Y-4289653D01*
X2704490Y-4295546D01*
X2720746Y-4299661D01*
X2737408Y-4301947D01*
X2754172Y-4302404D01*
X2770936Y-4301032D01*
X2787446Y-4297832D01*
X2803448Y-4292803D01*
X2818841Y-4286046D01*
X2833420Y-4277664D01*
X2846933Y-4267708D01*
X2859278Y-4256328D01*
X2870352Y-4243628D01*
X2879902Y-4229862D01*
X2887878Y-4215079D01*
X2894228Y-4199483D01*
X2898800Y-4183329D01*
X2901543Y-4166768D01*
X2902508Y-4150004D01*
X2901543Y-4133240D01*
X2898800Y-4116628D01*
X2894228Y-4100474D01*
X2887878Y-4084929D01*
X2879902Y-4070146D01*
X2870352Y-4056329D01*
X2859278Y-4043679D01*
X2846933Y-4032300D01*
X2833420Y-4022344D01*
X2818841Y-4013911D01*
X2803448Y-4007205D01*
X2787446Y-4002176D01*
X2770936Y-3998925D01*
X2754172Y-3997553D01*
X2737408Y-3998010D01*
X2720746Y-4000347D01*
X2704490Y-4004462D01*
X2688742Y-4010355D01*
X2673756Y-4017924D01*
X2659684Y-4027119D01*
X2646730Y-4037787D01*
X2634996Y-4049826D01*
X2624683Y-4063085D01*
X2618638Y-4072890D01*
X2616149Y-4075684D01*
X2612796Y-4077360D01*
X2609088Y-4077715D01*
X2605481Y-4076700D01*
X2602484Y-4074464D01*
X2485593Y-3957421D01*
X2483256Y-3953814D01*
X2482646Y-3949547D01*
X2483815Y-3945432D01*
X2486152Y-3941064D01*
X2488539Y-3933139D01*
X2489403Y-3924350D01*
X2489403Y-3725316D01*
X2488539Y-3716528D01*
X2486152Y-3708603D01*
X2482240Y-3701237D01*
X2476957Y-3694836D01*
X2470505Y-3689553D01*
X2463139Y-3685590D01*
X2455214Y-3683203D01*
X2446426Y-3682339D01*
X2357424Y-3682339D01*
X2348636Y-3683203D01*
X2341372Y-3685387D01*
X2338425Y-3685844D01*
X2335479Y-3685387D01*
X2328214Y-3683203D01*
X2319426Y-3682339D01*
X2232914Y-3682339D01*
X2228850Y-3681476D01*
X2225497Y-3679088D01*
X2223363Y-3675532D01*
X2222804Y-3671366D01*
X2223465Y-3662527D01*
X2222601Y-3651300D01*
X2220061Y-3640328D01*
X2215845Y-3629914D01*
X2210104Y-3620211D01*
X2202942Y-3611575D01*
X2194560Y-3604056D01*
X2185111Y-3597960D01*
X2174849Y-3593337D01*
X2163978Y-3590391D01*
X2152802Y-3589070D01*
X2141575Y-3589528D01*
X2130552Y-3591661D01*
X2119934Y-3595471D01*
X2110079Y-3600805D01*
X2101138Y-3607663D01*
X2094788Y-3614216D01*
X2091283Y-3616604D01*
X2087118Y-3617315D01*
X2082952Y-3616248D01*
X2079650Y-3613607D01*
X2077923Y-3611575D01*
X2069541Y-3604056D01*
X2060092Y-3597960D01*
X2049830Y-3593337D01*
X2038959Y-3590391D01*
X2027783Y-3589070D01*
X2016556Y-3589528D01*
X2005533Y-3591661D01*
X1994916Y-3595471D01*
X1985060Y-3600805D01*
X1976120Y-3607663D01*
X1968296Y-3615740D01*
X1961845Y-3624935D01*
X1956816Y-3635044D01*
X1953463Y-3645763D01*
X1951736Y-3656888D01*
X1951736Y-3668115D01*
X1952142Y-3670909D01*
X1952040Y-3674618D01*
X1950618Y-3678021D01*
X1948129Y-3680663D01*
X1944776Y-3682288D01*
X1941118Y-3682593D01*
X1938426Y-3682339D01*
X1849424Y-3682339D01*
X1840636Y-3683203D01*
X1833372Y-3685387D01*
X1830425Y-3685844D01*
X1827479Y-3685387D01*
X1820214Y-3683203D01*
X1811426Y-3682339D01*
X1722424Y-3682339D01*
X1713636Y-3683203D01*
X1706372Y-3685387D01*
X1703425Y-3685844D01*
X1700479Y-3685387D01*
X1693214Y-3683203D01*
X1684426Y-3682339D01*
X1595424Y-3682339D01*
X1586636Y-3683203D01*
X1579372Y-3685387D01*
X1576425Y-3685844D01*
X1573479Y-3685387D01*
X1566214Y-3683203D01*
X1557426Y-3682339D01*
X1468424Y-3682339D01*
X1459636Y-3683203D01*
X1452372Y-3685387D01*
X1449425Y-3685844D01*
X1446479Y-3685387D01*
X1439214Y-3683203D01*
X1430426Y-3682339D01*
X1341424Y-3682339D01*
X1332636Y-3683203D01*
X1325372Y-3685387D01*
X1322425Y-3685844D01*
X1319479Y-3685387D01*
X1312214Y-3683203D01*
X1303426Y-3682339D01*
X1214424Y-3682339D01*
X1205636Y-3683203D01*
X1198372Y-3685387D01*
X1195425Y-3685844D01*
X1192479Y-3685387D01*
X1185214Y-3683203D01*
X1176426Y-3682339D01*
X1087424Y-3682339D01*
X1083868Y-3682695D01*
X1079500Y-3682136D01*
X1075791Y-3679799D01*
X1073404Y-3676142D01*
X1072743Y-3671773D01*
X1073454Y-3662527D01*
X1072591Y-3651300D01*
X1070051Y-3640328D01*
X1065834Y-3629914D01*
X1060094Y-3620211D01*
X1052931Y-3611575D01*
X1044549Y-3604056D01*
X1035100Y-3597960D01*
X1024839Y-3593337D01*
X1013968Y-3590391D01*
X1002792Y-3589070D01*
X991565Y-3589528D01*
X975207Y-3592779D01*
X971448Y-3591915D01*
X968248Y-3589680D01*
X966165Y-3586429D01*
X965453Y-3582619D01*
X965453Y-3487877D01*
X964539Y-3475024D01*
X961847Y-3462832D01*
X957478Y-3451148D01*
X951534Y-3440176D01*
X944016Y-3430219D01*
X935228Y-3421379D01*
X925220Y-3413912D01*
X914247Y-3407918D01*
X902563Y-3403549D01*
X890371Y-3400907D01*
X877569Y-3399993D01*
X875385Y-3399993D01*
X862533Y-3400907D01*
X850341Y-3403549D01*
X838657Y-3407918D01*
X827684Y-3413912D01*
X817727Y-3421379D01*
X808888Y-3430219D01*
X801420Y-3440176D01*
X795426Y-3451148D01*
X791057Y-3462832D01*
X788416Y-3475024D01*
X787501Y-3487521D01*
X788416Y-3499967D01*
X790194Y-3508095D01*
X790397Y-3510229D01*
X790397Y-3672179D01*
X789635Y-3676040D01*
X787450Y-3679342D01*
X784148Y-3681577D01*
X779780Y-3682339D01*
X779780Y-3768496D01*
X784148Y-3769258D01*
X787450Y-3771442D01*
X789635Y-3774744D01*
X790397Y-3778656D01*
X790397Y-3871010D01*
X789635Y-3874922D01*
X787450Y-3878224D01*
X784148Y-3880408D01*
X779780Y-3881170D01*
X779780Y-3959453D01*
X800658Y-3959453D01*
X804367Y-3960164D01*
X807567Y-3962146D01*
X809802Y-3965194D01*
X810768Y-3968800D01*
X810412Y-3972560D01*
X808380Y-3979265D01*
X807516Y-3988003D01*
X807516Y-4062018D01*
X808380Y-4070807D01*
X810768Y-4078732D01*
X814730Y-4086098D01*
X820013Y-4092498D01*
X826414Y-4097782D01*
X829970Y-4100423D01*
X831850Y-4103573D01*
X832510Y-4107129D01*
X832510Y-4149598D01*
X831748Y-4153509D01*
X829513Y-4156811D01*
X826211Y-4158996D01*
X822350Y-4159758D01*
X776274Y-4159758D01*
X772363Y-4158996D01*
X769061Y-4156811D01*
X766876Y-4153509D01*
X766114Y-4149598D01*
X766114Y-4103624D01*
X702462Y-4103624D01*
X702462Y-4121759D01*
X703326Y-4130548D01*
X705713Y-4138523D01*
X709676Y-4145889D01*
X714959Y-4152290D01*
X717499Y-4154424D01*
X720242Y-4157929D01*
X721258Y-4162298D01*
X720242Y-4166615D01*
X717499Y-4170121D01*
X714959Y-4172254D01*
X709676Y-4178706D01*
X705713Y-4186021D01*
X703326Y-4193997D01*
X702462Y-4202785D01*
X702462Y-4301794D01*
X703326Y-4310583D01*
X705713Y-4318508D01*
X709676Y-4325874D01*
X714959Y-4332325D01*
X721360Y-4337608D01*
X728726Y-4341520D01*
X736650Y-4343908D01*
X745439Y-4344771D01*
X854456Y-4344771D01*
X863244Y-4343908D01*
X871219Y-4341520D01*
X878535Y-4337608D01*
X884986Y-4332325D01*
X890269Y-4325874D01*
X894181Y-4318508D01*
X895350Y-4314698D01*
X897432Y-4310938D01*
X900887Y-4308398D01*
X905052Y-4307484D01*
X936599Y-4307484D01*
X940155Y-4308144D01*
X943305Y-4310024D01*
X945540Y-4312869D01*
X947166Y-4315866D01*
X952398Y-4322318D01*
X958850Y-4327550D01*
X966216Y-4331512D01*
X974140Y-4333900D01*
X982929Y-4334764D01*
X1091946Y-4334764D01*
X1100734Y-4333900D01*
X1108710Y-4331512D01*
X1116025Y-4327550D01*
X1122476Y-4322318D01*
X1127760Y-4315866D01*
X1129334Y-4312869D01*
X1131620Y-4310024D01*
X1134719Y-4308144D01*
X1138326Y-4307484D01*
X1161592Y-4307484D01*
X1165148Y-4308144D01*
X1168247Y-4310024D01*
X1170533Y-4312869D01*
X1172108Y-4315866D01*
X1177391Y-4322318D01*
X1183843Y-4327550D01*
X1191209Y-4331512D01*
X1199134Y-4333900D01*
X1207922Y-4334764D01*
X1316939Y-4334764D01*
X1325727Y-4333900D01*
X1333703Y-4331512D01*
X1341018Y-4327550D01*
X1347470Y-4322318D01*
X1352753Y-4315866D01*
X1354328Y-4312869D01*
X1356614Y-4310024D01*
X1359712Y-4308144D01*
X1363319Y-4307484D01*
X1374292Y-4307484D01*
X1378204Y-4308246D01*
X1381506Y-4310481D01*
X1383690Y-4313783D01*
X1384452Y-4317644D01*
X1384452Y-4329988D01*
X1385366Y-4338777D01*
X1386027Y-4341012D01*
X1386433Y-4344517D01*
X1385620Y-4347972D01*
X1383690Y-4350969D01*
X1377391Y-4357624D01*
X1374241Y-4361738D01*
X1371955Y-4365345D01*
X1369872Y-4369511D01*
X1367180Y-4372813D01*
X1363421Y-4374743D01*
X1359154Y-4374946D01*
X1352702Y-4373880D01*
X1347622Y-4373626D01*
X1312214Y-4373626D01*
X1302207Y-4374540D01*
X1292910Y-4377029D01*
X1284173Y-4381093D01*
X1276299Y-4386580D01*
X1269492Y-4393387D01*
X1264005Y-4401261D01*
X1259941Y-4409998D01*
X1257452Y-4419295D01*
X1256588Y-4429302D01*
X1256588Y-4464710D01*
X1256792Y-4469790D01*
X1257808Y-4476038D01*
X1257604Y-4480255D01*
X1255674Y-4484014D01*
X1252423Y-4486656D01*
X1248308Y-4488738D01*
X1244295Y-4491329D01*
X1240485Y-4494276D01*
X1236776Y-4497679D01*
X1195171Y-4539284D01*
X1191869Y-4541469D01*
X1187958Y-4542231D01*
X1107948Y-4542231D01*
X1099159Y-4543094D01*
X1091184Y-4545533D01*
X1083868Y-4549444D01*
X1077417Y-4554728D01*
X1072134Y-4561179D01*
X1070406Y-4564430D01*
X1068120Y-4567275D01*
X1065022Y-4569155D01*
X1061415Y-4569815D01*
X970889Y-4569815D01*
X967333Y-4569155D01*
X964184Y-4567275D01*
X961948Y-4564430D01*
X960323Y-4561382D01*
X955040Y-4554982D01*
X948588Y-4549698D01*
X941273Y-4545787D01*
X933297Y-4543348D01*
X924509Y-4542485D01*
X875537Y-4542485D01*
X866749Y-4543348D01*
X858774Y-4545787D01*
X854811Y-4547870D01*
X851662Y-4548936D01*
X848360Y-4548936D01*
X845210Y-4547870D01*
X841248Y-4545787D01*
X833323Y-4543348D01*
X824534Y-4542485D01*
X775512Y-4542485D01*
X766724Y-4543348D01*
X758748Y-4545787D01*
X751433Y-4549698D01*
X745185Y-4554778D01*
X742188Y-4556506D01*
X738784Y-4557115D01*
X376529Y-4557115D01*
X372973Y-4556455D01*
X369925Y-4554626D01*
X367639Y-4551832D01*
X362051Y-4541672D01*
X352856Y-4528921D01*
X342290Y-4517339D01*
X330403Y-4507077D01*
X317398Y-4498340D01*
X303428Y-4491177D01*
X288696Y-4485690D01*
X273456Y-4481982D01*
X257860Y-4480153D01*
X242163Y-4480153D01*
X226567Y-4481982D01*
X211328Y-4485690D01*
X196596Y-4491177D01*
X182626Y-4498340D01*
X169621Y-4507077D01*
X157734Y-4517339D01*
X147116Y-4528921D01*
X137972Y-4541672D01*
X130403Y-4555439D01*
X124510Y-4569968D01*
X120345Y-4585106D01*
X118059Y-4600651D01*
X117551Y-4616348D01*
X118973Y-4631944D01*
X122174Y-4647336D01*
X127203Y-4662220D01*
X133959Y-4676394D01*
X142341Y-4689652D01*
X152247Y-4701844D01*
X163525Y-4712766D01*
X175971Y-4722317D01*
X186944Y-4728768D01*
X190093Y-4731715D01*
X191770Y-4735677D01*
X191668Y-4739944D01*
X189738Y-4743856D01*
X186436Y-4746548D01*
X182626Y-4748530D01*
X169621Y-4757267D01*
X157734Y-4767529D01*
X147116Y-4779111D01*
X137972Y-4791862D01*
X130403Y-4805629D01*
X124510Y-4820158D01*
X120345Y-4835296D01*
X118059Y-4850841D01*
X117551Y-4866538D01*
X118973Y-4882134D01*
X122174Y-4897526D01*
X127203Y-4912410D01*
X133959Y-4926584D01*
X142341Y-4939842D01*
X152247Y-4952034D01*
X163525Y-4962956D01*
X175971Y-4972507D01*
X189484Y-4980482D01*
X203860Y-4986782D01*
X218897Y-4991354D01*
X234340Y-4994148D01*
G37*
G36*
X5454396Y-4802581D02*
G01*
X5471160Y-4801209D01*
X5487619Y-4797958D01*
X5503672Y-4792929D01*
X5519064Y-4786223D01*
X5533593Y-4777790D01*
X5547156Y-4767834D01*
X5559501Y-4756454D01*
X5570524Y-4743805D01*
X5580126Y-4729988D01*
X5588101Y-4715205D01*
X5594400Y-4699660D01*
X5598972Y-4683506D01*
X5601766Y-4666894D01*
X5602681Y-4650130D01*
X5601766Y-4633366D01*
X5598972Y-4616805D01*
X5594400Y-4600651D01*
X5588101Y-4585055D01*
X5580126Y-4570272D01*
X5570524Y-4556506D01*
X5559501Y-4543806D01*
X5547156Y-4532426D01*
X5533593Y-4522470D01*
X5519064Y-4514088D01*
X5503672Y-4507331D01*
X5487619Y-4502302D01*
X5471160Y-4499102D01*
X5454396Y-4497730D01*
X5437581Y-4498187D01*
X5420969Y-4500473D01*
X5404662Y-4504588D01*
X5388914Y-4510481D01*
X5373928Y-4518101D01*
X5359857Y-4527296D01*
X5346903Y-4537964D01*
X5335219Y-4550003D01*
X5324856Y-4563262D01*
X5316067Y-4577588D01*
X5308904Y-4592777D01*
X5303469Y-4608626D01*
X5299760Y-4625035D01*
X5297932Y-4641748D01*
X5297932Y-4658563D01*
X5299760Y-4675225D01*
X5303469Y-4691634D01*
X5308904Y-4707534D01*
X5316067Y-4722723D01*
X5324856Y-4737049D01*
X5335219Y-4750308D01*
X5346903Y-4762347D01*
X5359857Y-4773015D01*
X5373928Y-4782210D01*
X5388914Y-4789779D01*
X5404662Y-4795672D01*
X5420969Y-4799787D01*
X5437581Y-4802124D01*
G37*
G36*
X5954369Y-4802581D02*
G01*
X5971133Y-4801209D01*
X5987643Y-4797958D01*
X6003645Y-4792929D01*
X6019038Y-4786223D01*
X6033617Y-4777790D01*
X6047130Y-4767834D01*
X6059474Y-4756454D01*
X6070549Y-4743805D01*
X6080099Y-4729988D01*
X6088075Y-4715205D01*
X6094425Y-4699660D01*
X6098997Y-4683506D01*
X6101740Y-4666894D01*
X6102705Y-4650130D01*
X6101740Y-4633366D01*
X6098997Y-4616805D01*
X6094425Y-4600651D01*
X6088075Y-4585055D01*
X6080099Y-4570272D01*
X6070549Y-4556506D01*
X6059474Y-4543806D01*
X6047130Y-4532426D01*
X6033617Y-4522470D01*
X6019038Y-4514088D01*
X6003645Y-4507331D01*
X5987643Y-4502302D01*
X5971133Y-4499102D01*
X5954369Y-4497730D01*
X5937605Y-4498187D01*
X5920943Y-4500473D01*
X5904687Y-4504588D01*
X5888939Y-4510481D01*
X5873953Y-4518101D01*
X5859881Y-4527296D01*
X5846927Y-4537964D01*
X5835192Y-4550003D01*
X5824880Y-4563262D01*
X5816092Y-4577588D01*
X5808929Y-4592777D01*
X5803442Y-4608626D01*
X5799785Y-4625035D01*
X5797956Y-4641748D01*
X5797956Y-4658563D01*
X5799785Y-4675225D01*
X5803442Y-4691634D01*
X5808929Y-4707534D01*
X5816092Y-4722723D01*
X5824880Y-4737049D01*
X5835192Y-4750308D01*
X5846927Y-4762347D01*
X5859881Y-4773015D01*
X5873953Y-4782210D01*
X5888939Y-4789779D01*
X5904687Y-4795672D01*
X5920943Y-4799787D01*
X5937605Y-4802124D01*
G37*
G36*
X3854196Y-4802428D02*
G01*
X3870960Y-4801057D01*
X3887419Y-4797806D01*
X3903472Y-4792776D01*
X3918864Y-4786071D01*
X3933393Y-4777638D01*
X3946956Y-4767681D01*
X3959301Y-4756302D01*
X3970324Y-4743653D01*
X3979926Y-4729835D01*
X3987901Y-4715052D01*
X3994200Y-4699508D01*
X3998772Y-4683353D01*
X4001566Y-4666742D01*
X4002481Y-4649978D01*
X4001566Y-4633214D01*
X3998772Y-4616653D01*
X3994200Y-4600498D01*
X3987901Y-4584903D01*
X3979926Y-4570120D01*
X3970324Y-4556353D01*
X3959301Y-4543653D01*
X3946956Y-4532274D01*
X3933393Y-4522317D01*
X3918864Y-4513935D01*
X3903472Y-4507179D01*
X3887419Y-4502150D01*
X3870960Y-4498949D01*
X3854196Y-4497578D01*
X3837381Y-4498035D01*
X3820769Y-4500321D01*
X3804462Y-4504436D01*
X3788714Y-4510328D01*
X3773728Y-4517948D01*
X3759657Y-4527143D01*
X3746703Y-4537811D01*
X3735019Y-4549851D01*
X3724656Y-4563110D01*
X3715867Y-4577435D01*
X3708704Y-4592624D01*
X3703269Y-4608474D01*
X3699560Y-4624882D01*
X3697732Y-4641596D01*
X3697732Y-4658410D01*
X3699560Y-4675073D01*
X3703269Y-4691481D01*
X3708704Y-4707382D01*
X3715867Y-4722571D01*
X3724656Y-4736896D01*
X3735019Y-4750155D01*
X3746703Y-4762195D01*
X3759657Y-4772863D01*
X3773728Y-4782058D01*
X3788714Y-4789627D01*
X3804462Y-4795520D01*
X3820769Y-4799634D01*
X3837381Y-4801971D01*
G37*
G36*
X4354169Y-4802428D02*
G01*
X4370933Y-4801057D01*
X4387443Y-4797806D01*
X4403445Y-4792776D01*
X4418838Y-4786071D01*
X4433417Y-4777638D01*
X4446930Y-4767681D01*
X4459274Y-4756302D01*
X4470349Y-4743653D01*
X4479899Y-4729835D01*
X4487875Y-4715052D01*
X4494225Y-4699508D01*
X4498797Y-4683353D01*
X4501540Y-4666742D01*
X4502505Y-4649978D01*
X4501540Y-4633214D01*
X4498797Y-4616653D01*
X4494225Y-4600498D01*
X4487875Y-4584903D01*
X4479899Y-4570120D01*
X4470349Y-4556353D01*
X4459274Y-4543653D01*
X4446930Y-4532274D01*
X4433417Y-4522317D01*
X4418838Y-4513935D01*
X4403445Y-4507179D01*
X4387443Y-4502150D01*
X4370933Y-4498949D01*
X4354169Y-4497578D01*
X4337405Y-4498035D01*
X4320743Y-4500321D01*
X4304487Y-4504436D01*
X4288739Y-4510328D01*
X4273753Y-4517948D01*
X4259681Y-4527143D01*
X4246727Y-4537811D01*
X4234992Y-4549851D01*
X4224680Y-4563110D01*
X4215892Y-4577435D01*
X4208729Y-4592624D01*
X4203242Y-4608474D01*
X4199585Y-4624882D01*
X4197756Y-4641596D01*
X4197756Y-4658410D01*
X4199585Y-4675073D01*
X4203242Y-4691481D01*
X4208729Y-4707382D01*
X4215892Y-4722571D01*
X4224680Y-4736896D01*
X4234992Y-4750155D01*
X4246727Y-4762195D01*
X4259681Y-4772863D01*
X4273753Y-4782058D01*
X4288739Y-4789627D01*
X4304487Y-4795520D01*
X4320743Y-4799634D01*
X4337405Y-4801971D01*
G37*
G36*
X2688640Y-4789576D02*
G01*
X2688640Y-4711344D01*
X2610561Y-4711344D01*
X2615895Y-4722571D01*
X2624683Y-4736896D01*
X2634996Y-4750155D01*
X2646730Y-4762195D01*
X2659684Y-4772863D01*
X2673756Y-4782058D01*
G37*
G36*
X2811322Y-4789322D02*
G01*
X2818841Y-4786071D01*
X2833420Y-4777638D01*
X2846933Y-4767681D01*
X2859278Y-4756302D01*
X2870352Y-4743653D01*
X2879902Y-4729835D01*
X2887878Y-4715052D01*
X2889402Y-4711344D01*
X2811322Y-4711344D01*
G37*
G36*
X2811322Y-4588662D02*
G01*
X2889402Y-4588662D01*
X2887878Y-4584903D01*
X2879902Y-4570120D01*
X2870352Y-4556353D01*
X2859278Y-4543653D01*
X2846933Y-4532274D01*
X2833420Y-4522317D01*
X2818841Y-4513935D01*
X2811322Y-4510633D01*
G37*
G36*
X2610561Y-4588662D02*
G01*
X2688640Y-4588662D01*
X2688640Y-4510379D01*
X2673756Y-4517948D01*
X2659684Y-4527143D01*
X2646730Y-4537811D01*
X2634996Y-4549851D01*
X2624683Y-4563110D01*
X2615895Y-4577435D01*
G37*
G36*
X5954369Y-4302556D02*
G01*
X5971133Y-4301185D01*
X5987643Y-4297984D01*
X6003645Y-4292955D01*
X6019038Y-4286199D01*
X6033617Y-4277817D01*
X6047130Y-4267860D01*
X6059474Y-4256481D01*
X6070549Y-4243781D01*
X6080099Y-4230014D01*
X6088075Y-4215231D01*
X6094425Y-4199636D01*
X6098997Y-4183481D01*
X6101740Y-4166920D01*
X6102705Y-4150156D01*
X6101740Y-4133392D01*
X6098997Y-4116781D01*
X6094425Y-4100626D01*
X6088075Y-4085082D01*
X6080099Y-4070299D01*
X6070549Y-4056481D01*
X6059474Y-4043832D01*
X6047130Y-4032453D01*
X6033617Y-4022496D01*
X6019038Y-4014063D01*
X6003645Y-4007358D01*
X5987643Y-4002328D01*
X5971133Y-3999077D01*
X5954369Y-3997706D01*
X5937605Y-3998163D01*
X5920943Y-4000500D01*
X5904687Y-4004614D01*
X5888939Y-4010507D01*
X5873953Y-4018076D01*
X5859881Y-4027271D01*
X5846927Y-4037939D01*
X5835192Y-4049979D01*
X5824880Y-4063237D01*
X5816092Y-4077563D01*
X5808929Y-4092752D01*
X5803442Y-4108653D01*
X5799785Y-4125061D01*
X5797956Y-4141724D01*
X5797956Y-4158538D01*
X5799785Y-4175251D01*
X5803442Y-4191660D01*
X5808929Y-4207510D01*
X5816092Y-4222699D01*
X5824880Y-4237024D01*
X5835192Y-4250283D01*
X5846927Y-4262323D01*
X5859881Y-4272991D01*
X5873953Y-4282186D01*
X5888939Y-4289806D01*
X5904687Y-4295698D01*
X5920943Y-4299813D01*
X5937605Y-4302099D01*
G37*
G36*
X4354169Y-4302404D02*
G01*
X4370933Y-4301032D01*
X4387443Y-4297832D01*
X4403445Y-4292803D01*
X4418838Y-4286046D01*
X4433417Y-4277664D01*
X4446930Y-4267708D01*
X4459274Y-4256328D01*
X4470349Y-4243628D01*
X4479899Y-4229862D01*
X4487875Y-4215079D01*
X4494225Y-4199483D01*
X4498797Y-4183329D01*
X4501540Y-4166768D01*
X4502505Y-4150004D01*
X4501540Y-4133240D01*
X4498797Y-4116628D01*
X4494225Y-4100474D01*
X4487875Y-4084929D01*
X4479899Y-4070146D01*
X4470349Y-4056329D01*
X4459274Y-4043679D01*
X4446930Y-4032300D01*
X4433417Y-4022344D01*
X4418838Y-4013911D01*
X4403445Y-4007205D01*
X4387443Y-4002176D01*
X4370933Y-3998925D01*
X4354169Y-3997553D01*
X4337405Y-3998010D01*
X4320743Y-4000347D01*
X4304487Y-4004462D01*
X4288739Y-4010355D01*
X4273753Y-4017924D01*
X4259681Y-4027119D01*
X4246727Y-4037787D01*
X4234992Y-4049826D01*
X4224680Y-4063085D01*
X4215892Y-4077411D01*
X4208729Y-4092600D01*
X4203242Y-4108500D01*
X4199585Y-4124909D01*
X4197756Y-4141571D01*
X4197756Y-4158386D01*
X4199585Y-4175099D01*
X4203242Y-4191508D01*
X4208729Y-4207357D01*
X4215892Y-4222546D01*
X4224680Y-4236872D01*
X4234992Y-4250131D01*
X4246727Y-4262170D01*
X4259681Y-4272838D01*
X4273753Y-4282033D01*
X4288739Y-4289653D01*
X4304487Y-4295546D01*
X4320743Y-4299661D01*
X4337405Y-4301947D01*
G37*
G36*
X5388864Y-4289755D02*
G01*
X5388864Y-4211472D01*
X5310784Y-4211472D01*
X5316067Y-4222699D01*
X5324856Y-4237024D01*
X5335219Y-4250283D01*
X5346903Y-4262323D01*
X5359857Y-4272991D01*
X5373928Y-4282186D01*
G37*
G36*
X3788664Y-4289602D02*
G01*
X3788664Y-4211320D01*
X3710584Y-4211320D01*
X3715867Y-4222546D01*
X3724656Y-4236872D01*
X3735019Y-4250131D01*
X3746703Y-4262170D01*
X3759657Y-4272838D01*
X3773728Y-4282033D01*
G37*
G36*
X5511546Y-4289501D02*
G01*
X5519064Y-4286199D01*
X5533593Y-4277817D01*
X5547156Y-4267860D01*
X5559501Y-4256481D01*
X5570524Y-4243781D01*
X5580126Y-4230014D01*
X5588101Y-4215231D01*
X5589625Y-4211472D01*
X5511546Y-4211472D01*
G37*
G36*
X3911346Y-4289348D02*
G01*
X3918864Y-4286046D01*
X3933393Y-4277664D01*
X3946956Y-4267708D01*
X3959301Y-4256328D01*
X3970324Y-4243628D01*
X3979926Y-4229862D01*
X3987901Y-4215079D01*
X3989425Y-4211320D01*
X3911346Y-4211320D01*
G37*
G36*
X5511546Y-4088790D02*
G01*
X5589625Y-4088790D01*
X5588101Y-4085082D01*
X5580126Y-4070299D01*
X5570524Y-4056481D01*
X5559501Y-4043832D01*
X5547156Y-4032453D01*
X5533593Y-4022496D01*
X5519064Y-4014063D01*
X5511546Y-4010812D01*
G37*
G36*
X5310784Y-4088790D02*
G01*
X5388864Y-4088790D01*
X5388864Y-4010558D01*
X5373928Y-4018076D01*
X5359857Y-4027271D01*
X5346903Y-4037939D01*
X5335219Y-4049979D01*
X5324856Y-4063237D01*
X5316067Y-4077563D01*
G37*
G36*
X3911346Y-4088637D02*
G01*
X3989425Y-4088637D01*
X3987901Y-4084929D01*
X3979926Y-4070146D01*
X3970324Y-4056329D01*
X3959301Y-4043679D01*
X3946956Y-4032300D01*
X3933393Y-4022344D01*
X3918864Y-4013911D01*
X3911346Y-4010660D01*
G37*
G36*
X3710584Y-4088637D02*
G01*
X3788664Y-4088637D01*
X3788664Y-4010406D01*
X3773728Y-4017924D01*
X3759657Y-4027119D01*
X3746703Y-4037787D01*
X3735019Y-4049826D01*
X3724656Y-4063085D01*
X3715867Y-4077411D01*
G37*
G36*
X702462Y-4040936D02*
G01*
X766114Y-4040936D01*
X766114Y-3987647D01*
X732231Y-3987647D01*
X728319Y-3986885D01*
X724814Y-3984345D01*
X714959Y-3992270D01*
X709676Y-3998671D01*
X705713Y-4006037D01*
X703326Y-4014012D01*
X702462Y-4022801D01*
G37*
G36*
X722071Y-3968445D02*
G01*
X722071Y-3881170D01*
X663397Y-3881170D01*
X663397Y-3924350D01*
X664260Y-3933139D01*
X666699Y-3941064D01*
X670610Y-3948429D01*
X675894Y-3954830D01*
X682345Y-3960114D01*
X689660Y-3964076D01*
X697636Y-3966464D01*
X706424Y-3967327D01*
X717550Y-3967327D01*
G37*
G36*
X663397Y-3768496D02*
G01*
X722071Y-3768496D01*
X722071Y-3682339D01*
X706424Y-3682339D01*
X697636Y-3683203D01*
X689660Y-3685590D01*
X682345Y-3689553D01*
X675894Y-3694836D01*
X670610Y-3701237D01*
X666699Y-3708603D01*
X664260Y-3716528D01*
X663397Y-3725316D01*
G37*
G36*
X2424430Y-3633825D02*
G01*
X2467559Y-3633825D01*
X2467559Y-3575202D01*
X2381402Y-3575202D01*
X2381402Y-3590848D01*
X2382266Y-3599637D01*
X2384704Y-3607612D01*
X2388616Y-3614928D01*
X2393899Y-3621379D01*
X2400350Y-3626662D01*
X2407666Y-3630574D01*
X2415641Y-3632962D01*
G37*
G36*
X2580284Y-3633825D02*
G01*
X2623413Y-3633825D01*
X2632202Y-3632962D01*
X2640177Y-3630574D01*
X2647492Y-3626662D01*
X2653944Y-3621379D01*
X2659227Y-3614928D01*
X2663139Y-3607612D01*
X2665577Y-3599637D01*
X2666441Y-3590848D01*
X2666441Y-3575202D01*
X2580284Y-3575202D01*
G37*
G36*
X1255725Y-3369056D02*
G01*
X1373886Y-3369056D01*
X1373886Y-3207867D01*
X1212697Y-3207867D01*
X1212697Y-3326028D01*
X1213561Y-3334816D01*
X1215999Y-3342792D01*
X1219911Y-3350107D01*
X1225194Y-3356559D01*
X1231646Y-3361842D01*
X1238961Y-3365754D01*
X1246936Y-3368192D01*
G37*
G36*
X1636572Y-3369056D02*
G01*
X1754733Y-3369056D01*
X1763522Y-3368192D01*
X1771446Y-3365754D01*
X1778812Y-3361842D01*
X1785213Y-3356559D01*
X1790496Y-3350107D01*
X1794459Y-3342792D01*
X1796846Y-3334816D01*
X1797710Y-3326028D01*
X1797710Y-3207867D01*
X1636572Y-3207867D01*
G37*
G36*
X1636572Y-2945180D02*
G01*
X1797710Y-2945180D01*
X1797710Y-2827020D01*
X1796846Y-2818282D01*
X1794459Y-2810306D01*
X1790496Y-2802940D01*
X1785213Y-2796540D01*
X1778812Y-2791256D01*
X1771446Y-2787294D01*
X1763522Y-2784906D01*
X1754733Y-2784043D01*
X1636572Y-2784043D01*
G37*
G36*
X1212697Y-2945180D02*
G01*
X1373886Y-2945180D01*
X1373886Y-2784043D01*
X1255725Y-2784043D01*
X1246936Y-2784906D01*
X1238961Y-2787294D01*
X1231646Y-2791256D01*
X1225194Y-2796540D01*
X1219911Y-2802940D01*
X1215999Y-2810306D01*
X1213561Y-2818282D01*
X1212697Y-2827020D01*
G37*
G36*
X3308654Y-2384907D02*
G01*
X3329330Y-2384907D01*
X3338118Y-2384044D01*
X3346094Y-2381605D01*
X3353409Y-2377694D01*
X3359861Y-2372410D01*
X3365144Y-2365959D01*
X3369056Y-2358644D01*
X3371443Y-2350668D01*
X3372358Y-2341880D01*
X3372358Y-2323744D01*
X3308654Y-2323744D01*
G37*
G36*
X3220313Y-2384907D02*
G01*
X3240989Y-2384907D01*
X3240989Y-2323744D01*
X3177336Y-2323744D01*
X3177336Y-2341880D01*
X3178200Y-2350668D01*
X3180588Y-2358644D01*
X3184499Y-2365959D01*
X3189782Y-2372410D01*
X3196234Y-2377694D01*
X3203600Y-2381605D01*
X3211525Y-2384044D01*
G37*
G36*
X5052822Y-1548434D02*
G01*
X5063998Y-1547114D01*
X5074818Y-1544167D01*
X5085080Y-1539544D01*
X5094528Y-1533448D01*
X5102910Y-1525930D01*
X5110073Y-1517294D01*
X5115864Y-1507591D01*
X5120030Y-1497177D01*
X5122621Y-1486204D01*
X5123281Y-1477467D01*
X5124094Y-1474165D01*
X5125923Y-1471320D01*
X5128615Y-1469288D01*
X5136032Y-1465275D01*
X5142484Y-1460042D01*
X5147767Y-1453591D01*
X5151678Y-1446225D01*
X5154117Y-1438300D01*
X5154980Y-1429512D01*
X5154980Y-1360474D01*
X5154117Y-1351737D01*
X5151678Y-1343761D01*
X5147767Y-1336395D01*
X5142484Y-1329994D01*
X5136032Y-1324711D01*
X5128717Y-1320749D01*
X5120741Y-1318361D01*
X5111953Y-1317498D01*
X4987950Y-1317498D01*
X4979162Y-1318361D01*
X4971237Y-1320749D01*
X4963871Y-1324711D01*
X4957419Y-1329994D01*
X4952187Y-1336395D01*
X4948224Y-1343761D01*
X4945837Y-1351737D01*
X4944973Y-1360474D01*
X4944973Y-1429512D01*
X4945837Y-1438300D01*
X4948224Y-1446225D01*
X4952187Y-1453591D01*
X4957419Y-1460042D01*
X4963871Y-1465275D01*
X4971389Y-1469288D01*
X4974234Y-1471574D01*
X4976114Y-1474673D01*
X4976774Y-1478280D01*
X4976774Y-1480616D01*
X4978450Y-1491742D01*
X4981854Y-1502460D01*
X4986832Y-1512570D01*
X4993335Y-1521764D01*
X5001107Y-1529842D01*
X5010048Y-1536649D01*
X5019954Y-1542034D01*
X5030520Y-1545844D01*
X5041595Y-1547977D01*
G37*
G36*
X1943862Y-1277518D02*
G01*
X1974494Y-1277518D01*
X1983282Y-1276654D01*
X1991258Y-1274216D01*
X1998573Y-1270304D01*
X2005025Y-1265021D01*
X2010308Y-1258570D01*
X2014220Y-1251254D01*
X2016658Y-1243279D01*
X2017522Y-1234490D01*
X2017522Y-1218844D01*
X1943862Y-1218844D01*
G37*
G36*
X1943862Y-1161135D02*
G01*
X2017522Y-1161135D01*
X2017522Y-1145489D01*
X2016658Y-1136700D01*
X2014220Y-1128776D01*
X2010308Y-1121410D01*
X2005025Y-1114958D01*
X1998573Y-1109675D01*
X1991258Y-1105763D01*
X1983282Y-1103376D01*
X1974494Y-1102512D01*
X1943862Y-1102512D01*
G37*
G36*
X2762859Y-445008D02*
G01*
X2780995Y-445008D01*
X2780995Y-370078D01*
X2719832Y-370078D01*
X2719832Y-401980D01*
X2720695Y-410768D01*
X2723134Y-418744D01*
X2727045Y-426059D01*
X2732328Y-432511D01*
X2738780Y-437794D01*
X2746095Y-441706D01*
X2754071Y-444144D01*
G37*
G36*
X2219350Y-430784D02*
G01*
X2224481Y-428802D01*
X2237384Y-421893D01*
X2249271Y-413461D01*
X2260092Y-403606D01*
X2269591Y-392480D01*
X2277668Y-380288D01*
X2284171Y-367233D01*
X2284831Y-365404D01*
X2219350Y-365404D01*
G37*
G36*
X2130450Y-430784D02*
G01*
X2130450Y-365404D01*
X2064969Y-365404D01*
X2065578Y-367233D01*
X2072081Y-380288D01*
X2080158Y-392480D01*
X2089657Y-403606D01*
X2100478Y-413461D01*
X2112416Y-421893D01*
X2125268Y-428802D01*
G37*
G36*
X3443681Y-279908D02*
G01*
X3504844Y-279908D01*
X3504844Y-248005D01*
X3503980Y-239217D01*
X3501542Y-231241D01*
X3497630Y-223875D01*
X3492347Y-217474D01*
X3485896Y-212191D01*
X3478580Y-208279D01*
X3470605Y-205841D01*
X3461816Y-204978D01*
X3443681Y-204978D01*
G37*
G36*
X2719832Y-279908D02*
G01*
X2780995Y-279908D01*
X2780995Y-204978D01*
X2762859Y-204978D01*
X2754071Y-205841D01*
X2746095Y-208279D01*
X2738780Y-212191D01*
X2732328Y-217474D01*
X2727045Y-223875D01*
X2723134Y-231241D01*
X2720695Y-239217D01*
X2719832Y-248005D01*
G37*
G36*
X2065070Y-276504D02*
G01*
X2130450Y-276504D01*
X2130450Y-211023D01*
X2118715Y-216408D01*
X2106320Y-224078D01*
X2094941Y-233273D01*
X2084730Y-243738D01*
X2075942Y-255422D01*
X2068626Y-268071D01*
G37*
G36*
X2219350Y-276504D02*
G01*
X2284730Y-276504D01*
X2281123Y-268071D01*
X2273808Y-255422D01*
X2265019Y-243738D01*
X2254859Y-233273D01*
X2243480Y-224078D01*
X2231034Y-216408D01*
X2219350Y-211023D01*
G37*

%LPD*%
G36*
X1378356Y-4711293D02*
G01*
X1374292Y-4710684D01*
X1370787Y-4708499D01*
X1368450Y-4705146D01*
X1367637Y-4701133D01*
X1367637Y-4689500D01*
X1368399Y-4685588D01*
X1370584Y-4682337D01*
X1390142Y-4662779D01*
X1393444Y-4660544D01*
X1397355Y-4659782D01*
X1401216Y-4660544D01*
X1404518Y-4662779D01*
X1406753Y-4666030D01*
X1407515Y-4669942D01*
X1407515Y-4676038D01*
X1406550Y-4680356D01*
X1403807Y-4683861D01*
X1396949Y-4689500D01*
X1391666Y-4695901D01*
X1385570Y-4707686D01*
X1382318Y-4710226D01*
G37*

%LPD*%
D10*
X3212312Y-324993D02*
G01*
X3187339Y-324993D01*
X3187339Y-615063D01*
X2957322Y-615187D02*
G01*
X2987293Y-584962D01*
X2987293Y-324865D01*
X3012440Y-324865D01*
D11*
X3802125Y-1300226D02*
G01*
X3374821Y-1299931D01*
X4302252Y-1299971D02*
G01*
X3802379Y-1299971D01*
X3802125Y-1300226D01*
D12*
X3274822Y-2132329D02*
G01*
X2605024Y-2132329D01*
X2474975Y-2262378D01*
X2274823Y-2262378D01*
X2274823Y-2124963D01*
D13*
X2392349Y-1224940D02*
G01*
X2392349Y-1395653D01*
X2264996Y-1523006D01*
X2264918Y-1522984D02*
G01*
X2201926Y-1459992D01*
X1899920Y-1459992D01*
X1012444Y-912444D02*
G01*
X1012444Y-937450D01*
X381000Y-937450D01*
X381000Y-1007107D01*
D14*
X7975091Y-2549905D02*
G01*
X7975091Y-2674873D01*
X8514334Y-3408934D01*
D12*
X2264994Y-1777009D02*
G01*
X2227013Y-1814990D01*
X2000001Y-1814990D01*
X877925Y-3824833D02*
G01*
X877925Y-3965295D01*
X912365Y-3999737D01*
X912365Y-4252211D01*
X1765045Y-3899662D02*
G01*
X1765045Y-3964939D01*
X1882394Y-4082287D01*
X2024887Y-4082287D01*
X2275078Y-4174997D02*
G01*
X2087371Y-3987292D01*
X1912365Y-3987292D01*
X1892045Y-3966971D01*
X1892045Y-3899662D01*
X1162304Y-4814823D02*
G01*
X1272539Y-4814823D01*
X1312418Y-4774945D01*
X1312418Y-4662423D01*
X1537462Y-4437379D01*
X1624837Y-4437379D01*
X1713484Y-4348734D01*
X1713484Y-4252976D01*
X1840484Y-4252976D02*
G01*
X1840484Y-4321810D01*
X1662176Y-4500118D01*
X1575054Y-4500118D01*
X1374902Y-4700015D01*
X1374902Y-4800092D01*
X1362455Y-4812537D01*
X1460949Y-4798461D02*
G01*
X1460949Y-4716927D01*
X1613857Y-4564019D01*
X1700979Y-4564019D01*
X1926277Y-4338721D01*
X2339027Y-4338721D01*
X2438849Y-4238899D01*
X2438849Y-4113677D01*
X2274511Y-3949339D01*
X2274511Y-3901079D01*
X2499868Y-4174997D02*
G01*
X2499868Y-4262628D01*
X2362707Y-4399787D01*
X1962404Y-4399787D01*
X1737105Y-4625086D01*
X1662429Y-4625086D01*
X1586484Y-4701031D01*
X1586484Y-4797044D01*
X1713484Y-4797044D02*
G01*
X1713484Y-4711445D01*
X1737613Y-4687570D01*
X1774697Y-4687570D01*
X1999742Y-4462526D01*
X2387600Y-4462526D01*
X2562352Y-4287773D01*
X2562352Y-4112260D01*
X2400045Y-3949954D01*
X2400045Y-3899662D01*
X1162441Y-4634743D02*
G01*
X1152707Y-4625009D01*
X899998Y-4625009D01*
X1162428Y-4814745D02*
G01*
X1139667Y-4837506D01*
X899998Y-4837506D01*
X1437500Y-4375000D02*
G01*
X1419720Y-4393034D01*
X1419720Y-4464918D01*
X1383649Y-4464918D01*
X1347838Y-4428853D01*
X1311770Y-4428853D01*
X1311770Y-4464918D01*
X1347838Y-4500730D01*
X1347838Y-4536546D01*
X1275953Y-4536546D01*
X1177762Y-4634737D01*
X1162430Y-4634737D01*
D10*
X799998Y-4837506D02*
G01*
X271198Y-4837506D01*
X250012Y-4858692D01*
X799998Y-4625009D02*
G01*
X266522Y-4625009D01*
X250012Y-4608499D01*
D14*
X7724902Y-2549905D02*
G01*
X7724902Y-4249928D01*
X7849870Y-4374895D01*
D12*
X4052061Y-1205229D02*
G01*
X4052061Y-798068D01*
X3883913Y-629920D01*
D13*
X1200203Y-1460251D02*
G01*
X381025Y-1460251D01*
X381025Y-1403197D01*
X1200205Y-1190246D02*
G01*
X1212443Y-1190246D01*
X1212443Y-912444D01*
D15*
X10074909Y-3258565D02*
G01*
X9421113Y-3258565D01*
X8712454Y-2549905D01*
X8253984Y-2549905D01*
D12*
X1099997Y-2424988D02*
G01*
X1062530Y-2424988D01*
X875792Y-2238250D01*
X875792Y-2050795D01*
X1075004Y-2299995D02*
G01*
X1062509Y-2299995D01*
X1004925Y-2242413D01*
X1004925Y-2124862D01*
D13*
X875004Y-3487496D02*
G01*
X877925Y-3487496D01*
X877925Y-3824833D01*
D12*
X2150008Y-3662502D02*
G01*
X2150008Y-3895613D01*
X2145835Y-3899786D01*
X799947Y-4072280D02*
G01*
X799947Y-4024790D01*
X748972Y-4024790D01*
X748972Y-3899557D01*
X1257045Y-2050542D02*
G01*
X1257045Y-1917954D01*
X1549907Y-1625092D01*
X1549907Y-674878D01*
X1345437Y-470407D01*
X1345437Y-400050D01*
X1130045Y-2050542D02*
G01*
X1130045Y-1919986D01*
X1474978Y-1575054D01*
X1474978Y-724915D01*
X1150112Y-400050D01*
X1091437Y-400050D01*
X837437Y-400050D02*
G01*
X987297Y-549910D01*
X1187450Y-549910D01*
X1400047Y-762507D01*
X1400047Y-1525015D01*
X1087373Y-1837436D01*
X1074928Y-1837436D01*
X1345437Y-146050D02*
G01*
X1345437Y-182879D01*
X1625092Y-462534D01*
X1625092Y-1625092D01*
X1925065Y-1925065D01*
X2400045Y-1925065D01*
X2400045Y-2050542D01*
X3285009Y-1777006D02*
G01*
X3274822Y-1787194D01*
X3274822Y-2132380D01*
X1262430Y-4082287D02*
G01*
X1305209Y-4082287D01*
X1387711Y-3999786D01*
X1512415Y-3999786D01*
D16*
X7100315Y-4629150D02*
G01*
X6404102Y-4629150D01*
D17*
X9035592Y-4841036D02*
G01*
X9541154Y-4841036D01*
X9549993Y-4849876D01*
D16*
X8139938Y-3624834D02*
G01*
X8514334Y-3408934D01*
D18*
X7975091Y-2549903D02*
G01*
X7975091Y-1175004D01*
X10075011Y-1175004D01*
X10075011Y-1178890D01*
D11*
X4802124Y-1299971D02*
G01*
X4302506Y-1299971D01*
X4302252Y-1299971D01*
D12*
X4135500Y-602513D02*
G01*
X4135500Y-1010290D01*
X4325106Y-1199895D01*
X4547108Y-1199895D01*
X4552193Y-1204973D01*
X4899736Y-2292375D02*
G01*
X4899736Y-2399863D01*
X4899919Y-2400045D01*
X5052057Y-1394965D02*
G01*
X5052057Y-1472948D01*
X5050002Y-1475003D01*
X4649749Y-2292375D02*
G01*
X4649749Y-2400045D01*
X4649972Y-2400045D01*
X4649972Y-1000000D02*
G01*
X4649972Y-1112220D01*
X4649749Y-1112443D01*
X4387265Y-2292375D02*
G01*
X4387265Y-2400045D01*
X4400041Y-2400045D01*
X4400301Y-1000000D02*
G01*
X4400301Y-1111905D01*
X4399762Y-1112443D01*
X4552193Y-1394965D02*
G01*
X4552193Y-1472813D01*
X4550003Y-1475003D01*
X4052056Y-1395219D02*
G01*
X4052056Y-1472951D01*
X4050004Y-1475003D01*
X3750058Y-1000000D02*
G01*
X3750058Y-1112443D01*
X3749802Y-1112443D01*
X4899919Y-1899920D02*
G01*
X4899919Y-2132197D01*
X4899736Y-2132380D01*
X4900165Y-2132810D01*
X4900165Y-2150107D01*
X4645919Y-1899920D02*
G01*
X4645919Y-2128550D01*
X4649749Y-2132380D01*
X4649972Y-2132604D01*
X4649972Y-2150361D01*
X4391919Y-1899920D02*
G01*
X4391919Y-2127727D01*
X4387265Y-2132380D01*
X4137919Y-1899920D02*
G01*
X4137919Y-2131740D01*
X4137279Y-2132380D01*
X3883919Y-1899920D02*
G01*
X3883919Y-2116510D01*
X3899788Y-2132380D01*
X5052057Y-1204973D02*
G01*
X5052057Y-1202184D01*
X4897500Y-1047628D01*
X4897500Y-602513D01*
X4649972Y-860046D02*
G01*
X4649972Y-608985D01*
X4643500Y-602513D01*
X4400301Y-860046D02*
G01*
X4400301Y-613313D01*
X4389500Y-602513D01*
X3750056Y-860044D02*
G01*
X3750056Y-750062D01*
X3629913Y-629920D01*
X4137273Y-2292375D02*
G01*
X4149775Y-2292375D01*
X4149775Y-2292375D01*
X4137279Y-2304869D01*
X4137279Y-2399868D01*
X875832Y-3899788D02*
G01*
X874999Y-3899788D01*
X1637512Y-2487498D02*
G01*
X1637512Y-2050795D01*
X1637835Y-2050795D01*
X2012492Y-2675001D02*
G01*
X2012492Y-2057013D01*
X2018835Y-2050671D01*
X1887499Y-2612491D02*
G01*
X1887499Y-2055007D01*
X1891835Y-2050671D01*
X1762505Y-2550007D02*
G01*
X1762505Y-2053000D01*
X1764835Y-2050671D01*
X2024989Y-3662502D02*
G01*
X2024989Y-3893632D01*
X2018835Y-3899786D01*
X2575222Y-2528062D02*
G01*
X2350007Y-2528062D01*
X2350007Y-2950006D01*
X2575095Y-3417064D02*
G01*
X2579659Y-3417064D01*
X2587533Y-3424941D01*
X1383835Y-2050671D02*
G01*
X1375003Y-2050671D01*
X1375003Y-2362504D01*
X1512417Y-3999788D02*
G01*
X1510959Y-3998330D01*
X1510959Y-3899562D01*
X1637411Y-3999788D02*
G01*
X1637959Y-3999240D01*
X1637959Y-3899562D01*
X2575219Y-3416962D02*
G01*
X2949999Y-3416962D01*
X3899788Y-2292375D02*
G01*
X3899788Y-2462095D01*
X3900190Y-2462496D01*
X799947Y-4252290D02*
G01*
X1458798Y-4252290D01*
X1459506Y-4252998D01*
X1462534Y-4249978D01*
X1462534Y-4211065D01*
X1000000Y-3662504D02*
G01*
X1000000Y-3819908D01*
X1004925Y-3824833D01*
X1003045Y-3826713D01*
X1003045Y-3899662D01*
X1999995Y-1675129D02*
G01*
X1800097Y-1675129D01*
X1700021Y-1575054D01*
X1700021Y-1312418D01*
X1822195Y-1190244D01*
X1900173Y-1190244D01*
X1037437Y-4082287D02*
G01*
X1002959Y-4047810D01*
X1002959Y-3899562D01*
X747496Y-1812493D02*
G01*
X748972Y-1813968D01*
X748972Y-2050442D01*
X1075004Y-1837512D02*
G01*
X952530Y-1837512D01*
X927508Y-1812490D01*
D19*
X2677495Y-2318395D02*
G01*
X2239995Y-2318395D01*
D12*
X2150008Y-2737510D02*
G01*
X2150008Y-2050795D01*
X2145835Y-2050795D01*
X1586484Y-4252976D02*
G01*
X1586484Y-4351020D01*
X1562607Y-4374895D01*
X1437386Y-4374895D01*
D16*
X7862188Y-4883150D02*
G01*
X8352815Y-4883150D01*
X8360460Y-4875504D01*
D12*
X2024887Y-4242282D02*
G01*
X2104897Y-4242282D01*
X2137384Y-4274769D01*
D20*
G01*
X799998Y-4624984D03*
G01*
X899998Y-4624984D03*
G01*
X799998Y-4837506D03*
G01*
X899998Y-4837506D03*
D21*
G01*
X2024964Y-4242307D03*
G01*
X2024964Y-4082313D03*
D22*
G01*
X1840484Y-4253001D03*
G01*
X1713484Y-4253001D03*
G01*
X1586484Y-4253001D03*
G01*
X1459484Y-4253001D03*
G01*
X1459484Y-4797018D03*
G01*
X1586484Y-4797018D03*
G01*
X1713484Y-4797018D03*
G01*
X1840484Y-4797018D03*
D21*
G01*
X1262430Y-4082262D03*
G01*
X1262430Y-4242282D03*
G01*
X799947Y-4072280D03*
G01*
X799947Y-4252290D03*
G01*
X1037437Y-4082262D03*
G01*
X1037437Y-4242282D03*
G01*
X1162430Y-4634763D03*
G01*
X1162430Y-4814773D03*
G01*
X1999894Y-1657400D03*
G01*
X1999894Y-1817395D03*
G01*
X3274822Y-2292400D03*
G01*
X3274822Y-2132380D03*
G01*
X4899736Y-2132380D03*
G01*
X4899736Y-2292375D03*
G01*
X4649749Y-2132380D03*
G01*
X4649749Y-2292375D03*
G01*
X4387265Y-2132380D03*
G01*
X4387265Y-2292375D03*
G01*
X4137279Y-2132380D03*
G01*
X4137279Y-2292375D03*
G01*
X3899788Y-2132380D03*
G01*
X3899788Y-2292375D03*
G01*
X3749802Y-1004951D03*
G01*
X3749802Y-844956D03*
G01*
X4399762Y-1004951D03*
G01*
X4399762Y-844956D03*
G01*
X4649749Y-1004951D03*
G01*
X4649749Y-844956D03*
D23*
G01*
X3012338Y-324993D03*
G01*
X2812338Y-324993D03*
G01*
X3212338Y-324993D03*
G01*
X3412337Y-324993D03*
D24*
G01*
X2392375Y-1224940D03*
G01*
X2732354Y-1224940D03*
D25*
G01*
X750925Y-3824833D03*
G01*
X877925Y-3824833D03*
G01*
X1004925Y-3824833D03*
G01*
X1131925Y-3824833D03*
G01*
X1258925Y-3824833D03*
G01*
X1385925Y-3824833D03*
G01*
X1512925Y-3824833D03*
G01*
X1639925Y-3824833D03*
G01*
X1766925Y-3824833D03*
G01*
X1893925Y-3824833D03*
G01*
X2020925Y-3824833D03*
G01*
X2147925Y-3824833D03*
G01*
X2274925Y-3824833D03*
G01*
X2401925Y-3824833D03*
D26*
G01*
X2523921Y-3546347D03*
G01*
X2523921Y-3419347D03*
G01*
X2523921Y-3292347D03*
G01*
X2523921Y-3165347D03*
G01*
X2523921Y-3038347D03*
D27*
G01*
X2523904Y-2911342D03*
G01*
X2523904Y-2784342D03*
G01*
X2523904Y-2657342D03*
G01*
X2523904Y-2530342D03*
G01*
X2523904Y-2403342D03*
D28*
G01*
X2401912Y-2124852D03*
G01*
X2274912Y-2124852D03*
G01*
X2147912Y-2124852D03*
G01*
X2020912Y-2124852D03*
G01*
X1893912Y-2124852D03*
G01*
X1766912Y-2124852D03*
G01*
X1639912Y-2124852D03*
G01*
X1512912Y-2124852D03*
G01*
X1385912Y-2124852D03*
G01*
X1258912Y-2124852D03*
G01*
X1131912Y-2124852D03*
G01*
X1004912Y-2124852D03*
G01*
X877912Y-2124852D03*
G01*
X750912Y-2124852D03*
D29*
G01*
X1505204Y-3076549D03*
D30*
G01*
X927506Y-1812493D03*
G01*
X747496Y-1812493D03*
D31*
G01*
X1199997Y-1189989D03*
G01*
X1199997Y-1459992D03*
G01*
X1899996Y-1459992D03*
G01*
X1899996Y-1189989D03*
D32*
G01*
X3187344Y-1234820D03*
D33*
G01*
X2957322Y-615061D03*
G01*
X3187344Y-615061D03*
G01*
X3417341Y-615061D03*
D34*
G01*
X4800041Y-1299997D03*
G01*
X5049977Y-1205001D03*
G01*
X5049977Y-1394993D03*
G01*
X4300042Y-1299997D03*
G01*
X4549978Y-1205001D03*
G01*
X4549978Y-1394993D03*
G01*
X3800043Y-1299997D03*
G01*
X4049979Y-1205001D03*
G01*
X4049979Y-1394993D03*
D23*
G01*
X1212443Y-912444D03*
G01*
X1012444Y-912444D03*
D35*
G01*
X2264943Y-1522933D03*
G01*
X2264943Y-1776933D03*
G01*
X3284956Y-1776933D03*
G01*
X3284956Y-1522933D03*
D12*
G75*
G01*
X2949999Y-3416963D02*
G03*
X3900170Y-2462530I-5158J955316D01*
D36*
G01*
X4897500Y-1872513D03*
G01*
X4643500Y-1872513D03*
G01*
X4389500Y-1872513D03*
G01*
X4135500Y-1872513D03*
G01*
X3881500Y-1872513D03*
G01*
X3627500Y-1872513D03*
G01*
X3627500Y-602513D03*
G01*
X3881500Y-602513D03*
G01*
X4135500Y-602513D03*
G01*
X4389500Y-602513D03*
G01*
X4643500Y-602513D03*
G01*
X4897500Y-602513D03*
D37*
G01*
X2749981Y-4150004D03*
G01*
X2749981Y-4650003D03*
G01*
X2249982Y-4650003D03*
G01*
X2249982Y-4150004D03*
G01*
X4349978Y-4150004D03*
G01*
X4349978Y-4650003D03*
G01*
X3849979Y-4650003D03*
G01*
X3849979Y-4150004D03*
G01*
X5950178Y-4150156D03*
G01*
X5950178Y-4650155D03*
G01*
X5450179Y-4650155D03*
G01*
X5450179Y-4150156D03*
D38*
G01*
X10086975Y-1166418D03*
G01*
X10086975Y-1958441D03*
D39*
G01*
X8501430Y-3408730D03*
G01*
X9022664Y-4840833D03*
D40*
G01*
X1345463Y-145973D03*
G01*
X1345463Y-399973D03*
G01*
X1091463Y-145973D03*
G01*
X1091463Y-399973D03*
G01*
X837463Y-145973D03*
D41*
G01*
X837463Y-399973D03*
D42*
G01*
X7106513Y-4383506D03*
D43*
G01*
X7106513Y-4637506D03*
G01*
X7106513Y-4891506D03*
G01*
X7868513Y-4383506D03*
G01*
X7868513Y-4637506D03*
G01*
X7868513Y-4891506D03*
D44*
G01*
X7975091Y-2549905D03*
G01*
X7721091Y-2549905D03*
G01*
X8229091Y-2549905D03*
D39*
G01*
X8347760Y-4887848D03*
G01*
X8127238Y-3637153D03*
G01*
X7814995Y-3112490D03*
G01*
X9084995Y-3112490D03*
D43*
G01*
X250012Y-4612411D03*
G01*
X250012Y-4862601D03*
D38*
G01*
X375005Y-1397990D03*
G01*
X375005Y-1002004D03*
D43*
G01*
X9549891Y-4850003D03*
G01*
X9549891Y-3850004D03*
D45*
G01*
X2174875Y-828979D03*
G01*
X2174875Y-320979D03*
D38*
G01*
X10086975Y-2466339D03*
G01*
X10086975Y-3258362D03*
D46*
G01*
X1075004Y-1837512D03*
G01*
X999997Y-3662502D03*
D47*
G01*
X3749802Y-1112443D03*
G01*
X1075004Y-2299995D03*
G01*
X4050004Y-1475003D03*
G01*
X1375003Y-2362504D03*
G01*
X4550003Y-1475003D03*
G01*
X1762505Y-2550007D03*
G01*
X4399762Y-1112443D03*
G01*
X1099997Y-2424988D03*
G01*
X4400041Y-2400045D03*
G01*
X4649749Y-1112443D03*
G01*
X4649977Y-2400045D03*
G01*
X5050002Y-1475003D03*
G01*
X4899913Y-2400045D03*
G01*
X875004Y-3662502D03*
G01*
X3187344Y-1287424D03*
G01*
X3299815Y-1287424D03*
G01*
X3074847Y-1287424D03*
G01*
X3299815Y-1174927D03*
G01*
X3074847Y-1174927D03*
G01*
X3187344Y-1174927D03*
G01*
X875004Y-3574999D03*
G01*
X875004Y-3487496D03*
G01*
X1887499Y-2612491D03*
D46*
G01*
X2012492Y-2675001D03*
G01*
X2150008Y-2737510D03*
G01*
X4137279Y-2399868D03*
G01*
X1637512Y-2487498D03*
G01*
X2350007Y-2950006D03*
G01*
X2499995Y-4174997D03*
G01*
X2024989Y-3662502D03*
G01*
X2150008Y-3662502D03*
G01*
X2137384Y-4274769D03*
G01*
X1637411Y-3999788D03*
G01*
X1512417Y-3999788D03*
M02*
