G04 Layer: TopSolderMaskLayer*
G04 EasyEDA v6.5.15, 2022-09-18 23:53:43*
G04 d3691748ad514627a52f7aef6c0eae22,d4513426d2154aa39f2c2607306ca696,10*
G04 Gerber Generator version 0.2*
G04 Scale: 100 percent, Rotated: No, Reflected: No *
G04 Dimensions in millimeters *
G04 leading zeros omitted , absolute positions ,4 integer and 5 decimal *
%FSLAX45Y45*%
%MOMM*%

%AMMACRO1*1,1,$1,$2,$3*1,1,$1,$4,$5*1,1,$1,0-$2,0-$3*1,1,$1,0-$4,0-$5*20,1,$1,$2,$3,$4,$5,0*20,1,$1,$4,$5,0-$2,0-$3,0*20,1,$1,0-$2,0-$3,0-$4,0-$5,0*20,1,$1,0-$4,0-$5,$2,$3,0*4,1,4,$2,$3,$4,$5,0-$2,0-$3,0-$4,0-$5,$2,$3,0*%
%ADD10C,1.8032*%
%ADD11C,2.4032*%
%ADD12MACRO1,0.2032X0.25X-0.4X-0.25X-0.4*%
%ADD13C,3.0032*%
%ADD14MACRO1,0.2032X0.55X0.5X0.55X-0.5*%
%ADD15MACRO1,0.2032X0.325X-0.775X-0.325X-0.775*%
%ADD16MACRO1,0.2032X-0.55X-0.5X-0.55X0.5*%
%ADD17C,2.0828*%
%ADD18C,1.7780*%
%ADD19MACRO1,0.2032X-0.7874X0.7874X0.7874X0.7874*%
%ADD20MACRO1,0.2032X0.5X-0.775X-0.5X-0.775*%
%ADD21MACRO1,0.2032X-0.5X0.775X0.5X0.775*%
%ADD22MACRO1,0.2032X-0.9X0.9X0.9X0.9*%
%ADD23C,2.0032*%
%ADD24O,1.9999959999999999X2.4999949999999997*%
%ADD25C,1.7272*%
%ADD26MACRO1,0.2032X0.6X-0.7X-0.6X-0.7*%
%ADD27MACRO1,0.2032X-0.45X-1X-0.45X1*%
%ADD28MACRO1,0.2032X-1X0.45X1X0.45*%
%ADD29MACRO1,0.2032X-1X-0.45X1X-0.45*%
%ADD30MACRO1,0.2032X0.45X-1X0.45X1*%
%ADD31MACRO1,0.2032X-2.5X-2.5X-2.5X2.5*%
%ADD32MACRO1,0.2032X0.5X-0.55X-0.5X-0.55*%
%ADD33MACRO1,0.2032X0.75X-0.45X-0.75X-0.45*%
%ADD34MACRO1,0.2032X1.75X-1.1X-1.75X-1.1*%
%ADD35MACRO1,0.2032X0.55X-1.1X-0.55X-1.1*%
%ADD36MACRO1,0.2032X0.625X0.35X0.625X-0.35*%
%ADD37MACRO1,0.2032X1X0.9X1X-0.9*%

%LPD*%
D10*
G01*
X4897500Y-1872513D03*
G01*
X4643500Y-1872513D03*
G01*
X4389500Y-1872513D03*
G01*
X4135500Y-1872513D03*
G01*
X3881500Y-1872513D03*
G01*
X3627500Y-1872513D03*
G01*
X3627500Y-602513D03*
G01*
X3881500Y-602513D03*
G01*
X4135500Y-602513D03*
G01*
X4389500Y-602513D03*
G01*
X4643500Y-602513D03*
G01*
X4897500Y-602513D03*
D11*
G01*
X2749981Y-4150004D03*
G01*
X2749981Y-4650003D03*
G01*
X2249982Y-4650003D03*
G01*
X2249982Y-4150004D03*
G01*
X4349978Y-4150004D03*
G01*
X4349978Y-4650003D03*
G01*
X3849979Y-4650003D03*
G01*
X3849979Y-4150004D03*
G01*
X5950178Y-4150156D03*
G01*
X5950178Y-4650155D03*
G01*
X5450179Y-4650155D03*
G01*
X5450179Y-4150156D03*
D12*
G01*
X800004Y-4624992D03*
G01*
X900004Y-4624992D03*
G01*
X800004Y-4837493D03*
G01*
X900004Y-4837493D03*
D13*
G01*
X10086975Y-1166418D03*
G01*
X10086975Y-1958441D03*
D14*
G01*
X2024954Y-4242305D03*
G01*
X2024954Y-4082305D03*
D15*
G01*
X1840484Y-4253010D03*
G01*
X1713484Y-4253010D03*
G01*
X1586484Y-4253010D03*
G01*
X1459484Y-4253010D03*
G01*
X1459484Y-4797009D03*
G01*
X1586484Y-4797009D03*
G01*
X1713484Y-4797009D03*
G01*
X1840484Y-4797009D03*
D16*
G01*
X1262433Y-4082272D03*
G01*
X1262433Y-4242272D03*
D14*
G01*
X799957Y-4072282D03*
G01*
X799957Y-4252292D03*
D16*
G01*
X1037445Y-4082272D03*
G01*
X1037445Y-4242272D03*
D14*
G01*
X1162438Y-4634753D03*
G01*
X1162438Y-4814763D03*
D16*
G01*
X1999894Y-1657400D03*
G01*
X1999894Y-1817400D03*
D14*
G01*
X3274827Y-2292390D03*
G01*
X3274827Y-2132390D03*
D17*
G01*
X8501430Y-3408730D03*
G01*
X9022664Y-4840833D03*
D18*
G01*
X1345463Y-145973D03*
G01*
X1345463Y-399973D03*
G01*
X1091463Y-145973D03*
G01*
X1091463Y-399973D03*
G01*
X837463Y-145973D03*
D19*
G01*
X837455Y-399978D03*
D16*
G01*
X4899741Y-2132375D03*
G01*
X4899741Y-2292375D03*
G01*
X4649754Y-2132375D03*
G01*
X4649754Y-2292375D03*
G01*
X4387268Y-2132375D03*
G01*
X4387268Y-2292375D03*
G01*
X4137281Y-2132375D03*
G01*
X4137281Y-2292375D03*
G01*
X3899794Y-2132375D03*
G01*
X3899794Y-2292375D03*
D14*
G01*
X3749802Y-1004958D03*
G01*
X3749802Y-844958D03*
G01*
X4399767Y-1004958D03*
G01*
X4399767Y-844958D03*
G01*
X4649754Y-1004958D03*
G01*
X4649754Y-844958D03*
D20*
G01*
X3012346Y-324982D03*
G01*
X2812346Y-324982D03*
D21*
G01*
X3212325Y-324982D03*
G01*
X3412324Y-324982D03*
D22*
G01*
X7106500Y-4383498D03*
D23*
G01*
X7106513Y-4637506D03*
G01*
X7106513Y-4891506D03*
G01*
X7868513Y-4383506D03*
G01*
X7868513Y-4637506D03*
G01*
X7868513Y-4891506D03*
D24*
G01*
X7975091Y-2549905D03*
G01*
X7721091Y-2549905D03*
G01*
X8229091Y-2549905D03*
D17*
G01*
X8347760Y-4887848D03*
G01*
X8127238Y-3637153D03*
G01*
X7814995Y-3112490D03*
G01*
X9084995Y-3112490D03*
D23*
G01*
X250012Y-4612411D03*
G01*
X250012Y-4862601D03*
D13*
G01*
X375005Y-1397990D03*
G01*
X375005Y-1002004D03*
D23*
G01*
X9549891Y-4850003D03*
G01*
X9549891Y-3850004D03*
D25*
G01*
X2174875Y-828979D03*
G01*
X2174875Y-320979D03*
D26*
G01*
X2392365Y-1224935D03*
G01*
X2732364Y-1224935D03*
D27*
G01*
X750912Y-3824833D03*
G01*
X877912Y-3824833D03*
G01*
X1004912Y-3824833D03*
G01*
X1131912Y-3824833D03*
G01*
X1258912Y-3824833D03*
G01*
X1385912Y-3824833D03*
G01*
X1512912Y-3824833D03*
G01*
X1639912Y-3824833D03*
G01*
X1766912Y-3824833D03*
G01*
X1893912Y-3824833D03*
G01*
X2020912Y-3824833D03*
G01*
X2147912Y-3824833D03*
G01*
X2274912Y-3824833D03*
G01*
X2401912Y-3824833D03*
D28*
G01*
X2523924Y-3546342D03*
G01*
X2523924Y-3419342D03*
G01*
X2523924Y-3292342D03*
G01*
X2523924Y-3165342D03*
G01*
X2523924Y-3038342D03*
D29*
G01*
X2523904Y-2911342D03*
G01*
X2523904Y-2784342D03*
G01*
X2523904Y-2657342D03*
G01*
X2523904Y-2530342D03*
G01*
X2523904Y-2403342D03*
D30*
G01*
X2401912Y-2124852D03*
G01*
X2274912Y-2124852D03*
G01*
X2147912Y-2124852D03*
G01*
X2020912Y-2124852D03*
G01*
X1893912Y-2124852D03*
G01*
X1766912Y-2124852D03*
G01*
X1639912Y-2124852D03*
G01*
X1512912Y-2124852D03*
G01*
X1385912Y-2124852D03*
G01*
X1258912Y-2124852D03*
G01*
X1131912Y-2124852D03*
G01*
X1004912Y-2124852D03*
G01*
X877912Y-2124852D03*
G01*
X750912Y-2124852D03*
D31*
G01*
X1505214Y-3076543D03*
D32*
G01*
X927496Y-1812500D03*
G01*
X747486Y-1812500D03*
D33*
G01*
X1200000Y-1190001D03*
G01*
X1200000Y-1460003D03*
G01*
X1899998Y-1460003D03*
G01*
X1899998Y-1190001D03*
D34*
G01*
X3187331Y-1234831D03*
D35*
G01*
X2957330Y-615071D03*
G01*
X3187331Y-615071D03*
G01*
X3417332Y-615071D03*
D36*
G01*
X4800031Y-1299999D03*
G01*
X5049967Y-1205003D03*
G01*
X5049967Y-1394995D03*
G01*
X4300032Y-1299999D03*
G01*
X4549968Y-1205003D03*
G01*
X4549968Y-1394995D03*
G01*
X3800033Y-1299999D03*
G01*
X4049969Y-1205003D03*
G01*
X4049969Y-1394995D03*
D21*
G01*
X1212441Y-912451D03*
G01*
X1012441Y-912451D03*
D13*
G01*
X10086975Y-2466339D03*
G01*
X10086975Y-3258362D03*
D37*
G01*
X2264951Y-1522928D03*
G01*
X2264951Y-1776928D03*
G01*
X3284951Y-1776928D03*
G01*
X3284951Y-1522928D03*
M02*
