G04 Layer: TopPasteMaskLayer*
G04 EasyEDA v6.5.15, 2022-09-18 23:53:43*
G04 d3691748ad514627a52f7aef6c0eae22,d4513426d2154aa39f2c2607306ca696,10*
G04 Gerber Generator version 0.2*
G04 Scale: 100 percent, Rotated: No, Reflected: No *
G04 Dimensions in millimeters *
G04 leading zeros omitted , absolute positions ,4 integer and 5 decimal *
%FSLAX45Y45*%
%MOMM*%

%AMMACRO1*21,1,$1,$2,0,0,$3*%
%ADD10R,0.5000X0.8000*%
%ADD11R,1.1000X1.0000*%
%ADD12R,0.6500X1.5500*%
%ADD13R,1.0000X1.5500*%
%ADD14R,1.2000X1.4000*%
%ADD15R,0.9000X2.0000*%
%ADD16R,2.0000X0.9000*%
%ADD17MACRO1,2X0.9X0.0000*%
%ADD18MACRO1,2X0.9X90.0000*%
%ADD19R,5.0000X5.0000*%
%ADD20R,1.0000X1.1000*%
%ADD21R,1.5000X0.9000*%
%ADD22R,3.5000X2.2000*%
%ADD23R,1.1000X2.2000*%
%ADD24R,1.2500X0.7000*%
%ADD25R,2.0000X1.8000*%

%LPD*%
D10*
G01*
X799998Y-4624984D03*
G01*
X899998Y-4624984D03*
G01*
X799998Y-4837506D03*
G01*
X899998Y-4837506D03*
D11*
G01*
X2024964Y-4242307D03*
G01*
X2024964Y-4082313D03*
D12*
G01*
X1840484Y-4253001D03*
G01*
X1713484Y-4253001D03*
G01*
X1586484Y-4253001D03*
G01*
X1459484Y-4253001D03*
G01*
X1459484Y-4797018D03*
G01*
X1586484Y-4797018D03*
G01*
X1713484Y-4797018D03*
G01*
X1840484Y-4797018D03*
D11*
G01*
X1262430Y-4082262D03*
G01*
X1262430Y-4242282D03*
G01*
X799947Y-4072280D03*
G01*
X799947Y-4252290D03*
G01*
X1037437Y-4082262D03*
G01*
X1037437Y-4242282D03*
G01*
X1162430Y-4634763D03*
G01*
X1162430Y-4814773D03*
G01*
X1999894Y-1657400D03*
G01*
X1999894Y-1817395D03*
G01*
X3274822Y-2292400D03*
G01*
X3274822Y-2132380D03*
G01*
X4899736Y-2132380D03*
G01*
X4899736Y-2292375D03*
G01*
X4649749Y-2132380D03*
G01*
X4649749Y-2292375D03*
G01*
X4387265Y-2132380D03*
G01*
X4387265Y-2292375D03*
G01*
X4137279Y-2132380D03*
G01*
X4137279Y-2292375D03*
G01*
X3899788Y-2132380D03*
G01*
X3899788Y-2292375D03*
G01*
X3749802Y-1004951D03*
G01*
X3749802Y-844956D03*
G01*
X4399762Y-1004951D03*
G01*
X4399762Y-844956D03*
G01*
X4649749Y-1004951D03*
G01*
X4649749Y-844956D03*
D13*
G01*
X3012338Y-324993D03*
G01*
X2812338Y-324993D03*
G01*
X3212338Y-324993D03*
G01*
X3412337Y-324993D03*
D14*
G01*
X2392375Y-1224940D03*
G01*
X2732354Y-1224940D03*
D15*
G01*
X750925Y-3824833D03*
G01*
X877925Y-3824833D03*
G01*
X1004925Y-3824833D03*
G01*
X1131925Y-3824833D03*
G01*
X1258925Y-3824833D03*
G01*
X1385925Y-3824833D03*
G01*
X1512925Y-3824833D03*
G01*
X1639925Y-3824833D03*
G01*
X1766925Y-3824833D03*
G01*
X1893925Y-3824833D03*
G01*
X2020925Y-3824833D03*
G01*
X2147925Y-3824833D03*
G01*
X2274925Y-3824833D03*
G01*
X2401925Y-3824833D03*
D16*
G01*
X2523921Y-3546347D03*
G01*
X2523921Y-3419347D03*
G01*
X2523921Y-3292347D03*
G01*
X2523921Y-3165347D03*
G01*
X2523921Y-3038347D03*
D17*
G01*
X2523904Y-2911342D03*
G01*
X2523904Y-2784342D03*
G01*
X2523904Y-2657342D03*
G01*
X2523904Y-2530342D03*
G01*
X2523904Y-2403342D03*
D18*
G01*
X2401912Y-2124852D03*
G01*
X2274912Y-2124852D03*
G01*
X2147912Y-2124852D03*
G01*
X2020912Y-2124852D03*
G01*
X1893912Y-2124852D03*
G01*
X1766912Y-2124852D03*
G01*
X1639912Y-2124852D03*
G01*
X1512912Y-2124852D03*
G01*
X1385912Y-2124852D03*
G01*
X1258912Y-2124852D03*
G01*
X1131912Y-2124852D03*
G01*
X1004912Y-2124852D03*
G01*
X877912Y-2124852D03*
G01*
X750912Y-2124852D03*
D19*
G01*
X1505204Y-3076549D03*
D20*
G01*
X927506Y-1812493D03*
G01*
X747496Y-1812493D03*
D21*
G01*
X1199997Y-1189989D03*
G01*
X1199997Y-1459992D03*
G01*
X1899996Y-1459992D03*
G01*
X1899996Y-1189989D03*
D22*
G01*
X3187344Y-1234820D03*
D23*
G01*
X2957322Y-615061D03*
G01*
X3187344Y-615061D03*
G01*
X3417341Y-615061D03*
D24*
G01*
X4800041Y-1299997D03*
G01*
X5049977Y-1205001D03*
G01*
X5049977Y-1394993D03*
G01*
X4300042Y-1299997D03*
G01*
X4549978Y-1205001D03*
G01*
X4549978Y-1394993D03*
G01*
X3800043Y-1299997D03*
G01*
X4049979Y-1205001D03*
G01*
X4049979Y-1394993D03*
D13*
G01*
X1212443Y-912444D03*
G01*
X1012444Y-912444D03*
D25*
G01*
X2264943Y-1522933D03*
G01*
X2264943Y-1776933D03*
G01*
X3284956Y-1776933D03*
G01*
X3284956Y-1522933D03*
M02*
