G04 Layer: TopSilkscreenLayer*
G04 EasyEDA v6.5.15, 2022-09-18 23:53:43*
G04 d3691748ad514627a52f7aef6c0eae22,d4513426d2154aa39f2c2607306ca696,10*
G04 Gerber Generator version 0.2*
G04 Scale: 100 percent, Rotated: No, Reflected: No *
G04 Dimensions in millimeters *
G04 leading zeros omitted , absolute positions ,4 integer and 5 decimal *
%FSLAX45Y45*%
%MOMM*%

%ADD10C,0.1520*%
%ADD11C,0.1780*%
%ADD12C,0.1524*%
%ADD13C,0.1778*%
%ADD14C,0.1501*%
%ADD15C,0.1500*%
%ADD16C,0.2540*%
%ADD17C,0.2032*%
%ADD18C,0.2000*%
%ADD19C,0.6000*%
%ADD20C,0.3000*%
%ADD21C,0.4000*%
%ADD22C,0.0166*%

%LPD*%
G36*
X5548579Y-5275021D02*
G01*
X5543092Y-5275122D01*
X5537606Y-5275529D01*
X5532120Y-5276240D01*
X5526735Y-5277358D01*
X5521198Y-5278831D01*
X5515813Y-5280609D01*
X5510631Y-5282590D01*
X5505653Y-5284876D01*
X5500827Y-5287416D01*
X5496255Y-5290159D01*
X5491835Y-5293156D01*
X5483656Y-5299760D01*
X5476290Y-5307126D01*
X5472938Y-5311089D01*
X5466892Y-5319420D01*
X5464200Y-5323789D01*
X5459526Y-5332933D01*
X5455767Y-5342483D01*
X5453024Y-5352338D01*
X5451957Y-5357368D01*
X5451195Y-5362397D01*
X5450433Y-5372658D01*
X5450558Y-5380329D01*
X5467959Y-5380329D01*
X5468213Y-5371896D01*
X5469229Y-5363464D01*
X5470042Y-5359247D01*
X5472328Y-5351018D01*
X5475427Y-5342940D01*
X5479338Y-5335168D01*
X5484114Y-5327751D01*
X5489651Y-5320792D01*
X5496052Y-5314340D01*
X5503316Y-5308447D01*
X5507228Y-5305755D01*
X5511342Y-5303266D01*
X5515711Y-5300929D01*
X5520283Y-5298795D01*
X5529986Y-5295188D01*
X5535168Y-5293715D01*
X5546140Y-5291480D01*
X5551474Y-5292090D01*
X5562549Y-5293766D01*
X5572709Y-5296001D01*
X5577484Y-5297424D01*
X5582056Y-5299100D01*
X5590540Y-5303113D01*
X5598210Y-5307888D01*
X5605018Y-5313324D01*
X5611063Y-5319420D01*
X5613806Y-5322671D01*
X5618581Y-5329529D01*
X5620715Y-5333136D01*
X5624322Y-5340654D01*
X5627166Y-5348478D01*
X5629198Y-5356555D01*
X5629960Y-5360619D01*
X5630824Y-5368899D01*
X5630926Y-5377230D01*
X5630265Y-5385562D01*
X5628843Y-5393791D01*
X5626709Y-5401818D01*
X5623763Y-5409590D01*
X5620105Y-5417058D01*
X5615736Y-5424119D01*
X5613298Y-5427472D01*
X5607812Y-5433771D01*
X5604814Y-5436717D01*
X5598261Y-5442102D01*
X5590997Y-5446776D01*
X5583021Y-5450687D01*
X5578754Y-5452313D01*
X5569762Y-5454853D01*
X5564987Y-5455818D01*
X5560060Y-5456478D01*
X5554980Y-5456885D01*
X5549696Y-5457037D01*
X5544058Y-5456885D01*
X5538622Y-5456478D01*
X5528360Y-5454853D01*
X5518912Y-5452211D01*
X5514492Y-5450586D01*
X5510276Y-5448706D01*
X5502402Y-5444337D01*
X5498795Y-5441899D01*
X5492140Y-5436412D01*
X5489092Y-5433466D01*
X5483656Y-5427065D01*
X5479034Y-5420106D01*
X5475173Y-5412740D01*
X5472176Y-5405018D01*
X5469940Y-5396992D01*
X5469128Y-5392877D01*
X5468162Y-5384546D01*
X5467959Y-5380329D01*
X5450558Y-5380329D01*
X5451195Y-5388102D01*
X5452008Y-5393232D01*
X5453075Y-5398312D01*
X5454396Y-5403342D01*
X5456021Y-5408371D01*
X5457901Y-5413298D01*
X5460085Y-5418175D01*
X5462574Y-5422950D01*
X5465318Y-5427624D01*
X5468366Y-5432196D01*
X5471718Y-5436616D01*
X5475376Y-5440934D01*
X5479338Y-5445150D01*
X5483352Y-5448960D01*
X5491632Y-5455818D01*
X5495848Y-5458815D01*
X5504484Y-5463997D01*
X5513273Y-5468112D01*
X5517743Y-5469839D01*
X5526735Y-5472480D01*
X5535777Y-5474157D01*
X5544769Y-5474919D01*
X5553760Y-5474817D01*
X5562650Y-5473903D01*
X5571388Y-5472125D01*
X5579922Y-5469636D01*
X5588203Y-5466384D01*
X5596128Y-5462422D01*
X5603748Y-5457799D01*
X5610961Y-5452567D01*
X5617718Y-5446776D01*
X5623966Y-5440426D01*
X5629656Y-5433517D01*
X5634736Y-5426202D01*
X5639155Y-5418429D01*
X5642864Y-5410250D01*
X5645810Y-5401665D01*
X5647029Y-5397296D01*
X5647994Y-5392826D01*
X5649264Y-5383631D01*
X5649569Y-5378958D01*
X5649417Y-5369407D01*
X5648350Y-5359704D01*
X5646166Y-5349798D01*
X5642965Y-5339791D01*
X5640933Y-5334762D01*
X5638596Y-5329682D01*
X5636006Y-5324906D01*
X5633161Y-5320233D01*
X5630011Y-5315813D01*
X5626608Y-5311546D01*
X5622950Y-5307431D01*
X5619038Y-5303570D01*
X5614924Y-5299913D01*
X5606084Y-5293258D01*
X5601411Y-5290312D01*
X5596534Y-5287568D01*
X5591556Y-5285079D01*
X5586425Y-5282844D01*
X5581243Y-5280863D01*
X5575909Y-5279136D01*
X5570524Y-5277713D01*
X5565089Y-5276596D01*
X5554116Y-5275224D01*
G37*
G36*
X5548122Y-5310987D02*
G01*
X5543499Y-5312562D01*
X5539384Y-5316169D01*
X5535980Y-5321046D01*
X5534660Y-5324906D01*
X5535422Y-5328666D01*
X5538114Y-5333238D01*
X5543651Y-5337505D01*
X5550662Y-5338318D01*
X5557418Y-5335879D01*
X5562295Y-5330393D01*
X5563717Y-5325110D01*
X5563006Y-5320284D01*
X5560720Y-5316169D01*
X5557164Y-5313070D01*
X5552846Y-5311241D01*
G37*
G36*
X5549696Y-5343042D02*
G01*
X5542330Y-5343194D01*
X5535726Y-5343753D01*
X5530596Y-5344617D01*
X5527802Y-5345887D01*
X5526125Y-5349290D01*
X5525058Y-5355082D01*
X5524550Y-5362346D01*
X5524652Y-5370271D01*
X5525211Y-5377992D01*
X5526278Y-5384749D01*
X5527751Y-5389575D01*
X5529681Y-5391759D01*
X5532221Y-5393080D01*
X5533644Y-5396433D01*
X5534253Y-5403596D01*
X5534406Y-5439511D01*
X5564987Y-5439511D01*
X5565089Y-5403596D01*
X5565698Y-5396433D01*
X5567121Y-5393080D01*
X5569661Y-5391759D01*
X5571591Y-5389575D01*
X5573115Y-5384749D01*
X5574131Y-5377992D01*
X5574741Y-5370271D01*
X5574792Y-5362346D01*
X5574284Y-5355082D01*
X5573268Y-5349290D01*
X5571540Y-5345887D01*
X5568746Y-5344617D01*
X5563666Y-5343753D01*
X5557062Y-5343194D01*
G37*
G36*
X5296916Y-5276748D02*
G01*
X5291480Y-5276951D01*
X5285994Y-5277459D01*
X5280406Y-5278272D01*
X5274614Y-5279491D01*
X5268976Y-5281117D01*
X5263438Y-5283200D01*
X5258003Y-5285689D01*
X5252720Y-5288534D01*
X5247589Y-5291734D01*
X5242661Y-5295239D01*
X5237886Y-5299100D01*
X5233365Y-5303215D01*
X5229047Y-5307634D01*
X5224983Y-5312308D01*
X5221173Y-5317185D01*
X5217617Y-5322265D01*
X5214366Y-5327497D01*
X5211419Y-5332933D01*
X5208778Y-5338470D01*
X5206542Y-5344160D01*
X5204612Y-5349900D01*
X5203037Y-5355742D01*
X5201869Y-5361635D01*
X5201107Y-5367528D01*
X5200790Y-5375706D01*
X5219496Y-5375706D01*
X5219547Y-5370728D01*
X5219903Y-5365699D01*
X5220614Y-5360670D01*
X5221681Y-5355640D01*
X5223103Y-5350611D01*
X5224881Y-5345633D01*
X5227066Y-5340705D01*
X5229606Y-5335828D01*
X5232603Y-5331053D01*
X5235956Y-5326329D01*
X5239562Y-5321960D01*
X5243474Y-5317845D01*
X5247640Y-5314086D01*
X5252110Y-5310632D01*
X5256733Y-5307482D01*
X5261610Y-5304688D01*
X5266639Y-5302199D01*
X5271820Y-5300065D01*
X5277154Y-5298287D01*
X5282539Y-5296814D01*
X5288026Y-5295747D01*
X5293563Y-5294985D01*
X5299151Y-5294630D01*
X5304688Y-5294630D01*
X5310225Y-5295036D01*
X5315762Y-5295798D01*
X5321147Y-5296966D01*
X5326481Y-5298541D01*
X5331714Y-5300472D01*
X5336794Y-5302859D01*
X5341823Y-5305653D01*
X5346598Y-5308803D01*
X5351018Y-5312105D01*
X5355132Y-5315712D01*
X5358942Y-5319522D01*
X5362397Y-5323484D01*
X5365546Y-5327700D01*
X5368442Y-5332018D01*
X5370931Y-5336489D01*
X5373166Y-5341112D01*
X5375097Y-5345836D01*
X5376672Y-5350662D01*
X5377992Y-5355590D01*
X5379669Y-5365546D01*
X5380126Y-5375656D01*
X5379872Y-5380736D01*
X5379364Y-5385765D01*
X5378500Y-5390743D01*
X5377383Y-5395671D01*
X5375960Y-5400548D01*
X5374284Y-5405272D01*
X5372252Y-5409946D01*
X5369966Y-5414518D01*
X5367375Y-5418886D01*
X5364480Y-5423154D01*
X5361279Y-5427218D01*
X5357825Y-5431078D01*
X5354066Y-5434736D01*
X5350052Y-5438190D01*
X5345734Y-5441391D01*
X5341112Y-5444337D01*
X5336235Y-5446979D01*
X5331104Y-5449366D01*
X5325668Y-5451449D01*
X5320131Y-5453126D01*
X5314645Y-5454396D01*
X5309209Y-5455259D01*
X5303875Y-5455716D01*
X5298592Y-5455869D01*
X5293410Y-5455615D01*
X5288280Y-5455005D01*
X5283301Y-5454091D01*
X5278424Y-5452821D01*
X5273700Y-5451297D01*
X5269077Y-5449468D01*
X5264607Y-5447334D01*
X5260289Y-5444896D01*
X5256174Y-5442254D01*
X5252161Y-5439359D01*
X5248402Y-5436260D01*
X5241340Y-5429351D01*
X5235194Y-5421731D01*
X5229910Y-5413400D01*
X5225643Y-5404561D01*
X5223916Y-5399938D01*
X5222443Y-5395264D01*
X5221224Y-5390438D01*
X5220360Y-5385612D01*
X5219750Y-5380685D01*
X5219496Y-5375706D01*
X5200790Y-5375706D01*
X5200853Y-5379364D01*
X5201412Y-5385206D01*
X5202275Y-5390743D01*
X5203393Y-5396179D01*
X5204764Y-5401411D01*
X5208219Y-5411419D01*
X5210251Y-5416143D01*
X5212537Y-5420766D01*
X5217668Y-5429402D01*
X5223560Y-5437378D01*
X5226761Y-5441086D01*
X5233670Y-5447944D01*
X5241137Y-5454040D01*
X5249113Y-5459323D01*
X5257495Y-5463794D01*
X5266283Y-5467451D01*
X5270804Y-5468975D01*
X5279999Y-5471312D01*
X5289448Y-5472734D01*
X5298998Y-5473293D01*
X5308650Y-5472836D01*
X5318302Y-5471464D01*
X5323128Y-5470398D01*
X5327904Y-5469077D01*
X5337352Y-5465673D01*
X5346598Y-5461203D01*
X5355590Y-5455666D01*
X5359958Y-5452516D01*
X5364276Y-5449062D01*
X5368442Y-5445353D01*
X5372404Y-5441442D01*
X5376062Y-5437428D01*
X5379466Y-5433314D01*
X5382564Y-5429148D01*
X5385409Y-5424881D01*
X5387949Y-5420563D01*
X5390235Y-5416143D01*
X5393994Y-5407202D01*
X5396738Y-5398058D01*
X5398465Y-5388813D01*
X5399227Y-5379567D01*
X5399074Y-5370322D01*
X5398668Y-5365699D01*
X5397195Y-5356606D01*
X5394858Y-5347716D01*
X5391658Y-5339029D01*
X5389829Y-5334812D01*
X5385511Y-5326634D01*
X5380431Y-5318861D01*
X5374690Y-5311495D01*
X5368290Y-5304688D01*
X5361228Y-5298490D01*
X5353558Y-5292953D01*
X5345379Y-5288076D01*
X5336590Y-5284012D01*
X5332069Y-5282285D01*
X5327345Y-5280761D01*
X5317642Y-5278424D01*
X5312613Y-5277612D01*
X5307482Y-5277053D01*
X5302250Y-5276748D01*
G37*
G36*
X5270449Y-5344769D02*
G01*
X5265369Y-5345430D01*
X5260492Y-5346903D01*
X5256072Y-5349138D01*
X5252364Y-5352084D01*
X5249367Y-5355590D01*
X5246979Y-5359552D01*
X5245303Y-5363870D01*
X5244236Y-5368391D01*
X5243830Y-5373065D01*
X5244084Y-5377789D01*
X5244896Y-5382463D01*
X5246319Y-5386984D01*
X5248351Y-5391251D01*
X5250942Y-5395112D01*
X5254142Y-5398516D01*
X5257850Y-5401360D01*
X5262168Y-5403494D01*
X5266944Y-5404866D01*
X5273802Y-5405272D01*
X5280558Y-5404205D01*
X5286705Y-5401970D01*
X5291785Y-5398973D01*
X5295341Y-5395569D01*
X5296865Y-5392115D01*
X5295900Y-5388864D01*
X5291988Y-5386324D01*
X5289702Y-5385968D01*
X5287111Y-5386374D01*
X5284571Y-5387441D01*
X5278628Y-5392013D01*
X5274919Y-5393232D01*
X5271516Y-5392978D01*
X5268468Y-5391353D01*
X5265928Y-5388457D01*
X5264099Y-5384393D01*
X5263083Y-5379313D01*
X5263083Y-5373319D01*
X5265420Y-5365038D01*
X5270093Y-5360009D01*
X5276037Y-5358790D01*
X5282082Y-5362143D01*
X5283860Y-5363362D01*
X5285994Y-5363768D01*
X5288381Y-5363413D01*
X5291124Y-5362295D01*
X5294325Y-5359958D01*
X5295900Y-5357571D01*
X5295950Y-5355082D01*
X5294680Y-5352694D01*
X5292344Y-5350408D01*
X5289042Y-5348427D01*
X5285028Y-5346750D01*
X5280456Y-5345531D01*
X5275580Y-5344820D01*
G37*
G36*
X5329174Y-5344922D02*
G01*
X5324297Y-5345125D01*
X5319725Y-5346039D01*
X5315661Y-5347665D01*
X5311089Y-5350814D01*
X5307431Y-5354878D01*
X5304688Y-5359654D01*
X5302758Y-5364988D01*
X5301742Y-5370677D01*
X5301538Y-5376519D01*
X5302199Y-5382260D01*
X5303723Y-5387797D01*
X5306060Y-5392877D01*
X5309209Y-5397296D01*
X5313172Y-5400903D01*
X5317947Y-5403443D01*
X5322468Y-5404662D01*
X5327345Y-5405120D01*
X5332374Y-5404916D01*
X5337302Y-5404104D01*
X5342026Y-5402834D01*
X5346293Y-5401208D01*
X5349900Y-5399227D01*
X5352643Y-5397042D01*
X5354370Y-5394756D01*
X5354828Y-5392470D01*
X5353862Y-5390235D01*
X5351221Y-5388152D01*
X5348325Y-5386984D01*
X5345379Y-5386832D01*
X5342331Y-5387644D01*
X5334203Y-5391708D01*
X5329885Y-5392166D01*
X5326075Y-5390997D01*
X5322925Y-5388356D01*
X5320588Y-5384546D01*
X5319268Y-5379618D01*
X5319014Y-5373776D01*
X5320030Y-5367223D01*
X5323890Y-5361990D01*
X5330545Y-5359196D01*
X5337251Y-5359349D01*
X5341315Y-5362956D01*
X5342229Y-5364429D01*
X5343855Y-5364886D01*
X5346293Y-5364276D01*
X5349748Y-5362651D01*
X5353812Y-5360314D01*
X5355285Y-5358485D01*
X5354320Y-5356250D01*
X5350967Y-5352745D01*
X5347665Y-5350052D01*
X5343601Y-5347919D01*
X5339029Y-5346344D01*
X5334152Y-5345328D01*
G37*
G36*
X2370582Y-5102199D02*
G01*
X2370582Y-5214213D01*
X2514854Y-5214213D01*
X2531110Y-5214772D01*
X2546096Y-5216499D01*
X2559761Y-5219395D01*
X2572105Y-5223459D01*
X2583129Y-5228691D01*
X2592832Y-5235041D01*
X2601214Y-5242560D01*
X2608072Y-5251196D01*
X2613406Y-5260949D01*
X2617216Y-5271820D01*
X2619502Y-5283860D01*
X2620264Y-5297017D01*
X2619349Y-5310276D01*
X2616657Y-5322417D01*
X2612136Y-5333390D01*
X2605786Y-5343245D01*
X2598115Y-5352034D01*
X2589276Y-5359603D01*
X2579319Y-5366004D01*
X2568194Y-5371185D01*
X2581661Y-5396077D01*
X2651760Y-5396077D01*
X2652471Y-5381904D01*
X2654503Y-5368544D01*
X2658008Y-5355996D01*
X2662834Y-5344261D01*
X2669032Y-5333288D01*
X2676652Y-5323179D01*
X2685491Y-5314238D01*
X2695498Y-5306923D01*
X2706573Y-5301284D01*
X2718765Y-5297220D01*
X2732074Y-5294782D01*
X2746502Y-5293969D01*
X2759303Y-5294579D01*
X2771241Y-5296458D01*
X2782316Y-5299608D01*
X2792577Y-5304028D01*
X2801975Y-5309666D01*
X2810510Y-5316575D01*
X2818028Y-5324551D01*
X2824276Y-5333339D01*
X2829102Y-5342940D01*
X2832658Y-5353253D01*
X2834792Y-5364378D01*
X2835656Y-5376265D01*
X2834894Y-5390083D01*
X2832608Y-5403697D01*
X2708402Y-5403697D01*
X2710891Y-5417413D01*
X2715361Y-5428691D01*
X2721813Y-5437428D01*
X2730195Y-5443677D01*
X2740558Y-5447385D01*
X2752852Y-5448655D01*
X2771190Y-5445963D01*
X2782570Y-5437987D01*
X2786024Y-5432907D01*
X2788716Y-5428081D01*
X2790698Y-5423509D01*
X2791968Y-5419191D01*
X2837180Y-5427573D01*
X2834894Y-5439765D01*
X2830017Y-5451246D01*
X2822549Y-5462016D01*
X2812542Y-5472023D01*
X2804515Y-5477916D01*
X2795422Y-5482742D01*
X2785364Y-5486501D01*
X2782229Y-5487263D01*
X2856230Y-5487263D01*
X2856230Y-5446369D01*
X2881376Y-5446369D01*
X2881376Y-5336387D01*
X2858262Y-5336387D01*
X2858262Y-5297779D01*
X2881376Y-5297779D01*
X2881376Y-5268823D01*
X2882595Y-5254498D01*
X2886202Y-5241086D01*
X2892247Y-5228488D01*
X2900680Y-5216753D01*
X2907639Y-5209844D01*
X2915564Y-5204206D01*
X2924505Y-5199786D01*
X2934411Y-5196636D01*
X2945384Y-5194757D01*
X2957322Y-5194147D01*
X2975152Y-5195620D01*
X2984246Y-5197906D01*
X2984246Y-5198211D01*
X3075432Y-5198211D01*
X3075432Y-5394807D01*
X3115310Y-5394807D01*
X3116021Y-5381244D01*
X3118104Y-5368340D01*
X3121609Y-5356148D01*
X3126486Y-5344566D01*
X3132785Y-5333644D01*
X3140456Y-5323433D01*
X3147212Y-5316474D01*
X3154781Y-5310428D01*
X3163112Y-5305298D01*
X3172256Y-5301132D01*
X3182213Y-5297881D01*
X3192983Y-5295544D01*
X3204565Y-5294172D01*
X3216910Y-5293715D01*
X3229305Y-5294172D01*
X3240887Y-5295544D01*
X3251417Y-5297779D01*
X3430270Y-5297779D01*
X3430270Y-5338419D01*
X3404362Y-5338419D01*
X3427476Y-5412333D01*
X3430015Y-5412333D01*
X3474465Y-5297779D01*
X3506724Y-5297779D01*
X3558540Y-5410809D01*
X3561079Y-5410809D01*
X3576574Y-5338419D01*
X3551682Y-5338419D01*
X3551682Y-5297779D01*
X3641598Y-5297779D01*
X3641598Y-5338419D01*
X3625087Y-5338419D01*
X3618031Y-5358993D01*
X3658870Y-5358993D01*
X3659581Y-5345430D01*
X3661765Y-5332780D01*
X3665423Y-5320944D01*
X3670503Y-5309971D01*
X3677056Y-5299913D01*
X3685032Y-5290667D01*
X3694277Y-5282590D01*
X3704539Y-5275986D01*
X3715918Y-5270855D01*
X3728262Y-5267198D01*
X3741674Y-5264962D01*
X3756151Y-5264251D01*
X3769156Y-5264810D01*
X3781196Y-5266588D01*
X3792270Y-5269585D01*
X3802430Y-5273700D01*
X3811676Y-5279034D01*
X3819906Y-5285536D01*
X3827221Y-5293207D01*
X3833622Y-5302097D01*
X3839210Y-5311851D01*
X3844086Y-5322265D01*
X3848150Y-5333339D01*
X3851554Y-5345125D01*
X3854145Y-5357622D01*
X3856024Y-5370779D01*
X3857142Y-5384596D01*
X3857498Y-5399125D01*
X3857193Y-5411825D01*
X3856329Y-5424271D01*
X3855853Y-5428335D01*
X3876801Y-5428335D01*
X3959860Y-5268315D01*
X4059936Y-5268315D01*
X4059936Y-5356707D01*
X4122928Y-5356707D01*
X4123232Y-5343906D01*
X4124096Y-5331409D01*
X4125518Y-5319217D01*
X4127550Y-5307380D01*
X4130141Y-5295798D01*
X4133342Y-5284571D01*
X4137253Y-5273802D01*
X4141927Y-5263794D01*
X4147362Y-5254447D01*
X4153560Y-5245862D01*
X4160469Y-5237937D01*
X4168140Y-5230723D01*
X4176674Y-5224373D01*
X4186123Y-5219141D01*
X4196588Y-5215077D01*
X4207967Y-5212181D01*
X4220362Y-5210454D01*
X4233672Y-5209895D01*
X4245152Y-5210403D01*
X4256481Y-5212029D01*
X4267606Y-5214721D01*
X4278630Y-5218531D01*
X4289094Y-5223510D01*
X4298696Y-5230012D01*
X4307382Y-5238089D01*
X4315206Y-5247741D01*
X4282948Y-5280253D01*
X4273550Y-5270449D01*
X4261866Y-5263489D01*
X4247896Y-5259273D01*
X4231640Y-5257901D01*
X4220159Y-5258968D01*
X4210405Y-5262219D01*
X4202379Y-5267604D01*
X4196080Y-5275173D01*
X4191304Y-5285333D01*
X4187698Y-5298490D01*
X4185208Y-5314645D01*
X4183430Y-5340400D01*
X4183379Y-5343499D01*
X4192422Y-5331002D01*
X4205224Y-5320385D01*
X4213199Y-5316169D01*
X4222445Y-5313121D01*
X4232910Y-5311343D01*
X4244594Y-5310733D01*
X4258056Y-5311495D01*
X4270095Y-5313781D01*
X4280712Y-5317591D01*
X4289958Y-5322925D01*
X4297832Y-5329783D01*
X4304284Y-5338165D01*
X4311853Y-5351983D01*
X4317238Y-5366359D01*
X4320489Y-5381193D01*
X4321556Y-5396585D01*
X4320844Y-5410098D01*
X4318660Y-5422798D01*
X4315002Y-5434634D01*
X4309922Y-5445556D01*
X4303369Y-5455666D01*
X4295394Y-5464911D01*
X4286097Y-5472988D01*
X4275734Y-5479592D01*
X4264355Y-5484723D01*
X4251909Y-5488381D01*
X4238498Y-5490565D01*
X4224020Y-5491327D01*
X4211066Y-5490718D01*
X4199077Y-5488990D01*
X4188002Y-5486044D01*
X4177842Y-5481929D01*
X4168648Y-5476646D01*
X4160367Y-5470194D01*
X4153001Y-5462524D01*
X4146550Y-5453735D01*
X4141012Y-5443931D01*
X4136237Y-5433466D01*
X4132173Y-5422341D01*
X4128820Y-5410555D01*
X4126229Y-5398109D01*
X4124401Y-5384952D01*
X4123283Y-5371185D01*
X4122928Y-5356707D01*
X4059936Y-5356707D01*
X4059936Y-5428335D01*
X4101084Y-5428335D01*
X4096765Y-5475071D01*
X4059936Y-5475071D01*
X4059936Y-5541873D01*
X4003548Y-5541873D01*
X4003548Y-5475071D01*
X3882644Y-5475071D01*
X3876801Y-5428335D01*
X3855853Y-5428335D01*
X3854907Y-5436412D01*
X3852875Y-5448249D01*
X3850284Y-5459780D01*
X3847084Y-5471007D01*
X3843172Y-5481828D01*
X3838448Y-5491937D01*
X3832961Y-5501284D01*
X3826764Y-5509971D01*
X3819804Y-5517896D01*
X3812032Y-5525109D01*
X3803446Y-5531408D01*
X3793896Y-5536539D01*
X3783431Y-5540552D01*
X3772052Y-5543397D01*
X3759758Y-5545124D01*
X3746500Y-5545683D01*
X3734917Y-5545175D01*
X3723538Y-5543600D01*
X3712311Y-5540959D01*
X3701287Y-5537301D01*
X3690823Y-5532323D01*
X3681374Y-5525719D01*
X3672789Y-5517591D01*
X3665220Y-5507837D01*
X3697478Y-5475579D01*
X3706774Y-5485231D01*
X3718458Y-5492140D01*
X3732428Y-5496306D01*
X3748786Y-5497677D01*
X3760215Y-5496610D01*
X3769918Y-5493359D01*
X3777894Y-5487974D01*
X3784092Y-5480405D01*
X3788765Y-5470347D01*
X3792423Y-5457240D01*
X3795014Y-5441035D01*
X3796995Y-5415127D01*
X3797046Y-5412079D01*
X3788054Y-5424271D01*
X3775201Y-5434939D01*
X3767226Y-5439257D01*
X3757929Y-5442356D01*
X3747363Y-5444236D01*
X3735578Y-5444845D01*
X3722166Y-5444083D01*
X3710127Y-5441797D01*
X3699510Y-5437987D01*
X3690315Y-5432653D01*
X3682542Y-5425795D01*
X3676142Y-5417413D01*
X3668572Y-5403392D01*
X3663187Y-5388965D01*
X3659936Y-5374182D01*
X3658870Y-5358993D01*
X3618031Y-5358993D01*
X3574034Y-5487263D01*
X3533648Y-5487263D01*
X3484626Y-5373725D01*
X3482086Y-5373725D01*
X3437382Y-5487263D01*
X3399282Y-5487263D01*
X3346704Y-5338419D01*
X3330701Y-5338419D01*
X3330701Y-5297779D01*
X3251657Y-5297830D01*
X3261614Y-5301081D01*
X3270707Y-5305196D01*
X3278987Y-5310276D01*
X3286455Y-5316270D01*
X3293110Y-5323179D01*
X3300780Y-5333339D01*
X3307079Y-5344109D01*
X3311956Y-5355437D01*
X3315462Y-5367324D01*
X3317544Y-5379770D01*
X3318256Y-5392775D01*
X3317443Y-5407253D01*
X3315004Y-5420715D01*
X3310890Y-5433212D01*
X3305149Y-5444693D01*
X3297783Y-5455158D01*
X3288792Y-5464657D01*
X3278530Y-5472785D01*
X3267405Y-5479491D01*
X3255365Y-5484672D01*
X3242513Y-5488381D01*
X3228746Y-5490565D01*
X3214116Y-5491327D01*
X3199993Y-5490616D01*
X3186785Y-5488482D01*
X3174441Y-5484977D01*
X3162960Y-5480050D01*
X3152394Y-5473700D01*
X3142742Y-5465927D01*
X3134360Y-5456885D01*
X3127502Y-5446725D01*
X3122168Y-5435447D01*
X3118358Y-5423001D01*
X3116072Y-5409488D01*
X3115310Y-5394807D01*
X3075432Y-5394807D01*
X3075432Y-5446369D01*
X3100578Y-5446369D01*
X3100578Y-5487263D01*
X2995930Y-5487263D01*
X2995930Y-5446369D01*
X3021330Y-5446369D01*
X3021330Y-5239359D01*
X2993898Y-5239359D01*
X2993898Y-5198211D01*
X2984246Y-5198211D01*
X2984246Y-5244998D01*
X2977388Y-5242661D01*
X2973120Y-5241442D01*
X2968955Y-5240578D01*
X2964840Y-5240020D01*
X2960878Y-5239867D01*
X2955950Y-5240172D01*
X2951327Y-5241188D01*
X2947060Y-5242864D01*
X2943098Y-5245201D01*
X2939745Y-5248503D01*
X2937357Y-5252770D01*
X2935935Y-5258003D01*
X2935478Y-5264251D01*
X2935478Y-5297779D01*
X2982214Y-5297779D01*
X2982214Y-5336387D01*
X2935478Y-5336387D01*
X2935478Y-5446369D01*
X2966974Y-5446369D01*
X2966974Y-5487263D01*
X2782229Y-5487263D01*
X2774289Y-5489194D01*
X2762148Y-5490768D01*
X2749042Y-5491327D01*
X2735326Y-5490667D01*
X2722422Y-5488686D01*
X2710383Y-5485333D01*
X2699156Y-5480710D01*
X2688742Y-5474716D01*
X2679192Y-5467451D01*
X2670810Y-5458815D01*
X2663952Y-5448909D01*
X2658618Y-5437682D01*
X2654808Y-5425135D01*
X2652522Y-5411266D01*
X2651760Y-5396077D01*
X2581661Y-5396077D01*
X2605024Y-5439257D01*
X2637790Y-5439257D01*
X2637790Y-5487263D01*
X2568194Y-5487263D01*
X2513838Y-5383123D01*
X2477008Y-5383123D01*
X2477008Y-5439257D01*
X2506218Y-5439257D01*
X2506218Y-5487263D01*
X2391156Y-5487263D01*
X2391156Y-5439257D01*
X2420620Y-5439257D01*
X2420620Y-5262219D01*
X2391156Y-5262219D01*
X2391156Y-5214213D01*
X2370582Y-5214213D01*
X2370582Y-5576671D01*
X4338828Y-5576671D01*
X4338828Y-5102199D01*
G37*
G36*
X2477008Y-5262219D02*
G01*
X2477008Y-5338419D01*
X2503932Y-5338419D01*
X2518765Y-5337759D01*
X2531059Y-5335828D01*
X2540762Y-5332577D01*
X2547874Y-5328005D01*
X2556662Y-5315356D01*
X2559558Y-5298287D01*
X2556560Y-5280863D01*
X2547620Y-5269839D01*
X2540355Y-5266486D01*
X2530805Y-5264099D01*
X2518918Y-5262676D01*
X2504694Y-5262219D01*
G37*
G36*
X3755390Y-5313781D02*
G01*
X3743604Y-5314950D01*
X3733952Y-5318556D01*
X3726434Y-5324551D01*
X3721049Y-5332984D01*
X3717848Y-5343753D01*
X3716782Y-5356961D01*
X3718814Y-5374284D01*
X3724910Y-5387695D01*
X3736289Y-5396280D01*
X3754120Y-5399125D01*
X3772103Y-5396382D01*
X3784854Y-5388203D01*
X3792677Y-5376113D01*
X3795776Y-5361279D01*
X3794353Y-5349849D01*
X3792016Y-5340045D01*
X3788867Y-5331815D01*
X3784854Y-5325211D01*
X3773068Y-5316626D01*
G37*
G36*
X3987800Y-5316321D02*
G01*
X3930650Y-5428335D01*
X4003548Y-5428335D01*
X4003548Y-5316321D01*
G37*
G36*
X2746502Y-5332577D02*
G01*
X2731668Y-5335320D01*
X2720594Y-5343499D01*
X2712923Y-5356148D01*
X2708656Y-5372201D01*
X2779776Y-5372201D01*
X2779115Y-5358333D01*
X2773680Y-5345277D01*
X2762961Y-5335727D01*
G37*
G36*
X3216148Y-5335117D02*
G01*
X3206191Y-5336032D01*
X3197352Y-5338876D01*
X3189681Y-5343550D01*
X3183128Y-5350103D01*
X3177895Y-5358333D01*
X3174187Y-5367985D01*
X3171952Y-5379161D01*
X3171190Y-5391759D01*
X3171901Y-5403494D01*
X3173984Y-5414314D01*
X3177489Y-5424170D01*
X3182366Y-5433161D01*
X3188614Y-5440476D01*
X3196285Y-5445709D01*
X3205276Y-5448858D01*
X3215640Y-5449925D01*
X3225647Y-5448909D01*
X3234639Y-5445963D01*
X3242564Y-5441035D01*
X3249422Y-5434177D01*
X3255111Y-5425541D01*
X3259124Y-5415483D01*
X3261563Y-5403951D01*
X3262376Y-5390997D01*
X3261512Y-5377484D01*
X3259023Y-5365902D01*
X3254806Y-5356250D01*
X3248914Y-5348579D01*
X3241802Y-5342686D01*
X3233978Y-5338470D01*
X3225444Y-5335930D01*
G37*
G36*
X4226306Y-5356707D02*
G01*
X4208322Y-5359349D01*
X4195572Y-5367375D01*
X4187748Y-5379415D01*
X4184650Y-5394299D01*
X4186072Y-5405678D01*
X4188409Y-5415483D01*
X4191558Y-5423712D01*
X4195572Y-5430367D01*
X4207408Y-5438952D01*
X4225036Y-5441797D01*
X4236821Y-5440578D01*
X4246473Y-5436971D01*
X4253992Y-5430977D01*
X4259376Y-5422595D01*
X4262577Y-5411825D01*
X4263644Y-5398617D01*
X4261561Y-5381294D01*
X4255262Y-5367883D01*
X4243832Y-5359501D01*
G37*
G36*
X6105702Y-5369204D02*
G01*
X6105702Y-5396128D01*
X6106210Y-5408066D01*
X6101689Y-5404662D01*
X6097168Y-5402122D01*
X6092240Y-5400497D01*
X6086652Y-5399938D01*
X6080810Y-5400598D01*
X6075324Y-5402478D01*
X6070244Y-5405526D01*
X6065723Y-5409742D01*
X6062014Y-5414975D01*
X6059119Y-5421172D01*
X6057290Y-5428284D01*
X6056700Y-5436006D01*
X6067602Y-5436006D01*
X6068009Y-5430266D01*
X6069177Y-5424982D01*
X6071006Y-5420309D01*
X6073495Y-5416296D01*
X6076492Y-5413044D01*
X6079998Y-5410606D01*
X6083909Y-5409082D01*
X6088176Y-5408574D01*
X6092596Y-5409031D01*
X6096914Y-5410403D01*
X6101232Y-5412892D01*
X6105702Y-5416448D01*
X6105702Y-5453532D01*
X6101130Y-5457748D01*
X6096609Y-5460746D01*
X6091986Y-5462574D01*
X6087160Y-5463184D01*
X6082741Y-5462727D01*
X6078829Y-5461355D01*
X6075476Y-5459069D01*
X6072682Y-5455970D01*
X6070498Y-5452110D01*
X6068872Y-5447436D01*
X6067907Y-5442051D01*
X6067602Y-5436006D01*
X6056700Y-5436006D01*
X6057188Y-5444286D01*
X6058662Y-5451398D01*
X6061100Y-5457545D01*
X6064402Y-5462676D01*
X6068517Y-5466689D01*
X6073394Y-5469686D01*
X6078931Y-5471464D01*
X6085128Y-5472074D01*
X6091174Y-5471261D01*
X6096812Y-5469128D01*
X6101842Y-5465978D01*
X6106210Y-5462168D01*
X6106464Y-5462168D01*
X6107480Y-5470296D01*
X6116116Y-5470296D01*
X6116116Y-5369204D01*
G37*
G36*
X5706922Y-5377332D02*
G01*
X5706922Y-5385968D01*
X5728766Y-5385968D01*
X5734151Y-5386273D01*
X5739079Y-5387086D01*
X5743549Y-5388508D01*
X5747562Y-5390438D01*
X5751068Y-5392877D01*
X5754116Y-5395823D01*
X5756706Y-5399278D01*
X5758789Y-5403189D01*
X5760415Y-5407609D01*
X5761583Y-5412486D01*
X5762294Y-5417820D01*
X5762548Y-5423560D01*
X5762294Y-5429300D01*
X5761583Y-5434584D01*
X5760415Y-5439511D01*
X5758789Y-5443931D01*
X5756706Y-5447944D01*
X5754116Y-5451500D01*
X5751068Y-5454497D01*
X5747562Y-5457037D01*
X5743549Y-5459018D01*
X5739079Y-5460492D01*
X5734151Y-5461355D01*
X5728766Y-5461660D01*
X5717590Y-5461660D01*
X5717590Y-5385968D01*
X5706922Y-5385968D01*
X5706922Y-5470296D01*
X5730290Y-5470296D01*
X5736996Y-5469940D01*
X5743143Y-5468874D01*
X5748782Y-5467096D01*
X5753811Y-5464606D01*
X5758281Y-5461508D01*
X5762193Y-5457799D01*
X5765546Y-5453481D01*
X5768289Y-5448554D01*
X5770422Y-5443067D01*
X5771946Y-5437073D01*
X5772912Y-5430570D01*
X5773216Y-5423560D01*
X5772912Y-5416550D01*
X5771946Y-5409996D01*
X5770422Y-5404002D01*
X5768238Y-5398617D01*
X5765495Y-5393740D01*
X5762142Y-5389524D01*
X5758230Y-5385866D01*
X5753658Y-5382818D01*
X5748578Y-5380482D01*
X5742838Y-5378754D01*
X5736590Y-5377688D01*
X5729782Y-5377332D01*
G37*
G36*
X5898438Y-5399938D02*
G01*
X5892850Y-5400954D01*
X5887618Y-5403850D01*
X5882995Y-5408422D01*
X5879134Y-5414416D01*
X5878626Y-5414416D01*
X5877610Y-5401716D01*
X5869228Y-5401716D01*
X5869228Y-5470296D01*
X5879642Y-5470296D01*
X5879642Y-5425592D01*
X5883452Y-5418023D01*
X5887923Y-5412994D01*
X5892596Y-5410200D01*
X5897168Y-5409336D01*
X5900572Y-5409590D01*
X5903772Y-5410352D01*
X5905804Y-5401462D01*
X5904077Y-5400700D01*
X5900420Y-5399989D01*
G37*
G36*
X5939332Y-5399938D02*
G01*
X5931255Y-5400802D01*
X5923991Y-5402986D01*
X5917692Y-5405932D01*
X5912662Y-5409082D01*
X5916726Y-5416194D01*
X5920943Y-5413400D01*
X5925870Y-5410962D01*
X5931458Y-5409234D01*
X5937554Y-5408574D01*
X5944768Y-5410149D01*
X5949238Y-5414314D01*
X5951524Y-5420258D01*
X5952032Y-5427116D01*
X5941822Y-5428538D01*
X5933084Y-5430418D01*
X5925769Y-5432755D01*
X5919876Y-5435549D01*
X5915304Y-5438902D01*
X5912104Y-5442813D01*
X5910224Y-5447334D01*
X5909674Y-5452008D01*
X5919774Y-5452008D01*
X5920181Y-5448655D01*
X5921400Y-5445607D01*
X5923584Y-5442915D01*
X5926836Y-5440527D01*
X5931204Y-5438444D01*
X5936792Y-5436666D01*
X5943701Y-5435193D01*
X5952032Y-5433974D01*
X5952032Y-5454040D01*
X5947054Y-5458256D01*
X5942228Y-5461254D01*
X5937453Y-5463082D01*
X5932474Y-5463692D01*
X5927496Y-5463032D01*
X5923432Y-5461000D01*
X5920740Y-5457393D01*
X5919774Y-5452008D01*
X5909674Y-5452008D01*
X5909614Y-5452516D01*
X5911138Y-5460949D01*
X5915355Y-5467045D01*
X5921705Y-5470804D01*
X5929680Y-5472074D01*
X5935980Y-5471261D01*
X5941974Y-5469077D01*
X5947511Y-5465876D01*
X5952540Y-5461914D01*
X5953048Y-5461914D01*
X5954064Y-5470296D01*
X5962446Y-5470296D01*
X5962446Y-5427624D01*
X5962091Y-5421782D01*
X5961126Y-5416448D01*
X5959449Y-5411724D01*
X5957062Y-5407710D01*
X5953861Y-5404408D01*
X5949899Y-5401970D01*
X5945073Y-5400446D01*
G37*
G36*
X6018072Y-5399938D02*
G01*
X6011418Y-5400903D01*
X6005474Y-5403443D01*
X6000038Y-5407253D01*
X5994958Y-5411876D01*
X5994450Y-5411876D01*
X5993434Y-5401716D01*
X5985052Y-5401716D01*
X5985052Y-5470296D01*
X5995466Y-5470296D01*
X5995466Y-5420258D01*
X6000343Y-5415432D01*
X6005017Y-5411927D01*
X6009792Y-5409793D01*
X6015024Y-5409082D01*
X6021070Y-5410200D01*
X6025286Y-5413654D01*
X6027674Y-5419598D01*
X6028486Y-5428132D01*
X6028486Y-5470296D01*
X6038900Y-5470296D01*
X6038900Y-5426608D01*
X6038596Y-5420461D01*
X6037630Y-5415076D01*
X6036056Y-5410454D01*
X6033820Y-5406694D01*
X6030874Y-5403748D01*
X6027318Y-5401665D01*
X6023051Y-5400395D01*
G37*
G36*
X5791758Y-5401716D02*
G01*
X5791758Y-5445150D01*
X5792063Y-5451348D01*
X5792978Y-5456783D01*
X5794603Y-5461406D01*
X5796838Y-5465216D01*
X5799734Y-5468162D01*
X5803341Y-5470347D01*
X5807608Y-5471668D01*
X5812586Y-5472074D01*
X5819343Y-5471160D01*
X5825236Y-5468518D01*
X5830519Y-5464454D01*
X5835446Y-5459374D01*
X5835954Y-5459374D01*
X5836716Y-5470296D01*
X5845098Y-5470296D01*
X5845098Y-5401716D01*
X5834938Y-5401716D01*
X5834938Y-5450992D01*
X5830011Y-5456428D01*
X5825388Y-5460136D01*
X5820664Y-5462270D01*
X5815634Y-5462930D01*
X5809437Y-5461863D01*
X5805271Y-5458510D01*
X5802884Y-5452668D01*
X5802172Y-5444134D01*
X5802172Y-5401716D01*
G37*
G36*
X6105906Y-5267909D02*
G01*
X6105906Y-5294833D01*
X6106414Y-5306771D01*
X6101791Y-5303367D01*
X6097219Y-5300776D01*
X6092240Y-5299202D01*
X6086602Y-5298643D01*
X6080810Y-5299252D01*
X6075324Y-5301183D01*
X6070295Y-5304231D01*
X6065875Y-5308396D01*
X6062167Y-5313629D01*
X6059322Y-5319826D01*
X6057544Y-5326989D01*
X6056905Y-5334711D01*
X6067552Y-5334711D01*
X6068009Y-5328920D01*
X6069177Y-5323687D01*
X6071108Y-5319014D01*
X6073597Y-5315000D01*
X6076696Y-5311749D01*
X6080201Y-5309311D01*
X6084163Y-5307787D01*
X6088380Y-5307279D01*
X6092698Y-5307736D01*
X6096965Y-5309108D01*
X6101334Y-5311546D01*
X6105906Y-5315153D01*
X6105906Y-5352237D01*
X6101384Y-5356402D01*
X6096863Y-5359450D01*
X6092190Y-5361279D01*
X6087364Y-5361889D01*
X6082893Y-5361432D01*
X6078931Y-5360009D01*
X6075527Y-5357774D01*
X6072733Y-5354675D01*
X6070498Y-5350764D01*
X6068872Y-5346141D01*
X6067907Y-5340756D01*
X6067552Y-5334711D01*
X6056905Y-5334711D01*
X6057392Y-5342991D01*
X6058865Y-5350103D01*
X6061252Y-5356199D01*
X6064504Y-5361330D01*
X6068568Y-5365394D01*
X6073394Y-5368340D01*
X6078931Y-5370169D01*
X6085078Y-5370779D01*
X6091174Y-5369966D01*
X6096812Y-5367832D01*
X6101943Y-5364683D01*
X6106414Y-5360873D01*
X6106668Y-5360873D01*
X6107684Y-5369001D01*
X6116066Y-5369001D01*
X6116066Y-5267909D01*
G37*
G36*
X5733542Y-5276037D02*
G01*
X5714630Y-5331409D01*
X5724652Y-5331409D01*
X5731916Y-5308498D01*
X5738876Y-5284673D01*
X5739384Y-5284673D01*
X5746496Y-5308498D01*
X5753862Y-5331409D01*
X5714630Y-5331409D01*
X5701792Y-5369001D01*
X5712460Y-5369001D01*
X5721858Y-5339537D01*
X5756656Y-5339537D01*
X5765800Y-5369001D01*
X5776976Y-5369001D01*
X5745226Y-5276037D01*
G37*
G36*
X5818886Y-5298643D02*
G01*
X5813196Y-5299659D01*
X5807964Y-5302554D01*
X5803341Y-5307076D01*
X5799328Y-5313121D01*
X5799074Y-5313121D01*
X5798058Y-5300421D01*
X5789676Y-5300421D01*
X5789676Y-5369001D01*
X5799836Y-5369001D01*
X5799836Y-5324297D01*
X5803849Y-5316728D01*
X5808370Y-5311698D01*
X5813094Y-5308904D01*
X5817616Y-5308041D01*
X5820918Y-5308244D01*
X5823966Y-5309057D01*
X5825998Y-5300167D01*
X5822645Y-5298897D01*
G37*
G36*
X5870702Y-5298643D02*
G01*
X5864098Y-5299557D01*
X5858103Y-5302148D01*
X5852668Y-5305907D01*
X5847588Y-5310581D01*
X5847080Y-5310581D01*
X5846064Y-5300421D01*
X5837682Y-5300421D01*
X5837682Y-5369001D01*
X5848096Y-5369001D01*
X5848096Y-5318963D01*
X5853125Y-5314086D01*
X5857798Y-5310581D01*
X5862523Y-5308498D01*
X5867654Y-5307787D01*
X5873750Y-5308904D01*
X5877915Y-5312359D01*
X5880354Y-5318302D01*
X5881116Y-5326837D01*
X5881116Y-5369001D01*
X5891530Y-5369001D01*
X5891530Y-5325313D01*
X5891225Y-5319115D01*
X5890310Y-5313730D01*
X5888736Y-5309158D01*
X5886450Y-5305399D01*
X5883554Y-5302453D01*
X5879998Y-5300319D01*
X5875680Y-5299049D01*
G37*
G36*
X5939790Y-5298643D02*
G01*
X5931763Y-5299506D01*
X5924499Y-5301691D01*
X5918200Y-5304637D01*
X5913120Y-5307787D01*
X5917184Y-5314899D01*
X5921552Y-5312105D01*
X5926582Y-5309666D01*
X5932119Y-5307939D01*
X5938012Y-5307279D01*
X5945378Y-5308854D01*
X5949899Y-5313019D01*
X5952134Y-5318963D01*
X5952744Y-5325821D01*
X5942482Y-5327243D01*
X5933694Y-5329123D01*
X5926328Y-5331409D01*
X5920384Y-5334203D01*
X5915812Y-5337556D01*
X5912612Y-5341467D01*
X5910732Y-5346039D01*
X5910136Y-5350713D01*
X5920232Y-5350713D01*
X5920638Y-5347360D01*
X5921908Y-5344312D01*
X5924092Y-5341620D01*
X5927344Y-5339232D01*
X5931763Y-5337149D01*
X5937402Y-5335320D01*
X5944362Y-5333847D01*
X5952744Y-5332679D01*
X5952744Y-5352745D01*
X5947613Y-5356910D01*
X5942787Y-5359958D01*
X5937961Y-5361787D01*
X5932932Y-5362397D01*
X5927953Y-5361736D01*
X5923940Y-5359704D01*
X5921248Y-5356047D01*
X5920232Y-5350713D01*
X5910136Y-5350713D01*
X5910072Y-5351221D01*
X5911646Y-5359603D01*
X5915863Y-5365750D01*
X5922213Y-5369509D01*
X5930138Y-5370779D01*
X5936488Y-5369966D01*
X5942482Y-5367782D01*
X5948070Y-5364530D01*
X5953252Y-5360619D01*
X5953506Y-5360619D01*
X5954522Y-5369001D01*
X5962904Y-5369001D01*
X5962904Y-5326329D01*
X5962599Y-5320487D01*
X5961634Y-5315153D01*
X5959957Y-5310428D01*
X5957570Y-5306364D01*
X5954369Y-5303113D01*
X5950407Y-5300675D01*
X5945530Y-5299151D01*
G37*
G36*
X5984494Y-5300421D02*
G01*
X5984494Y-5343855D01*
X5984849Y-5350052D01*
X5985764Y-5355437D01*
X5987338Y-5360060D01*
X5989574Y-5363870D01*
X5992520Y-5366867D01*
X5996076Y-5369052D01*
X6000343Y-5370322D01*
X6005322Y-5370779D01*
X6012078Y-5369814D01*
X6018022Y-5367172D01*
X6023305Y-5363159D01*
X6028182Y-5358079D01*
X6028690Y-5358079D01*
X6029452Y-5369001D01*
X6038088Y-5369001D01*
X6038088Y-5300421D01*
X6027674Y-5300421D01*
X6027674Y-5349697D01*
X6022848Y-5355082D01*
X6018225Y-5358790D01*
X6013551Y-5360924D01*
X6008370Y-5361635D01*
X6002223Y-5360568D01*
X5998057Y-5357164D01*
X5995670Y-5351322D01*
X5994908Y-5342839D01*
X5994908Y-5300421D01*
G37*
D10*
X4449767Y-5377924D02*
G01*
X4449767Y-5467078D01*
X4449767Y-5416278D02*
G01*
X4456117Y-5396974D01*
X4468817Y-5384274D01*
X4481517Y-5377924D01*
X4500567Y-5377924D01*
X4542731Y-5358874D02*
G01*
X4555431Y-5352524D01*
X4574481Y-5333474D01*
X4574481Y-5467078D01*
X4622741Y-5435328D02*
G01*
X4616391Y-5441678D01*
X4622741Y-5448028D01*
X4629345Y-5441678D01*
X4622741Y-5435328D01*
X4709355Y-5333474D02*
G01*
X4690305Y-5339824D01*
X4677605Y-5358874D01*
X4671255Y-5390624D01*
X4671255Y-5409928D01*
X4677605Y-5441678D01*
X4690305Y-5460728D01*
X4709355Y-5467078D01*
X4722055Y-5467078D01*
X4741105Y-5460728D01*
X4754059Y-5441678D01*
X4760409Y-5409928D01*
X4760409Y-5390624D01*
X4754059Y-5358874D01*
X4741105Y-5339824D01*
X4722055Y-5333474D01*
X4709355Y-5333474D01*
D11*
X10136952Y-772144D02*
G01*
X10136952Y-881110D01*
X10136952Y-772144D02*
G01*
X10183688Y-772144D01*
X10199182Y-777224D01*
X10204516Y-782558D01*
X10209596Y-792972D01*
X10209596Y-808466D01*
X10204516Y-818880D01*
X10199182Y-823960D01*
X10183688Y-829294D01*
X10136952Y-829294D01*
X10254300Y-772144D02*
G01*
X10311450Y-772144D01*
X10280462Y-813800D01*
X10295956Y-813800D01*
X10306370Y-818880D01*
X10311450Y-823960D01*
X10316784Y-839708D01*
X10316784Y-850122D01*
X10311450Y-865616D01*
X10301036Y-876030D01*
X10285542Y-881110D01*
X10270048Y-881110D01*
X10254300Y-876030D01*
X10249220Y-870950D01*
X10243886Y-860536D01*
D12*
X1974850Y-4358894D02*
G01*
X1974850Y-4444745D01*
X1974850Y-4358894D02*
G01*
X2011679Y-4358894D01*
X2023871Y-4362957D01*
X2028189Y-4367021D01*
X2032254Y-4375404D01*
X2032254Y-4383531D01*
X2028189Y-4391660D01*
X2023871Y-4395723D01*
X2011679Y-4399787D01*
X1974850Y-4399787D01*
X2003552Y-4399787D02*
G01*
X2032254Y-4444745D01*
X2059178Y-4375404D02*
G01*
X2067305Y-4371339D01*
X2079752Y-4358894D01*
X2079752Y-4444745D01*
D10*
X1946503Y-4687315D02*
G01*
X2007971Y-4687315D01*
X2020163Y-4683252D01*
X2028291Y-4674870D01*
X2032355Y-4662678D01*
X2032355Y-4654550D01*
X2028291Y-4642357D01*
X2020163Y-4633976D01*
X2007971Y-4629912D01*
X1946503Y-4629912D01*
X1946503Y-4594860D02*
G01*
X1946503Y-4549902D01*
X1979269Y-4574286D01*
X1979269Y-4562094D01*
X1983333Y-4553965D01*
X1987397Y-4549902D01*
X1999843Y-4545837D01*
X2007971Y-4545837D01*
X2020163Y-4549902D01*
X2028291Y-4558029D01*
X2032355Y-4570221D01*
X2032355Y-4582413D01*
X2028291Y-4594860D01*
X2024227Y-4598923D01*
X2016099Y-4602987D01*
D12*
X1199883Y-4359038D02*
G01*
X1199883Y-4444890D01*
X1199883Y-4359038D02*
G01*
X1236713Y-4359038D01*
X1248905Y-4363102D01*
X1253223Y-4367166D01*
X1257287Y-4375294D01*
X1257287Y-4383422D01*
X1253223Y-4391550D01*
X1248905Y-4395868D01*
X1236713Y-4399932D01*
X1199883Y-4399932D01*
X1228585Y-4399932D02*
G01*
X1257287Y-4444890D01*
X1304785Y-4359038D02*
G01*
X1292339Y-4363102D01*
X1288275Y-4371230D01*
X1288275Y-4379358D01*
X1292339Y-4387486D01*
X1300467Y-4391550D01*
X1316977Y-4395868D01*
X1329169Y-4399932D01*
X1337297Y-4408060D01*
X1341361Y-4416188D01*
X1341361Y-4428380D01*
X1337297Y-4436762D01*
X1333233Y-4440826D01*
X1321041Y-4444890D01*
X1304785Y-4444890D01*
X1292339Y-4440826D01*
X1288275Y-4436762D01*
X1284211Y-4428380D01*
X1284211Y-4416188D01*
X1288275Y-4408060D01*
X1296403Y-4399932D01*
X1308849Y-4395868D01*
X1325105Y-4391550D01*
X1333233Y-4387486D01*
X1337297Y-4379358D01*
X1337297Y-4371230D01*
X1333233Y-4363102D01*
X1321041Y-4359038D01*
X1304785Y-4359038D01*
X786317Y-4379513D02*
G01*
X782253Y-4371131D01*
X774125Y-4363003D01*
X765743Y-4358939D01*
X749487Y-4358939D01*
X741359Y-4363003D01*
X733231Y-4371131D01*
X729167Y-4379513D01*
X724849Y-4391705D01*
X724849Y-4412025D01*
X729167Y-4424471D01*
X733231Y-4432599D01*
X741359Y-4440727D01*
X749487Y-4444791D01*
X765743Y-4444791D01*
X774125Y-4440727D01*
X782253Y-4432599D01*
X786317Y-4424471D01*
X862517Y-4358939D02*
G01*
X821623Y-4358939D01*
X817305Y-4395769D01*
X821623Y-4391705D01*
X833815Y-4387641D01*
X846007Y-4387641D01*
X858199Y-4391705D01*
X866581Y-4399833D01*
X870645Y-4412025D01*
X870645Y-4420407D01*
X866581Y-4432599D01*
X858199Y-4440727D01*
X846007Y-4444791D01*
X833815Y-4444791D01*
X821623Y-4440727D01*
X817305Y-4436663D01*
X813241Y-4428535D01*
X974879Y-4358987D02*
G01*
X974879Y-4444839D01*
X974879Y-4358987D02*
G01*
X1011709Y-4358987D01*
X1024155Y-4363051D01*
X1028219Y-4367115D01*
X1032283Y-4375243D01*
X1032283Y-4383371D01*
X1028219Y-4391753D01*
X1024155Y-4395817D01*
X1011709Y-4399881D01*
X974879Y-4399881D01*
X1003581Y-4399881D02*
G01*
X1032283Y-4444839D01*
X1108229Y-4371179D02*
G01*
X1104165Y-4363051D01*
X1091973Y-4358987D01*
X1083845Y-4358987D01*
X1071399Y-4363051D01*
X1063271Y-4375243D01*
X1059207Y-4395817D01*
X1059207Y-4416137D01*
X1063271Y-4432647D01*
X1071399Y-4440775D01*
X1083845Y-4444839D01*
X1087909Y-4444839D01*
X1100101Y-4440775D01*
X1108229Y-4432647D01*
X1112293Y-4420201D01*
X1112293Y-4416137D01*
X1108229Y-4403945D01*
X1100101Y-4395817D01*
X1087909Y-4391753D01*
X1083845Y-4391753D01*
X1071399Y-4395817D01*
X1063271Y-4403945D01*
X1059207Y-4416137D01*
X1148775Y-4954369D02*
G01*
X1144711Y-4946241D01*
X1136583Y-4938113D01*
X1128455Y-4933795D01*
X1111945Y-4933795D01*
X1103817Y-4938113D01*
X1095689Y-4946241D01*
X1091625Y-4954369D01*
X1087561Y-4966561D01*
X1087561Y-4987135D01*
X1091625Y-4999327D01*
X1095689Y-5007455D01*
X1103817Y-5015837D01*
X1111945Y-5019901D01*
X1128455Y-5019901D01*
X1136583Y-5015837D01*
X1144711Y-5007455D01*
X1148775Y-4999327D01*
X1216593Y-4933795D02*
G01*
X1175699Y-4991199D01*
X1237167Y-4991199D01*
X1216593Y-4933795D02*
G01*
X1216593Y-5019901D01*
X1796608Y-1849800D02*
G01*
X1882460Y-1849800D01*
X1796608Y-1849800D02*
G01*
X1796608Y-1812970D01*
X1800672Y-1800778D01*
X1804736Y-1796714D01*
X1812864Y-1792650D01*
X1821246Y-1792650D01*
X1829374Y-1796714D01*
X1833438Y-1800778D01*
X1837502Y-1812970D01*
X1837502Y-1849800D01*
X1837502Y-1821352D02*
G01*
X1882460Y-1792650D01*
X1816928Y-1761662D02*
G01*
X1812864Y-1761662D01*
X1804736Y-1757344D01*
X1800672Y-1753280D01*
X1796608Y-1745152D01*
X1796608Y-1728896D01*
X1800672Y-1720514D01*
X1804736Y-1716450D01*
X1812864Y-1712386D01*
X1821246Y-1712386D01*
X1829374Y-1716450D01*
X1841566Y-1724832D01*
X1882460Y-1765726D01*
X1882460Y-1708322D01*
X3221461Y-2612379D02*
G01*
X3307313Y-2612379D01*
X3221461Y-2612379D02*
G01*
X3221461Y-2575549D01*
X3225525Y-2563357D01*
X3229589Y-2559293D01*
X3237971Y-2554975D01*
X3246099Y-2554975D01*
X3254227Y-2559293D01*
X3258291Y-2563357D01*
X3262355Y-2575549D01*
X3262355Y-2612379D01*
X3262355Y-2583677D02*
G01*
X3307313Y-2554975D01*
X3242035Y-2523987D02*
G01*
X3237971Y-2523987D01*
X3229589Y-2519923D01*
X3225525Y-2515859D01*
X3221461Y-2507731D01*
X3221461Y-2491221D01*
X3225525Y-2483093D01*
X3229589Y-2479029D01*
X3237971Y-2474965D01*
X3246099Y-2474965D01*
X3254227Y-2479029D01*
X3266419Y-2487157D01*
X3307313Y-2528051D01*
X3307313Y-2470901D01*
X3237971Y-2443723D02*
G01*
X3233653Y-2435595D01*
X3221461Y-2423403D01*
X3307313Y-2423403D01*
X8953657Y-3739238D02*
G01*
X9056052Y-3701968D01*
X8953657Y-3739238D02*
G01*
X8937673Y-3695319D01*
X8937147Y-3679022D01*
X8940335Y-3672187D01*
X8948381Y-3663850D01*
X8958168Y-3660289D01*
X8969692Y-3661501D01*
X8976291Y-3664775D01*
X8986362Y-3677597D01*
X9002346Y-3721516D01*
X8989926Y-3687384D02*
G01*
X9031206Y-3633706D01*
X8895712Y-3580036D02*
G01*
X8913520Y-3628966D01*
X8959176Y-3617755D01*
X8952664Y-3614719D01*
X8942265Y-3601745D01*
X8936967Y-3587186D01*
X8936680Y-3570800D01*
X8942666Y-3557541D01*
X8955638Y-3547143D01*
X8965425Y-3543579D01*
X8981810Y-3543294D01*
X8995158Y-3549517D01*
X9005229Y-3562339D01*
X9010530Y-3576899D01*
X9011142Y-3593434D01*
X9008104Y-3599947D01*
X9000144Y-3608519D01*
X712462Y-572147D02*
G01*
X712462Y-681113D01*
X712462Y-572147D02*
G01*
X780026Y-572147D01*
X712462Y-623963D02*
G01*
X754118Y-623963D01*
X712462Y-681113D02*
G01*
X780026Y-681113D01*
X886960Y-587641D02*
G01*
X876546Y-577227D01*
X861052Y-572147D01*
X840224Y-572147D01*
X824730Y-577227D01*
X814316Y-587641D01*
X814316Y-598055D01*
X819396Y-608469D01*
X824730Y-613803D01*
X835144Y-618883D01*
X866132Y-629297D01*
X876546Y-634377D01*
X881880Y-639711D01*
X886960Y-650125D01*
X886960Y-665619D01*
X876546Y-676033D01*
X861052Y-681113D01*
X840224Y-681113D01*
X824730Y-676033D01*
X814316Y-665619D01*
X921250Y-572147D02*
G01*
X921250Y-681113D01*
X921250Y-572147D02*
G01*
X967986Y-572147D01*
X983734Y-577227D01*
X988814Y-582561D01*
X994148Y-592975D01*
X994148Y-608469D01*
X988814Y-618883D01*
X983734Y-623963D01*
X967986Y-629297D01*
X921250Y-629297D01*
X1028438Y-634377D02*
G01*
X1121910Y-634377D01*
X1156200Y-572147D02*
G01*
X1156200Y-681113D01*
X1156200Y-572147D02*
G01*
X1202936Y-572147D01*
X1218430Y-577227D01*
X1223764Y-582561D01*
X1228844Y-592975D01*
X1228844Y-608469D01*
X1223764Y-618883D01*
X1218430Y-623963D01*
X1202936Y-629297D01*
X1156200Y-629297D01*
X1263134Y-572147D02*
G01*
X1263134Y-681113D01*
X1263134Y-572147D02*
G01*
X1309870Y-572147D01*
X1325618Y-577227D01*
X1330698Y-582561D01*
X1336032Y-592975D01*
X1336032Y-603389D01*
X1330698Y-613803D01*
X1325618Y-618883D01*
X1309870Y-623963D01*
X1263134Y-623963D01*
X1299456Y-623963D02*
G01*
X1336032Y-681113D01*
X1401310Y-572147D02*
G01*
X1390896Y-577227D01*
X1380482Y-587641D01*
X1375402Y-598055D01*
X1370322Y-613803D01*
X1370322Y-639711D01*
X1375402Y-655205D01*
X1380482Y-665619D01*
X1390896Y-676033D01*
X1401310Y-681113D01*
X1422138Y-681113D01*
X1432552Y-676033D01*
X1442966Y-665619D01*
X1448046Y-655205D01*
X1453380Y-639711D01*
X1453380Y-613803D01*
X1448046Y-598055D01*
X1442966Y-587641D01*
X1432552Y-577227D01*
X1422138Y-572147D01*
X1401310Y-572147D01*
X1565648Y-598055D02*
G01*
X1560314Y-587641D01*
X1549900Y-577227D01*
X1539486Y-572147D01*
X1518912Y-572147D01*
X1508498Y-577227D01*
X1498084Y-587641D01*
X1492750Y-598055D01*
X1487670Y-613803D01*
X1487670Y-639711D01*
X1492750Y-655205D01*
X1498084Y-665619D01*
X1508498Y-676033D01*
X1518912Y-681113D01*
X1539486Y-681113D01*
X1549900Y-676033D01*
X1560314Y-665619D01*
X1565648Y-655205D01*
X1565648Y-639711D01*
X1539486Y-639711D02*
G01*
X1565648Y-639711D01*
X4858875Y-2612456D02*
G01*
X4944727Y-2612456D01*
X4858875Y-2612456D02*
G01*
X4858875Y-2575626D01*
X4862939Y-2563180D01*
X4867003Y-2559116D01*
X4875385Y-2555052D01*
X4883513Y-2555052D01*
X4891641Y-2559116D01*
X4895705Y-2563180D01*
X4899769Y-2575626D01*
X4899769Y-2612456D01*
X4899769Y-2583754D02*
G01*
X4944727Y-2555052D01*
X4875385Y-2528128D02*
G01*
X4871067Y-2520000D01*
X4858875Y-2507554D01*
X4944727Y-2507554D01*
X4858875Y-2455992D02*
G01*
X4862939Y-2468438D01*
X4875385Y-2476566D01*
X4895705Y-2480630D01*
X4907897Y-2480630D01*
X4928471Y-2476566D01*
X4940663Y-2468438D01*
X4944727Y-2455992D01*
X4944727Y-2447864D01*
X4940663Y-2435672D01*
X4928471Y-2427544D01*
X4907897Y-2423480D01*
X4895705Y-2423480D01*
X4875385Y-2427544D01*
X4862939Y-2435672D01*
X4858875Y-2447864D01*
X4858875Y-2455992D01*
X4608888Y-2612405D02*
G01*
X4694740Y-2612405D01*
X4608888Y-2612405D02*
G01*
X4608888Y-2575575D01*
X4612952Y-2563383D01*
X4617016Y-2559065D01*
X4625398Y-2555001D01*
X4633526Y-2555001D01*
X4641654Y-2559065D01*
X4645718Y-2563383D01*
X4649782Y-2575575D01*
X4649782Y-2612405D01*
X4649782Y-2583703D02*
G01*
X4694740Y-2555001D01*
X4625398Y-2528077D02*
G01*
X4621080Y-2519949D01*
X4608888Y-2507757D01*
X4694740Y-2507757D01*
X4625398Y-2480579D02*
G01*
X4621080Y-2472451D01*
X4608888Y-2460259D01*
X4694740Y-2460259D01*
X4346402Y-2612354D02*
G01*
X4432254Y-2612354D01*
X4346402Y-2612354D02*
G01*
X4346402Y-2575524D01*
X4350466Y-2563332D01*
X4354530Y-2559268D01*
X4362912Y-2555204D01*
X4371040Y-2555204D01*
X4379168Y-2559268D01*
X4383232Y-2563332D01*
X4387296Y-2575524D01*
X4387296Y-2612354D01*
X4387296Y-2583652D02*
G01*
X4432254Y-2555204D01*
X4362912Y-2528026D02*
G01*
X4358594Y-2519898D01*
X4346402Y-2507706D01*
X4432254Y-2507706D01*
X4366976Y-2476464D02*
G01*
X4362912Y-2476464D01*
X4354530Y-2472400D01*
X4350466Y-2468336D01*
X4346402Y-2460208D01*
X4346402Y-2443698D01*
X4350466Y-2435570D01*
X4354530Y-2431506D01*
X4362912Y-2427442D01*
X4371040Y-2427442D01*
X4379168Y-2431506D01*
X4391360Y-2439634D01*
X4432254Y-2480528D01*
X4432254Y-2423378D01*
X4096415Y-2612303D02*
G01*
X4182267Y-2612303D01*
X4096415Y-2612303D02*
G01*
X4096415Y-2575473D01*
X4100479Y-2563281D01*
X4104543Y-2559217D01*
X4112925Y-2555153D01*
X4121053Y-2555153D01*
X4129181Y-2559217D01*
X4133245Y-2563281D01*
X4137309Y-2575473D01*
X4137309Y-2612303D01*
X4137309Y-2583601D02*
G01*
X4182267Y-2555153D01*
X4112925Y-2527975D02*
G01*
X4108607Y-2519847D01*
X4096415Y-2507655D01*
X4182267Y-2507655D01*
X4096415Y-2472349D02*
G01*
X4096415Y-2427391D01*
X4129181Y-2452029D01*
X4129181Y-2439837D01*
X4133245Y-2431455D01*
X4137309Y-2427391D01*
X4149755Y-2423327D01*
X4157883Y-2423327D01*
X4170075Y-2427391D01*
X4178203Y-2435519D01*
X4182267Y-2447965D01*
X4182267Y-2460157D01*
X4178203Y-2472349D01*
X4174139Y-2476667D01*
X4166011Y-2480731D01*
X3858928Y-2612252D02*
G01*
X3944780Y-2612252D01*
X3858928Y-2612252D02*
G01*
X3858928Y-2575422D01*
X3862992Y-2563230D01*
X3867056Y-2559166D01*
X3875438Y-2555102D01*
X3883566Y-2555102D01*
X3891694Y-2559166D01*
X3895758Y-2563230D01*
X3899822Y-2575422D01*
X3899822Y-2612252D01*
X3899822Y-2583804D02*
G01*
X3944780Y-2555102D01*
X3875438Y-2528178D02*
G01*
X3871120Y-2519796D01*
X3858928Y-2507604D01*
X3944780Y-2507604D01*
X3858928Y-2439786D02*
G01*
X3916332Y-2480680D01*
X3916332Y-2419212D01*
X3858928Y-2439786D02*
G01*
X3944780Y-2439786D01*
X3871450Y-1012444D02*
G01*
X3957302Y-1012444D01*
X3871450Y-1012444D02*
G01*
X3871450Y-975613D01*
X3875514Y-963421D01*
X3879578Y-959357D01*
X3887960Y-955294D01*
X3896088Y-955294D01*
X3904216Y-959357D01*
X3908280Y-963421D01*
X3912344Y-975613D01*
X3912344Y-1012444D01*
X3912344Y-983742D02*
G01*
X3957302Y-955294D01*
X3887960Y-928115D02*
G01*
X3883642Y-919987D01*
X3871450Y-907795D01*
X3957302Y-907795D01*
X3871450Y-831595D02*
G01*
X3871450Y-872489D01*
X3908280Y-876554D01*
X3904216Y-872489D01*
X3900152Y-860297D01*
X3900152Y-848105D01*
X3904216Y-835660D01*
X3912344Y-827531D01*
X3924536Y-823468D01*
X3932918Y-823468D01*
X3945110Y-827531D01*
X3953238Y-835660D01*
X3957302Y-848105D01*
X3957302Y-860297D01*
X3953238Y-872489D01*
X3949174Y-876554D01*
X3941046Y-880618D01*
X4196433Y-1012454D02*
G01*
X4282285Y-1012454D01*
X4196433Y-1012454D02*
G01*
X4196433Y-975624D01*
X4200497Y-963432D01*
X4204561Y-959368D01*
X4212943Y-955050D01*
X4221071Y-955050D01*
X4229199Y-959368D01*
X4233263Y-963432D01*
X4237327Y-975624D01*
X4237327Y-1012454D01*
X4237327Y-983752D02*
G01*
X4282285Y-955050D01*
X4212943Y-928126D02*
G01*
X4208625Y-919998D01*
X4196433Y-907806D01*
X4282285Y-907806D01*
X4208625Y-831606D02*
G01*
X4200497Y-835670D01*
X4196433Y-848116D01*
X4196433Y-856244D01*
X4200497Y-868436D01*
X4212943Y-876564D01*
X4233263Y-880628D01*
X4253837Y-880628D01*
X4270093Y-876564D01*
X4278221Y-868436D01*
X4282285Y-856244D01*
X4282285Y-852180D01*
X4278221Y-839734D01*
X4270093Y-831606D01*
X4257901Y-827542D01*
X4253837Y-827542D01*
X4241391Y-831606D01*
X4233263Y-839734D01*
X4229199Y-852180D01*
X4229199Y-856244D01*
X4233263Y-868436D01*
X4241391Y-876564D01*
X4253837Y-880628D01*
X4771402Y-1012527D02*
G01*
X4857254Y-1012527D01*
X4771402Y-1012527D02*
G01*
X4771402Y-975697D01*
X4775466Y-963251D01*
X4779530Y-959187D01*
X4787912Y-955123D01*
X4796040Y-955123D01*
X4804168Y-959187D01*
X4808232Y-963251D01*
X4812296Y-975697D01*
X4812296Y-1012527D01*
X4812296Y-983825D02*
G01*
X4857254Y-955123D01*
X4787912Y-928199D02*
G01*
X4783594Y-920071D01*
X4771402Y-907625D01*
X4857254Y-907625D01*
X4771402Y-823551D02*
G01*
X4857254Y-864445D01*
X4771402Y-880701D02*
G01*
X4771402Y-823551D01*
X2798709Y-117127D02*
G01*
X2794645Y-108999D01*
X2786517Y-100871D01*
X2778135Y-96553D01*
X2761879Y-96553D01*
X2753751Y-100871D01*
X2745623Y-108999D01*
X2741559Y-117127D01*
X2737241Y-129319D01*
X2737241Y-149893D01*
X2741559Y-162085D01*
X2745623Y-170213D01*
X2753751Y-178595D01*
X2761879Y-182659D01*
X2778135Y-182659D01*
X2786517Y-178595D01*
X2794645Y-170213D01*
X2798709Y-162085D01*
X2829697Y-117127D02*
G01*
X2829697Y-113063D01*
X2834015Y-104935D01*
X2838079Y-100871D01*
X2846207Y-96553D01*
X2862463Y-96553D01*
X2870591Y-100871D01*
X2874909Y-104935D01*
X2878973Y-113063D01*
X2878973Y-121191D01*
X2874909Y-129319D01*
X2866527Y-141765D01*
X2825633Y-182659D01*
X2883037Y-182659D01*
X3398639Y-117132D02*
G01*
X3394575Y-109004D01*
X3386447Y-100876D01*
X3378319Y-96558D01*
X3361809Y-96558D01*
X3353681Y-100876D01*
X3345553Y-109004D01*
X3341489Y-117132D01*
X3337425Y-129324D01*
X3337425Y-149898D01*
X3341489Y-162090D01*
X3345553Y-170218D01*
X3353681Y-178600D01*
X3361809Y-182664D01*
X3378319Y-182664D01*
X3386447Y-178600D01*
X3394575Y-170218D01*
X3398639Y-162090D01*
X3433945Y-96558D02*
G01*
X3478903Y-96558D01*
X3454265Y-129324D01*
X3466711Y-129324D01*
X3474839Y-133388D01*
X3478903Y-137706D01*
X3482967Y-149898D01*
X3482967Y-158026D01*
X3478903Y-170218D01*
X3470775Y-178600D01*
X3458329Y-182664D01*
X3446137Y-182664D01*
X3433945Y-178600D01*
X3429881Y-174282D01*
X3425563Y-166154D01*
D10*
X7224631Y-5146939D02*
G01*
X7224631Y-5224917D01*
X7229711Y-5240411D01*
X7240125Y-5250825D01*
X7255873Y-5255905D01*
X7266287Y-5255905D01*
X7281781Y-5250825D01*
X7292195Y-5240411D01*
X7297275Y-5224917D01*
X7297275Y-5146939D01*
X7331565Y-5167767D02*
G01*
X7341979Y-5162433D01*
X7357727Y-5146939D01*
X7357727Y-5255905D01*
D13*
X8606281Y-2671826D02*
G01*
X8595868Y-2677160D01*
X8585454Y-2687573D01*
X8580120Y-2697734D01*
X8575040Y-2713481D01*
X8575040Y-2739389D01*
X8580120Y-2754884D01*
X8585454Y-2765297D01*
X8595868Y-2775712D01*
X8606281Y-2781045D01*
X8626856Y-2781045D01*
X8637270Y-2775712D01*
X8647684Y-2765297D01*
X8653018Y-2754884D01*
X8658097Y-2739389D01*
X8658097Y-2713481D01*
X8653018Y-2697734D01*
X8647684Y-2687573D01*
X8637270Y-2677160D01*
X8626856Y-2671826D01*
X8606281Y-2671826D01*
X8621775Y-2760218D02*
G01*
X8653018Y-2791460D01*
X8692388Y-2692654D02*
G01*
X8702802Y-2687573D01*
X8718295Y-2671826D01*
X8718295Y-2781045D01*
D12*
X7861005Y-4169801D02*
G01*
X7968315Y-4150880D01*
X7861005Y-4169801D02*
G01*
X7852890Y-4123776D01*
X7855201Y-4107634D01*
X7859529Y-4101457D01*
X7868902Y-4094645D01*
X7879158Y-4092836D01*
X7890296Y-4096031D01*
X7896225Y-4100403D01*
X7903918Y-4114779D01*
X7912033Y-4160804D01*
X7905727Y-4125033D02*
G01*
X7955701Y-4079339D01*
X7840629Y-4054236D02*
G01*
X7830703Y-3997954D01*
X7877108Y-4021239D01*
X7874419Y-4005981D01*
X7877611Y-3994843D01*
X7881734Y-3988958D01*
X7896316Y-3980969D01*
X7906570Y-3979161D01*
X7922755Y-3981724D01*
X7934820Y-3990172D01*
X7942513Y-4004548D01*
X7945203Y-4019806D01*
X7942935Y-4036197D01*
X7938815Y-4042082D01*
X7929486Y-4049143D01*
X7999999Y-3347184D02*
G01*
X7999999Y-3456150D01*
X7999999Y-3347184D02*
G01*
X8046735Y-3347184D01*
X8062229Y-3352264D01*
X8067563Y-3357598D01*
X8072643Y-3368012D01*
X8072643Y-3378426D01*
X8067563Y-3388840D01*
X8062229Y-3393920D01*
X8046735Y-3399000D01*
X7999999Y-3399000D01*
X8036321Y-3399000D02*
G01*
X8072643Y-3456150D01*
X8159003Y-3347184D02*
G01*
X8106933Y-3419828D01*
X8184911Y-3419828D01*
X8159003Y-3347184D02*
G01*
X8159003Y-3456150D01*
D13*
X62544Y-5184487D02*
G01*
X62544Y-5293453D01*
X62544Y-5184487D02*
G01*
X109280Y-5184487D01*
X124774Y-5189567D01*
X130108Y-5194647D01*
X135188Y-5205061D01*
X135188Y-5220809D01*
X130108Y-5231223D01*
X124774Y-5236303D01*
X109280Y-5241637D01*
X62544Y-5241637D01*
X221548Y-5184487D02*
G01*
X169478Y-5257131D01*
X247456Y-5257131D01*
X221548Y-5184487D02*
G01*
X221548Y-5293453D01*
D11*
X62517Y-1672168D02*
G01*
X62517Y-1781134D01*
X62517Y-1672168D02*
G01*
X109253Y-1672168D01*
X124747Y-1677248D01*
X130081Y-1682582D01*
X135161Y-1692742D01*
X135161Y-1708490D01*
X130081Y-1718904D01*
X124747Y-1723984D01*
X109253Y-1729318D01*
X62517Y-1729318D01*
X169451Y-1692742D02*
G01*
X179865Y-1687662D01*
X195613Y-1672168D01*
X195613Y-1781134D01*
D13*
X9553000Y-5085676D02*
G01*
X9547666Y-5075262D01*
X9537252Y-5064848D01*
X9526838Y-5059768D01*
X9506264Y-5059768D01*
X9495850Y-5064848D01*
X9485436Y-5075262D01*
X9480102Y-5085676D01*
X9475022Y-5101170D01*
X9475022Y-5127332D01*
X9480102Y-5142826D01*
X9485436Y-5153240D01*
X9495850Y-5163654D01*
X9506264Y-5168734D01*
X9526838Y-5168734D01*
X9537252Y-5163654D01*
X9547666Y-5153240D01*
X9553000Y-5142826D01*
X9587290Y-5059768D02*
G01*
X9587290Y-5168734D01*
X9587290Y-5059768D02*
G01*
X9634026Y-5059768D01*
X9649520Y-5064848D01*
X9654854Y-5070182D01*
X9659934Y-5080342D01*
X9659934Y-5090756D01*
X9654854Y-5101170D01*
X9649520Y-5106504D01*
X9634026Y-5111584D01*
X9587290Y-5111584D02*
G01*
X9634026Y-5111584D01*
X9649520Y-5116918D01*
X9654854Y-5121998D01*
X9659934Y-5132412D01*
X9659934Y-5147906D01*
X9654854Y-5158320D01*
X9649520Y-5163654D01*
X9634026Y-5168734D01*
X9587290Y-5168734D01*
X9694224Y-5059768D02*
G01*
X9694224Y-5168734D01*
X9694224Y-5059768D02*
G01*
X9740960Y-5059768D01*
X9756708Y-5064848D01*
X9761788Y-5070182D01*
X9766868Y-5080342D01*
X9766868Y-5090756D01*
X9761788Y-5101170D01*
X9756708Y-5106504D01*
X9740960Y-5111584D01*
X9694224Y-5111584D02*
G01*
X9740960Y-5111584D01*
X9756708Y-5116918D01*
X9761788Y-5121998D01*
X9766868Y-5132412D01*
X9766868Y-5147906D01*
X9761788Y-5158320D01*
X9756708Y-5163654D01*
X9740960Y-5168734D01*
X9694224Y-5168734D01*
X9801158Y-5080342D02*
G01*
X9811572Y-5075262D01*
X9827320Y-5059768D01*
X9827320Y-5168734D01*
D12*
X1702902Y-123075D02*
G01*
X1697568Y-112661D01*
X1687154Y-102247D01*
X1676994Y-97167D01*
X1656166Y-97167D01*
X1645752Y-102247D01*
X1635338Y-112661D01*
X1630004Y-123075D01*
X1624924Y-138823D01*
X1624924Y-164731D01*
X1630004Y-180225D01*
X1635338Y-190639D01*
X1645752Y-201053D01*
X1656166Y-206133D01*
X1676994Y-206133D01*
X1687154Y-201053D01*
X1697568Y-190639D01*
X1702902Y-180225D01*
X1737192Y-117995D02*
G01*
X1747606Y-112661D01*
X1763100Y-97167D01*
X1763100Y-206133D01*
X2562285Y-996706D02*
G01*
X2562285Y-1082558D01*
X2562285Y-996706D02*
G01*
X2590987Y-996706D01*
X2603179Y-1000770D01*
X2611561Y-1008898D01*
X2615625Y-1017026D01*
X2619689Y-1029218D01*
X2619689Y-1049792D01*
X2615625Y-1061984D01*
X2611561Y-1070366D01*
X2603179Y-1078494D01*
X2590987Y-1082558D01*
X2562285Y-1082558D01*
X2650677Y-1017026D02*
G01*
X2650677Y-1012962D01*
X2654741Y-1004834D01*
X2658805Y-1000770D01*
X2667187Y-996706D01*
X2683443Y-996706D01*
X2691571Y-1000770D01*
X2695635Y-1004834D01*
X2699699Y-1012962D01*
X2699699Y-1021090D01*
X2695635Y-1029218D01*
X2687507Y-1041664D01*
X2646613Y-1082558D01*
X2704017Y-1082558D01*
X2609598Y-3874843D02*
G01*
X2687576Y-3874843D01*
X2703070Y-3869763D01*
X2713484Y-3859349D01*
X2718564Y-3843601D01*
X2718564Y-3833187D01*
X2713484Y-3817693D01*
X2703070Y-3807279D01*
X2687576Y-3802199D01*
X2609598Y-3802199D01*
X2635506Y-3762575D02*
G01*
X2630426Y-3762575D01*
X2620012Y-3757495D01*
X2614678Y-3752161D01*
X2609598Y-3741747D01*
X2609598Y-3721173D01*
X2614678Y-3710759D01*
X2620012Y-3705425D01*
X2630426Y-3700345D01*
X2640840Y-3700345D01*
X2651254Y-3705425D01*
X2666748Y-3715839D01*
X2718564Y-3767909D01*
X2718564Y-3695011D01*
X1098895Y-1792061D02*
G01*
X1094831Y-1783933D01*
X1086703Y-1775805D01*
X1078321Y-1771741D01*
X1062065Y-1771741D01*
X1053937Y-1775805D01*
X1045555Y-1783933D01*
X1041491Y-1792061D01*
X1037427Y-1804507D01*
X1037427Y-1824827D01*
X1041491Y-1837019D01*
X1045555Y-1845401D01*
X1053937Y-1853529D01*
X1062065Y-1857593D01*
X1078321Y-1857593D01*
X1086703Y-1853529D01*
X1094831Y-1845401D01*
X1098895Y-1837019D01*
X1174841Y-1783933D02*
G01*
X1170777Y-1775805D01*
X1158585Y-1771741D01*
X1150457Y-1771741D01*
X1138011Y-1775805D01*
X1129883Y-1787997D01*
X1125819Y-1808571D01*
X1125819Y-1828891D01*
X1129883Y-1845401D01*
X1138011Y-1853529D01*
X1150457Y-1857593D01*
X1154521Y-1857593D01*
X1166713Y-1853529D01*
X1174841Y-1845401D01*
X1179159Y-1832955D01*
X1179159Y-1828891D01*
X1174841Y-1816699D01*
X1166713Y-1808571D01*
X1154521Y-1804507D01*
X1150457Y-1804507D01*
X1138011Y-1808571D01*
X1129883Y-1816699D01*
X1125819Y-1828891D01*
X1349921Y-1609183D02*
G01*
X1349921Y-1695035D01*
X1349921Y-1609183D02*
G01*
X1378623Y-1609183D01*
X1390815Y-1613247D01*
X1399197Y-1621375D01*
X1403261Y-1629757D01*
X1407325Y-1641949D01*
X1407325Y-1662269D01*
X1403261Y-1674715D01*
X1399197Y-1682843D01*
X1390815Y-1690971D01*
X1378623Y-1695035D01*
X1349921Y-1695035D01*
X1434249Y-1625439D02*
G01*
X1442377Y-1621375D01*
X1454823Y-1609183D01*
X1454823Y-1695035D01*
D14*
X1692480Y-1477398D02*
G01*
X1610692Y-1477398D01*
X1651586Y-1436504D02*
G01*
X1651586Y-1518292D01*
X1651584Y-1243210D02*
G01*
X1651584Y-1161422D01*
D10*
X3399871Y-1146502D02*
G01*
X3399871Y-1207970D01*
X3403935Y-1220162D01*
X3412063Y-1228544D01*
X3424255Y-1232608D01*
X3432637Y-1232608D01*
X3444829Y-1228544D01*
X3452957Y-1220162D01*
X3457021Y-1207970D01*
X3457021Y-1146502D01*
X3525093Y-1146502D02*
G01*
X3484199Y-1203906D01*
X3545413Y-1203906D01*
X3525093Y-1146502D02*
G01*
X3525093Y-1232608D01*
X4874475Y-1484269D02*
G01*
X4866347Y-1488333D01*
X4858219Y-1496461D01*
X4854155Y-1504589D01*
X4850091Y-1517035D01*
X4850091Y-1537355D01*
X4854155Y-1549547D01*
X4858219Y-1557929D01*
X4866347Y-1566057D01*
X4874475Y-1570121D01*
X4890985Y-1570121D01*
X4899113Y-1566057D01*
X4907241Y-1557929D01*
X4911305Y-1549547D01*
X4915369Y-1537355D01*
X4915369Y-1517035D01*
X4911305Y-1504589D01*
X4907241Y-1496461D01*
X4899113Y-1488333D01*
X4890985Y-1484269D01*
X4874475Y-1484269D01*
X4886921Y-1553611D02*
G01*
X4911305Y-1578249D01*
X4946611Y-1504589D02*
G01*
X4946611Y-1500525D01*
X4950675Y-1492397D01*
X4954739Y-1488333D01*
X4962867Y-1484269D01*
X4979377Y-1484269D01*
X4987505Y-1488333D01*
X4991569Y-1492397D01*
X4995633Y-1500525D01*
X4995633Y-1508653D01*
X4991569Y-1517035D01*
X4983441Y-1529227D01*
X4942547Y-1570121D01*
X4999697Y-1570121D01*
X4374565Y-1484269D02*
G01*
X4366437Y-1488333D01*
X4358055Y-1496461D01*
X4353991Y-1504589D01*
X4349927Y-1517035D01*
X4349927Y-1537355D01*
X4353991Y-1549547D01*
X4358055Y-1557929D01*
X4366437Y-1566057D01*
X4374565Y-1570121D01*
X4390821Y-1570121D01*
X4399203Y-1566057D01*
X4407331Y-1557929D01*
X4411395Y-1549547D01*
X4415459Y-1537355D01*
X4415459Y-1517035D01*
X4411395Y-1504589D01*
X4407331Y-1496461D01*
X4399203Y-1488333D01*
X4390821Y-1484269D01*
X4374565Y-1484269D01*
X4386757Y-1553611D02*
G01*
X4411395Y-1578249D01*
X4450511Y-1484269D02*
G01*
X4495723Y-1484269D01*
X4471085Y-1517035D01*
X4483277Y-1517035D01*
X4491659Y-1521099D01*
X4495723Y-1525163D01*
X4499787Y-1537355D01*
X4499787Y-1545483D01*
X4495723Y-1557929D01*
X4487341Y-1566057D01*
X4475149Y-1570121D01*
X4462957Y-1570121D01*
X4450511Y-1566057D01*
X4446447Y-1561993D01*
X4442383Y-1553611D01*
X3874622Y-1484269D02*
G01*
X3866240Y-1488333D01*
X3858112Y-1496461D01*
X3854048Y-1504589D01*
X3849984Y-1517035D01*
X3849984Y-1537355D01*
X3854048Y-1549547D01*
X3858112Y-1557929D01*
X3866240Y-1566057D01*
X3874622Y-1570121D01*
X3890878Y-1570121D01*
X3899006Y-1566057D01*
X3907388Y-1557929D01*
X3911452Y-1549547D01*
X3915516Y-1537355D01*
X3915516Y-1517035D01*
X3911452Y-1504589D01*
X3907388Y-1496461D01*
X3899006Y-1488333D01*
X3890878Y-1484269D01*
X3874622Y-1484269D01*
X3886814Y-1553611D02*
G01*
X3911452Y-1578249D01*
X3983334Y-1484269D02*
G01*
X3942440Y-1541419D01*
X4003908Y-1541419D01*
X3983334Y-1484269D02*
G01*
X3983334Y-1570121D01*
D12*
X949794Y-1059220D02*
G01*
X949794Y-1145072D01*
X949794Y-1059220D02*
G01*
X1002880Y-1059220D01*
X949794Y-1100114D02*
G01*
X982560Y-1100114D01*
X1030058Y-1075730D02*
G01*
X1038186Y-1071412D01*
X1050378Y-1059220D01*
X1050378Y-1145072D01*
D11*
X10149461Y-3534498D02*
G01*
X10149461Y-3643464D01*
X10149461Y-3534498D02*
G01*
X10196197Y-3534498D01*
X10211691Y-3539578D01*
X10217025Y-3544912D01*
X10222105Y-3555326D01*
X10222105Y-3570820D01*
X10217025Y-3581234D01*
X10211691Y-3586314D01*
X10196197Y-3591648D01*
X10149461Y-3591648D01*
X10261729Y-3560406D02*
G01*
X10261729Y-3555326D01*
X10266809Y-3544912D01*
X10272143Y-3539578D01*
X10282557Y-3534498D01*
X10303131Y-3534498D01*
X10313545Y-3539578D01*
X10318879Y-3544912D01*
X10323959Y-3555326D01*
X10323959Y-3565740D01*
X10318879Y-3576154D01*
X10308465Y-3591648D01*
X10256395Y-3643464D01*
X10329293Y-3643464D01*
D12*
X2462275Y-1921510D02*
G01*
X2462275Y-1982978D01*
X2466593Y-1995170D01*
X2474722Y-2003297D01*
X2486913Y-2007362D01*
X2495041Y-2007362D01*
X2507488Y-2003297D01*
X2515615Y-1995170D01*
X2519679Y-1982978D01*
X2519679Y-1921510D01*
X2595625Y-1921510D02*
G01*
X2554731Y-1921510D01*
X2550668Y-1958339D01*
X2554731Y-1954276D01*
X2567177Y-1950212D01*
X2579370Y-1950212D01*
X2591561Y-1954276D01*
X2599943Y-1962404D01*
X2604008Y-1974850D01*
X2604008Y-1982978D01*
X2599943Y-1995170D01*
X2591561Y-2003297D01*
X2579370Y-2007362D01*
X2567177Y-2007362D01*
X2554731Y-2003297D01*
X2550668Y-1999234D01*
X2546604Y-1991105D01*
G36*
X2124100Y-66954D02*
G01*
X2022500Y-92354D01*
X1819300Y-219354D01*
X2530500Y-219354D01*
X2428900Y-143154D01*
X2276500Y-92354D01*
G37*
G36*
X2380538Y-1270965D02*
G01*
X2374239Y-1271473D01*
X2368092Y-1272794D01*
X2362149Y-1274876D01*
X2356561Y-1277721D01*
X2351379Y-1281277D01*
X2346655Y-1285443D01*
X2342540Y-1290167D01*
X2339086Y-1295450D01*
X2336292Y-1301089D01*
X2334260Y-1307033D01*
X2333040Y-1313180D01*
X2332634Y-1319479D01*
X2332736Y-1322882D01*
X2333548Y-1329131D01*
X2335174Y-1335176D01*
X2337612Y-1341018D01*
X2340711Y-1346454D01*
X2344521Y-1351483D01*
X2348941Y-1355953D01*
X2353919Y-1359814D01*
X2359304Y-1363014D01*
X2365095Y-1365453D01*
X2371140Y-1367180D01*
X2374239Y-1367739D01*
X2380538Y-1368196D01*
X2386787Y-1367891D01*
X2392984Y-1366774D01*
X2398979Y-1364894D01*
X2404668Y-1362202D01*
X2410002Y-1358798D01*
X2414828Y-1354785D01*
X2419045Y-1350162D01*
X2422702Y-1345031D01*
X2425649Y-1339443D01*
X2427833Y-1333550D01*
X2429256Y-1327454D01*
X2429865Y-1321155D01*
X2429662Y-1314907D01*
X2428646Y-1308658D01*
X2426817Y-1302664D01*
X2424277Y-1296924D01*
X2420975Y-1291539D01*
X2417013Y-1286662D01*
X2412441Y-1282344D01*
X2407412Y-1278585D01*
X2401874Y-1275588D01*
X2398979Y-1274318D01*
X2392984Y-1272438D01*
X2386787Y-1271320D01*
X2383688Y-1271016D01*
G37*
D15*
X755017Y-4670000D02*
G01*
X755017Y-4579998D01*
X832017Y-4684996D02*
G01*
X765012Y-4684996D01*
X945022Y-4670000D02*
G01*
X945022Y-4579998D01*
X868022Y-4684996D02*
G01*
X935014Y-4684996D01*
X868022Y-4564992D02*
G01*
X935014Y-4564992D01*
X832017Y-4564992D02*
G01*
X765012Y-4564992D01*
X945022Y-4670000D02*
G01*
X945022Y-4674989D01*
X935014Y-4684996D01*
X755017Y-4670000D02*
G01*
X755017Y-4675002D01*
X765012Y-4684996D01*
X755017Y-4579998D02*
G01*
X755017Y-4574987D01*
X765012Y-4564992D01*
X945022Y-4579998D02*
G01*
X945022Y-4574999D01*
X935014Y-4564992D01*
X755017Y-4882502D02*
G01*
X755017Y-4792499D01*
X832017Y-4897498D02*
G01*
X765012Y-4897498D01*
X945022Y-4882502D02*
G01*
X945022Y-4792499D01*
X868022Y-4897498D02*
G01*
X935014Y-4897498D01*
X868022Y-4777493D02*
G01*
X935014Y-4777493D01*
X832017Y-4777493D02*
G01*
X765012Y-4777493D01*
X945022Y-4882502D02*
G01*
X945022Y-4887490D01*
X935014Y-4897498D01*
X755017Y-4882502D02*
G01*
X755017Y-4887503D01*
X765012Y-4897498D01*
X755017Y-4792499D02*
G01*
X755017Y-4787488D01*
X765012Y-4777493D01*
X945022Y-4792499D02*
G01*
X945022Y-4787501D01*
X935014Y-4777493D01*
D16*
X10290167Y-978217D02*
G01*
X10290167Y-2146617D01*
X10406956Y-962418D02*
G01*
X10406956Y-2162416D01*
X9606958Y-2162416D01*
X9606958Y-962418D01*
X10406956Y-962418D01*
X2104956Y-4007302D02*
G01*
X1944951Y-4007302D01*
X1945462Y-4192363D02*
G01*
X1945462Y-4317359D01*
X2105466Y-4192363D02*
G01*
X2105466Y-4317359D01*
X1944951Y-4132305D02*
G01*
X1944951Y-4007302D01*
X2104956Y-4132305D02*
G01*
X2104956Y-4007302D01*
X2105466Y-4317359D02*
G01*
X1945462Y-4317359D01*
X1903984Y-4570801D02*
G01*
X1903984Y-4687570D01*
X1389984Y-4687570D01*
X1389984Y-4687570D02*
G01*
X1389984Y-4363994D01*
X1389984Y-4363994D02*
G01*
X1901444Y-4363994D01*
X1901444Y-4479289D01*
X1182430Y-4317276D02*
G01*
X1342435Y-4317276D01*
X1341925Y-4132214D02*
G01*
X1341925Y-4007218D01*
X1181920Y-4132214D02*
G01*
X1181920Y-4007218D01*
X1342435Y-4192272D02*
G01*
X1342435Y-4317276D01*
X1182430Y-4192272D02*
G01*
X1182430Y-4317276D01*
X1181920Y-4007218D02*
G01*
X1341925Y-4007218D01*
X859960Y-4327281D02*
G01*
X739957Y-4327281D01*
X879960Y-4122282D02*
G01*
X879960Y-4022280D01*
X719955Y-4122282D02*
G01*
X719955Y-4022280D01*
X879960Y-4202290D02*
G01*
X879960Y-4302279D01*
X719955Y-4202290D02*
G01*
X719955Y-4302279D01*
X859960Y-3997279D02*
G01*
X739957Y-3997279D01*
X879960Y-4017279D02*
G01*
X879960Y-4022280D01*
X719955Y-4017281D02*
G01*
X719955Y-4022280D01*
X879960Y-4307281D02*
G01*
X879960Y-4302279D01*
X719955Y-4307278D02*
G01*
X719955Y-4302279D01*
X957442Y-4317276D02*
G01*
X1117447Y-4317276D01*
X1116937Y-4132214D02*
G01*
X1116937Y-4007218D01*
X956932Y-4132214D02*
G01*
X956932Y-4007218D01*
X1117447Y-4192272D02*
G01*
X1117447Y-4317276D01*
X957442Y-4192272D02*
G01*
X957442Y-4317276D01*
X956932Y-4007218D02*
G01*
X1116937Y-4007218D01*
X1222441Y-4889751D02*
G01*
X1102438Y-4889751D01*
X1242440Y-4684753D02*
G01*
X1242440Y-4584750D01*
X1082436Y-4684753D02*
G01*
X1082436Y-4584750D01*
X1242440Y-4764760D02*
G01*
X1242440Y-4864750D01*
X1082436Y-4764760D02*
G01*
X1082436Y-4864750D01*
X1222441Y-4559749D02*
G01*
X1102438Y-4559749D01*
X1242440Y-4579749D02*
G01*
X1242440Y-4584750D01*
X1082436Y-4579752D02*
G01*
X1082436Y-4584750D01*
X1242440Y-4869751D02*
G01*
X1242440Y-4864750D01*
X1082436Y-4869748D02*
G01*
X1082436Y-4864750D01*
X1919892Y-1892404D02*
G01*
X2079896Y-1892404D01*
X2079386Y-1707342D02*
G01*
X2079386Y-1582346D01*
X1919381Y-1707342D02*
G01*
X1919381Y-1582346D01*
X2079896Y-1767400D02*
G01*
X2079896Y-1892404D01*
X1919892Y-1767400D02*
G01*
X1919892Y-1892404D01*
X1919381Y-1582346D02*
G01*
X2079386Y-1582346D01*
X3354829Y-2057387D02*
G01*
X3194824Y-2057387D01*
X3195335Y-2242449D02*
G01*
X3195335Y-2367445D01*
X3355340Y-2242449D02*
G01*
X3355340Y-2367445D01*
X3194824Y-2182390D02*
G01*
X3194824Y-2057387D01*
X3354829Y-2182390D02*
G01*
X3354829Y-2057387D01*
X3355340Y-2367445D02*
G01*
X3195335Y-2367445D01*
X8353277Y-3662677D02*
G01*
X8778130Y-3508044D01*
X8778130Y-3508044D02*
G01*
X9170797Y-4586886D01*
X9170797Y-4586886D02*
G01*
X8745943Y-4741519D01*
X8745943Y-4741519D02*
G01*
X8353277Y-3662677D01*
D17*
X1472455Y-526978D02*
G01*
X1472455Y-18978D01*
X710455Y-18978D01*
X710455Y-526978D01*
X1472455Y-526978D01*
X985613Y-526978D01*
D16*
X4819738Y-2367379D02*
G01*
X4979743Y-2367379D01*
X4979233Y-2182317D02*
G01*
X4979233Y-2057321D01*
X4819228Y-2182317D02*
G01*
X4819228Y-2057321D01*
X4979743Y-2242375D02*
G01*
X4979743Y-2367379D01*
X4819738Y-2242375D02*
G01*
X4819738Y-2367379D01*
X4819228Y-2057321D02*
G01*
X4979233Y-2057321D01*
X4569752Y-2367379D02*
G01*
X4729756Y-2367379D01*
X4729246Y-2182317D02*
G01*
X4729246Y-2057321D01*
X4569241Y-2182317D02*
G01*
X4569241Y-2057321D01*
X4729756Y-2242375D02*
G01*
X4729756Y-2367379D01*
X4569752Y-2242375D02*
G01*
X4569752Y-2367379D01*
X4569241Y-2057321D02*
G01*
X4729246Y-2057321D01*
X4307265Y-2367379D02*
G01*
X4467270Y-2367379D01*
X4466760Y-2182317D02*
G01*
X4466760Y-2057321D01*
X4306755Y-2182317D02*
G01*
X4306755Y-2057321D01*
X4467270Y-2242375D02*
G01*
X4467270Y-2367379D01*
X4307265Y-2242375D02*
G01*
X4307265Y-2367379D01*
X4306755Y-2057321D02*
G01*
X4466760Y-2057321D01*
X4057279Y-2367379D02*
G01*
X4217283Y-2367379D01*
X4216773Y-2182317D02*
G01*
X4216773Y-2057321D01*
X4056768Y-2182317D02*
G01*
X4056768Y-2057321D01*
X4217283Y-2242375D02*
G01*
X4217283Y-2367379D01*
X4057279Y-2242375D02*
G01*
X4057279Y-2367379D01*
X4056768Y-2057321D02*
G01*
X4216773Y-2057321D01*
X3819791Y-2367379D02*
G01*
X3979796Y-2367379D01*
X3979285Y-2182317D02*
G01*
X3979285Y-2057321D01*
X3819281Y-2182317D02*
G01*
X3819281Y-2057321D01*
X3979796Y-2242375D02*
G01*
X3979796Y-2367379D01*
X3819791Y-2242375D02*
G01*
X3819791Y-2367379D01*
X3819281Y-2057321D02*
G01*
X3979285Y-2057321D01*
X3829804Y-769955D02*
G01*
X3669799Y-769955D01*
X3670310Y-955017D02*
G01*
X3670310Y-1080013D01*
X3830314Y-955017D02*
G01*
X3830314Y-1080013D01*
X3669799Y-894958D02*
G01*
X3669799Y-769955D01*
X3829804Y-894958D02*
G01*
X3829804Y-769955D01*
X3830314Y-1080013D02*
G01*
X3670310Y-1080013D01*
X4479770Y-769955D02*
G01*
X4319765Y-769955D01*
X4320275Y-955017D02*
G01*
X4320275Y-1080013D01*
X4480280Y-955017D02*
G01*
X4480280Y-1080013D01*
X4319765Y-894958D02*
G01*
X4319765Y-769955D01*
X4479770Y-894958D02*
G01*
X4479770Y-769955D01*
X4480280Y-1080013D02*
G01*
X4320275Y-1080013D01*
X4729756Y-769955D02*
G01*
X4569752Y-769955D01*
X4570262Y-955017D02*
G01*
X4570262Y-1080013D01*
X4730267Y-955017D02*
G01*
X4730267Y-1080013D01*
X4569752Y-894958D02*
G01*
X4569752Y-769955D01*
X4729756Y-894958D02*
G01*
X4729756Y-769955D01*
X4730267Y-1080013D02*
G01*
X4570262Y-1080013D01*
X2737342Y-404985D02*
G01*
X2737342Y-244982D01*
X3087349Y-404985D02*
G01*
X3087347Y-244980D01*
X2862346Y-220982D02*
G01*
X2757347Y-220982D01*
X2862346Y-428983D02*
G01*
X2757347Y-428983D01*
X2962346Y-220982D02*
G01*
X3067344Y-220982D01*
X2962346Y-428983D02*
G01*
X3067344Y-428983D01*
X3087349Y-406976D02*
G01*
X3087349Y-404985D01*
X3087349Y-408978D02*
G01*
X3087349Y-404985D01*
X3087347Y-240985D02*
G01*
X3087347Y-244980D01*
X2737342Y-408978D02*
G01*
X2737342Y-404985D01*
X2737342Y-240987D02*
G01*
X2737342Y-244982D01*
X3487328Y-244980D02*
G01*
X3487328Y-404982D01*
X3137321Y-244980D02*
G01*
X3137324Y-404985D01*
X3362325Y-428983D02*
G01*
X3467323Y-428983D01*
X3362325Y-220982D02*
G01*
X3467323Y-220982D01*
X3262325Y-428983D02*
G01*
X3157326Y-428983D01*
X3262325Y-220982D02*
G01*
X3157326Y-220982D01*
X3137321Y-242989D02*
G01*
X3137321Y-244980D01*
X3137321Y-240987D02*
G01*
X3137321Y-244980D01*
X3137324Y-408980D02*
G01*
X3137324Y-404985D01*
X3487328Y-240987D02*
G01*
X3487328Y-244980D01*
X3487328Y-408978D02*
G01*
X3487328Y-404982D01*
D18*
X7551000Y-4185124D02*
G01*
X7752422Y-4185124D01*
X7752422Y-5087586D01*
X7222578Y-5087586D01*
X7222578Y-4185124D01*
X7424000Y-4185124D01*
D16*
X7445095Y-2779903D02*
G01*
X8505088Y-2779903D01*
X8505190Y-2829813D02*
G01*
X7444993Y-2829813D01*
X7444993Y-2350007D01*
X8505190Y-2350007D01*
X8505190Y-2829305D01*
X8505190Y-2829813D01*
X8478159Y-4676581D02*
G01*
X8152975Y-4733919D01*
X8152975Y-4733919D02*
G01*
X7996839Y-3848420D01*
X7996839Y-3848420D02*
G01*
X8322022Y-3791082D01*
X8322022Y-3791082D02*
G01*
X8478159Y-4676581D01*
X8000420Y-3277600D02*
G01*
X8000420Y-2947400D01*
X8000420Y-2947400D02*
G01*
X8899580Y-2947400D01*
X8899580Y-2947400D02*
G01*
X8899580Y-3277600D01*
X8899580Y-3277600D02*
G01*
X8000420Y-3277600D01*
X585279Y-4368566D02*
G01*
X5270Y-4368566D01*
X585279Y-4368566D02*
G01*
X585279Y-5118577D01*
X585279Y-5120406D02*
G01*
X6159Y-5120406D01*
X6159Y-4370395D02*
G01*
X6159Y-5120406D01*
X521779Y-4429526D02*
G01*
X521779Y-5056906D01*
X67119Y-5056906D01*
X582739Y-5115326D02*
G01*
X575119Y-5115326D01*
X514159Y-5054366D01*
X582739Y-4371106D02*
G01*
X575119Y-4371106D01*
X514159Y-4432066D01*
X354139Y-4429526D02*
G01*
X354139Y-5056906D01*
X300799Y-4429526D02*
G01*
X300799Y-5056906D01*
X153479Y-4368566D02*
G01*
X153479Y-4426986D01*
X135699Y-5059446D02*
G01*
X135699Y-5117866D01*
X8699Y-4493026D02*
G01*
X67119Y-4493026D01*
X67119Y-5056906D02*
G01*
X67119Y-4429526D01*
X67119Y-4429526D02*
G01*
X519239Y-4429526D01*
X519239Y-4432066D01*
X7429Y-4570496D02*
G01*
X65849Y-4570496D01*
X8699Y-4917206D02*
G01*
X67119Y-4917206D01*
X7429Y-4994676D02*
G01*
X65849Y-4994676D01*
X4998Y-1607085D02*
G01*
X855009Y-1607085D01*
X95600Y-1607085D02*
G01*
X95600Y-788393D01*
X857600Y-788393D02*
G01*
X-5999Y-788393D01*
X-5999Y-1601193D02*
G01*
X-5999Y-788393D01*
X857600Y-788393D02*
G01*
X857600Y-1601193D01*
X9249892Y-5000005D02*
G01*
X9249892Y-3700002D01*
X9849891Y-5000005D02*
G01*
X9849891Y-3700002D01*
X9249892Y-3700002D02*
G01*
X9849891Y-3700002D01*
X9849891Y-5000005D02*
G01*
X9249892Y-5000005D01*
X1946285Y-854369D02*
G01*
X1946285Y-752769D01*
X1895485Y-803569D02*
G01*
X1997085Y-803569D01*
X2638564Y-1224935D02*
G01*
X2486164Y-1224935D01*
X2613164Y-1275735D02*
G01*
X2613164Y-1174135D01*
X2712364Y-1124935D02*
G01*
X2412364Y-1124935D01*
X2712364Y-1324935D02*
G01*
X2412364Y-1324935D01*
X2511564Y-1184295D02*
G01*
X2613164Y-1224935D01*
X2511564Y-1265575D02*
G01*
X2511564Y-1184295D01*
X2613164Y-1224935D02*
G01*
X2511564Y-1265575D01*
X2564513Y-2335227D02*
G01*
X2564513Y-2073142D01*
X2470028Y-2073142D01*
X2470028Y-3876542D02*
G01*
X2564513Y-3876542D01*
X2564513Y-3614458D01*
X636612Y-3876542D02*
G01*
X682797Y-3876542D01*
X682797Y-2073142D02*
G01*
X636612Y-2073142D01*
X636612Y-3876542D01*
X672498Y-1872503D02*
G01*
X672498Y-1752500D01*
X877496Y-1892503D02*
G01*
X977498Y-1892503D01*
X877496Y-1732498D02*
G01*
X977498Y-1732498D01*
X797488Y-1892503D02*
G01*
X697499Y-1892503D01*
X797488Y-1732498D02*
G01*
X697499Y-1732498D01*
X1002499Y-1872503D02*
G01*
X1002499Y-1752500D01*
X982499Y-1892503D02*
G01*
X977498Y-1892503D01*
X982497Y-1732498D02*
G01*
X977498Y-1732498D01*
X692497Y-1892503D02*
G01*
X697499Y-1892503D01*
X692500Y-1732498D02*
G01*
X697499Y-1732498D01*
X1349987Y-1074988D02*
G01*
X1349987Y-1574987D01*
X1749986Y-1574987D02*
G01*
X1349987Y-1574987D01*
X1749986Y-1574987D02*
G01*
X1749986Y-1074988D01*
X1349987Y-1074988D02*
G01*
X1749986Y-1074988D01*
X3542329Y-1104953D02*
G01*
X3542329Y-744951D01*
X2832333Y-1104953D02*
G01*
X2832333Y-744951D01*
X2832333Y-1104953D02*
G01*
X3000786Y-1104953D01*
X3373876Y-1104953D02*
G01*
X3542329Y-1104953D01*
X2832333Y-744951D02*
G01*
X2890791Y-744951D01*
X3023870Y-744951D02*
G01*
X3120791Y-744951D01*
X3253872Y-744951D02*
G01*
X3350793Y-744951D01*
X3483871Y-744951D02*
G01*
X3542329Y-744951D01*
X4941509Y-1445999D02*
G01*
X4860000Y-1445999D01*
X4860000Y-1380009D01*
X4860000Y-1219989D02*
G01*
X4860000Y-1154000D01*
X4860000Y-1219989D01*
X4860000Y-1154000D01*
X4941509Y-1154000D01*
D18*
X5014991Y-1329997D02*
G01*
X5014991Y-1270002D01*
D16*
X4441510Y-1445999D02*
G01*
X4360001Y-1445999D01*
X4360001Y-1380009D01*
X4360001Y-1219989D02*
G01*
X4360001Y-1154000D01*
X4360001Y-1219989D01*
X4360001Y-1154000D01*
X4441510Y-1154000D01*
D18*
X4514992Y-1329997D02*
G01*
X4514992Y-1270002D01*
D16*
X3941511Y-1445999D02*
G01*
X3860002Y-1445999D01*
X3860002Y-1380009D01*
X3860002Y-1219989D02*
G01*
X3860002Y-1154000D01*
X3860002Y-1219989D01*
X3860002Y-1154000D01*
X3941511Y-1154000D01*
D18*
X4014993Y-1329997D02*
G01*
X4014993Y-1270002D01*
D16*
X937437Y-832449D02*
G01*
X937437Y-992454D01*
X1062441Y-808451D02*
G01*
X957442Y-808451D01*
X1062441Y-1016452D02*
G01*
X957442Y-1016452D01*
X1162441Y-808451D02*
G01*
X1267439Y-808451D01*
X1162441Y-1016452D02*
G01*
X1267439Y-1016452D01*
X1287444Y-832449D02*
G01*
X1287444Y-992454D01*
X10290167Y-2278148D02*
G01*
X10290167Y-3446548D01*
X10406956Y-2262350D02*
G01*
X10406956Y-3462347D01*
X9606958Y-3462347D01*
X9606958Y-2262350D01*
X10406956Y-2262350D01*
X3107438Y-1878528D02*
G01*
X2457450Y-1878528D01*
X3107438Y-1418536D02*
G01*
X3107438Y-1878528D01*
X2457450Y-1418536D02*
G01*
X3107438Y-1418536D01*
X2457450Y-1878528D02*
G01*
X2457450Y-1418536D01*
G75*
G01*
X1901444Y-4479290D02*
G03*
X1903984Y-4570801I2551J-45720D01*
G75*
G01*
X859960Y-3997279D02*
G02*
X879960Y-4017279I0J-20000D01*
G75*
G01*
X739958Y-3997279D02*
G03*
X719955Y-4017282I0J-20003D01*
G75*
G01*
X859960Y-4327281D02*
G03*
X879960Y-4307281I0J20000D01*
G75*
G01*
X739958Y-4327281D02*
G02*
X719955Y-4307279I0J20002D01*
G75*
G01*
X1222441Y-4559750D02*
G02*
X1242441Y-4579750I0J-20000D01*
G75*
G01*
X1102439Y-4559750D02*
G03*
X1082436Y-4579752I0J-20002D01*
G75*
G01*
X1222441Y-4889751D02*
G03*
X1242441Y-4869751I0J20000D01*
G75*
G01*
X1102439Y-4889751D02*
G02*
X1082436Y-4869749I0J20002D01*
G75*
G01*
X3067345Y-428983D02*
G03*
X3087350Y-408978I0J20005D01*
G75*
G01*
X3067345Y-220983D02*
G02*
X3087347Y-240985I0J-20002D01*
G75*
G01*
X2757348Y-428983D02*
G02*
X2737343Y-408978I0J20005D01*
G75*
G01*
X2757348Y-220983D02*
G03*
X2737343Y-240988I0J-20005D01*
G75*
G01*
X3157327Y-220983D02*
G03*
X3137322Y-240988I0J-20005D01*
G75*
G01*
X3157327Y-428983D02*
G02*
X3137324Y-408981I0J20002D01*
G75*
G01*
X3467324Y-220983D02*
G02*
X3487329Y-240988I0J-20005D01*
G75*
G01*
X3467324Y-428983D02*
G03*
X3487329Y-408978I0J20005D01*
D18*
G75*
G01*
X7424001Y-4185125D02*
G03*
X7551001Y-4185125I63500J0D01*
D19*
G75*
G01*
X7317575Y-4257515D02*
G03*
X7318083Y-4257515I254J-29999D01*
D20*
G75*
G01*
X7107517Y-4240497D02*
G03*
X7107771Y-4240497I127J-15001D01*
D21*
G75*
G01*
X8251952Y-2303526D02*
G03*
X8251698Y-2303526I-127J20000D01*
D16*
G75*
G01*
X1002500Y-1872503D02*
G02*
X982500Y-1892503I-20000J0D01*
G75*
G01*
X1002500Y-1752501D02*
G03*
X982497Y-1732498I-20003J0D01*
G75*
G01*
X672498Y-1872503D02*
G03*
X692498Y-1892503I20000J0D01*
G75*
G01*
X672498Y-1752501D02*
G02*
X692501Y-1732498I20003J0D01*
G75*
G01*
X1749986Y-1426601D02*
G02*
X1749986Y-1248801I-12421J88900D01*
G75*
G01*
X1422987Y-1528201D02*
G02*
X1422987Y-1452001I0J38100D01*
G75*
G01*
X1422987Y-1375801D02*
G02*
X1422987Y-1452001I0J-38100D01*
G75*
G01*
X1422987Y-1274201D02*
G02*
X1422987Y-1198001I0J38100D01*
G75*
G01*
X1422987Y-1121801D02*
G02*
X1422987Y-1198001I0J-38100D01*
D15*
G75*
G01*
X1099741Y-861652D02*
G02*
X1116124Y-918802I3635J-29881D01*
G75*
G01*
X1112441Y-975952D02*
G02*
X1116048Y-918802I4377J28413D01*
D16*
G75*
G01
X2674747Y-574980D02*
G03X2674747Y-574980I-499872J0D01*
M02*
